<mxfile host="app.diagrams.net" agent="Mozilla/5.0 (Macintosh; Intel Mac OS X 10_15_7) AppleWebKit/537.36 (KHTML, like Gecko) Chrome/136.0.0.0 Safari/537.36" version="27.0.6">
  <diagram name="Page-1" id="rvBpI8BvgyCquvyMlJjg">
    <mxGraphModel dx="1426" dy="800" grid="0" gridSize="10" guides="1" tooltips="1" connect="1" arrows="1" fold="1" page="0" pageScale="1" pageWidth="850" pageHeight="1100" math="0" shadow="0">
      <root>
        <mxCell id="0" />
        <mxCell id="1" parent="0" />
        <mxCell id="0hDTnjNGJMCXtrsAU_51-1" value="" style="shape=image;verticalLabelPosition=bottom;labelBackgroundColor=default;verticalAlign=top;aspect=fixed;imageAspect=0;image=data:image/png,iVBORw0KGgoAAAANSUhEUgAAAqEAAAESCAYAAADNFAwYAAAABGdBTUEAALGPC/xhBQAAACBjSFJNAAB6JgAAgIQAAPoAAACA6AAAdTAAAOpgAAA6mAAAF3CculE8AAAAUGVYSWZNTQAqAAAACAACARIAAwAAAAEAAQAAh2kABAAAAAEAAAAmAAAAAAADoAEAAwAAAAEAAQAAoAIABAAAAAEAAAKhoAMABAAAAAEAAAESAAAAAJYYH4YAAAFZaVRYdFhNTDpjb20uYWRvYmUueG1wAAAAAAA8eDp4bXBtZXRhIHhtbG5zOng9ImFkb2JlOm5zOm1ldGEvIiB4OnhtcHRrPSJYTVAgQ29yZSA2LjAuMCI+CiAgIDxyZGY6UkRGIHhtbG5zOnJkZj0iaHR0cDovL3d3dy53My5vcmcvMTk5OS8wMi8yMi1yZGYtc3ludGF4LW5zIyI+CiAgICAgIDxyZGY6RGVzY3JpcHRpb24gcmRmOmFib3V0PSIiCiAgICAgICAgICAgIHhtbG5zOnRpZmY9Imh0dHA6Ly9ucy5hZG9iZS5jb20vdGlmZi8xLjAvIj4KICAgICAgICAgPHRpZmY6T3JpZW50YXRpb24+MTwvdGlmZjpPcmllbnRhdGlvbj4KICAgICAgPC9yZGY6RGVzY3JpcHRpb24+CiAgIDwvcmRmOlJERj4KPC94OnhtcG1ldGE+Chle4QcAAEAASURBVHgB7N0JsDXdVdf/y+CIghMoQghTDAGiEScGgScRgQgoYAghQEECaBQBLUUGRf5IIabUojQGooKAIIR5UCZxeCOGgDgwRUSGACIiiKUgFiUq//vp5/3erOycvuece58neUneVdVn7b2G31p79+7d+3T36fMqv3BJF5f0y37ZL8OO0v/7f//v4lVf9VWP2p1q8FDGeyjnpn/38ktuPynbsn/1V3/1rXzoI79DunNl9xJL7FcmvFemtt503zYH/Z//838ubOo241v/3St6ZdoXr0xtvem42xtX97LvjOP//b//98Uv/aW/dBvbK3Zjfy+XQ/IV45DNObJ7iXcvsbThlQnvF3Nb5f7zP//zF/duNXnOCH7Y9r72QJOUnYzmwjPZfU3gYfCHe+A+9kBj2OKzsT1l9zH0w9AP98B97wFjuS9T8wuWeb25/b4n8XCAh3vgPvVAc3Vj/NUJDOwP/dAPvU8hX7awtedlG/XlE22vrVNe+V/9q3+1fUP8nb/zdz48kb18dtfDUe9xDzS2P/3TP31DfsYznnF1VfQeh7pncOV8zwAfBnqF7oF/+S//5TZfm7cfHjuv0Lv6lbZxV/dmP+RDPuSVthNe0RvuS0bfqD/swz7sFb25D7fvlaAHnJD7Jt0i1BxG/jA93AOvKD1gPNsePj+/ouzRh9uhB+aa5LL88B35V/Rh0Yk5/ore3ofb94rfAy1A5/zli9bD9HAPvCL1wMNz9ivS3ny4LfXAHNcPr0DrlVcCPk/Yvxiau5fvnvycNjkI4MyD4Zj/obin+hdPjFk+FvNc/WzTLBd38kPYq88hm4eCrH6PPxRyOjWHm/bx2tbq8eJXjyefnO6Qfsoqr/kmn3izfEw/bSvns8ZKj2czZaeWj/lO/SxPfHL5PUzn7YvZn7O814+rzVrf8zsmfyjsO23ZG+PJ72We9xLrWP+eop/5VH74iDql515BbO7VwXxqdzTITrU/ZDcxKuPzYE5+yP86matp59Aa59z+nP6zfCyH2souv/jquyefvtOH/Yo/69P2oVaW+2zvLL+sct2LuSeX16pb68dyP8X+VJs9O/K5Ndan/SwfalftmHaznE8y3Fas9BMn20OyVZf/lM9yGPE93ZTPcn73m788Yu61qVzi7PbmCzZzX+5hrvL88Bknuymb5fTxdCtP/7Lme32x9l/53ia/iaG8xrgN9m1864OXyC/AhMf4ufYvD7xjMU/V/2Joqxz32rPmv9ZXv2P61X6vHo7bo14zMmnPJ/m05d+zrA1eeq8vYU8GP10Ye5xvthag//N//s+r/PZ8pvx//a//BeKKYNCHOW0ZzbqyvBG/2qA+7dTRlLEXw3bdLWd2ctQn/NmSoZmjMr1NOXx28qo+c6Crroyq35bfBGtL4PKjdk2MWb4Xua14YYq97g8625rX9KmP//2///cXf+pP/amLz/iMzxDi4m/9rb+1bcrtN2XUflIuJpvikaNkbH75L//ld4UPfor3UR/1UVu8/NY8mSarHStWx3R5FIQfnzV3+rCU+WUThjp/fSPv9GTl8yVf8iUXv+f3/J6L3/E7fseGB6uY2ZCFpQwPic9PvA//8A+/+F2/63dtvn/n7/ydC9uMV5kPCkNeyuTp4uwq35bDQuHMtt3VvFiXzTE+8Y7ZXqdvf7Epr/q7fZG/Ot20TSef7GdulfOZNunIosrTno48XbbtR7Yzj8p7PP89/TF5/vrCpg/zoSND5Ttzz26P8zukaz/BKh47G9khH1jRnv5c+R5ebaW/uhKa8BgP9Jjdqfr7gXdq7GN29yM3mMfinqo/lt+qX+trnGP61f5QvUGa7ud+7ueuBjz85Hu8HHBY4eEdWJ0E2UycWV516ihMtk4qYZ7iO0/q7G3wDk0iYoW5TgLqTUbTLvtDMjo+Nu3vZMhWnd6WjpxtmJXFZoOni7Opv/knXzkdWuU3rd8Ea0tg+Sj+TfDyXXkhpnzuzy/8wi+8eMd3fMeLP/SH/tDF137t127mbP/rf/2vF5/6qZ968fjHP/7i8z7v8676uz5m8+Zv/ubbxkm//9E/+kcv/tgf+2MbhuMmmmOWTJ2/PMpFHXbHm/I86fJ7szd7sy0eHXsbCp/9ugBMXxy8sccv/cwp3E15+cGn/PDGKB+50CM8XTHI2CBv+Hj+859/8QZv8AYXFtTFz6+4fPOBl/zf/tt/u/n89b/+1zc8Nn6o2Y9+4ITJgF85wtG3ycKMZ38vOAwU9szprubFumyO8Yl3zPY6ff3Kpryyr6/140pss1O2wUq29n3+2VYPm3wSHHjlYBxPbLZ0iDxd9es4HcrnHL7mz7e24+q2xqw2aCOe/rrYe7r6Fq8sBqqPDvluBpcf57TxEE7+e3jaFl2VEh7jV44PghyzP6a/H3jHYp6qvx+5wTw1/jG7Y/mt+rW+4h/Tr/aH6g0+uiaCJg66Qz7iJj9Uzr8DsxMU2+Klm/5hrhxeueB8T/XLLp+wku9xOZSrsi2MNb+JoTz9lMWcvl39rC3hsatMZ/LhR66crnj168RON7kyyv+2/CZYWwLXfNw2p/xnboXTP+2T93//97946lOfevGjP/qjF//xP/7HzYT+K77iKy6+9Eu/9OIpT3nKxfu93/tt/T79GIYxy8nm/iFLvgW4/IBlk2fjYe7XaT/LxZrtC19MCy04K2VTTJxd8emVyVf6lb/yV275h5stjqqL34kyHLL0bNX/wT/4Bxdv+qZv+hLycPDaVo7x4jUvVaef5fIMS73FvbZUTo+j4t6W30V7MV65Jb9JrHxvm1u5tO/Dgz/3Hbkte+X2KV/ydLWn+ux/5ephsk+mjIqVPHxyYwYvP/bFyvc6fp0O7nX68mBTbsodZ+XWGGXTeOR7DB/WIRs4xnl372Bm1zx/yJcMZXtbfhftpfFm/2/vCWWY8BgP9Jjdqfr7gXdq7GN29yM3mMfinqo/lt+qX+trnGP61f5QnayB60Br4oFNfsiHLnnl6nHyDmI4ysURY8bK5xAn6yAPo4PykP3MJ79kuBxq154/u2Jl08KRLll8ypSRGLURllzkjdvI+NeWGY+cPxnKTrncYUwbuqi84nvy9OdyeOf6ZF8uK09/Wz5zq6/q/7CL/Q//4T+8eL3Xe72L3/27f/fFj//4j29iPv/tv/237Tb7V37lV27t1Nef+7mfe2EBi/7IH/kjF//u3/277bawq5W/5tf8movnPOc5Fz/90z+97Vv63/gbf+Omt9jNx1U8+OXldjNy5fUDP/ADL/7gH/yDF//0n/7T7bETNt6jipTl6vb/u7/7u285K7tV/03f9E2bj/FpwfXP/tk/2+wbY8WA86//9b/efL79279ddct3K1x+sHcl+HnPe97F13/9129jTz5v+ZZvefGX/tJfunjDN3zDix/6oR/azOH8uT/357YrybNPv+3bvm3Ty1d+DzzwwMVv+22/7eI3/+bffPFjP/Zjm85J/AUveMHFB33QB11893d/99UYf/3Xf/3tiwEjV0C1zTs3xXIcIVdWP+mTPmnrA3jyFF/urri+x3u8x9V+5EeuX/DyjMOrfC94+xTuITo3Rhjn+q325hfjQn7NNeWqX9CcZ+hsyejrP9iVydWzV0fV6cqFfPqpTx0fuRkbMy55lP/0q7zyib/qjtXzrR3FlxtfeaJyI2+eJz8Vf7WFB8e+aj9lM/tlxWeDVvlN63fRXhpvyi9zvTtIEj7MH+6B2/RAB3cYHVzqDeR013E4bWHgZI3Z5A4y3/pOIT7rxBTOdf7TJv9kp7aLvY29yeEc4tfEFYZ6ZVjK9T9dRD7pV/2qX7XZkdE1KckrTDgPZZL32q77ne/cz+sY0F8/8RM/cfGf/tN/uviqr/qqi//+3//7xTu8wzts+9pV0RagcuRrAfoN3/AN28JQO9yatwBFFq2uoFo8+RMR9haLf+AP/IHN3mKSzzwW5GahhCz07MdP/MRPvPiAD/iATR4OPVt4FoVwlG3IIwVdPemL0jqm5EVmk/M7vdM7XXhe02JZHHng4ljsfuu3fuvFF33RF1189Vd/9cX7vM/7bHE+5VM+5eI7vuM7trIcxLXorA3dOqezeVThzp07W59YMLJjr2/E+azP+qyt3ML1mc985hU+/bOe9azNTkB5I18W6gN5hoWz8UXC4xbsUAsbZTndL1qx1/r9insKrnlWP+gjY6y+lCNZfUdOP+cTNjb7A+Wjnt3UlU+yeBjhhZV9dfbyYBdXRmGV/ya8xx/lhxevsrqy+PUlma2+uE06sNGMU9n+e6iQPF/iSCrxY1wDjtmcqq8zTrU/Znc/8I7FPFV/P3KDuRe/eNMm2XU+e7pT5AZ6B/ZqvyfPrjyru/rhRxsw/XigHyT89t/+27dmkCO4Dqz8DvF//s//+Xbih0OfL37IHu4qF5csf5PH9D/kc8hevl1ROeRDhvK1mPBDik6Cye9a3W3/J3/yJ28/2pjtCiNO52T/Fm/xFlcnC1gf93Efd9W3YvSjjfwO8UMyWDeRb06XH+f653eIn4u1Zx92enX7T93W/rfoevrTn749q+iK3G/5Lb/l6nlPNu/5nu+5LTotnlpo/Ybf8Bs2//ZZMSzULGJ/3+/7fRdf8AVfcBVL7Gzxxp8yXycv9G7v9m4Xr/M6r7OVPZvquVQ4qNy3yuUH3zDJlC0AW+Qli1u0OQ6KTS6WtqByKKfa9MZv/Mabnh+y6O5kWA7GuWc9o3z52Kr//b//97ex/of/8B/e8i0mv9oHf7YrGzH7wlrc4lkU127xXK31KMV3fud3XsUpj7DLKYzqt+UTr1jJ8HPx8z3Xb9qXB64/9YVyNvrehsht2Uy7mcu/+Bf/YnueuqvT7T9+yJcDz1s7F4gpVthxdo45V7vZITpY7hbM8wb5pOq1YY/z2dPtyWd+9Uvt+oiP+IjtOILrokBXP41PeOzwPezk/FH1uNjKuONKH/hR3zHcu2gvjRfuufwY3pZ7Rng75Bg/x/YUrIc63rE2nKrXTnSq/TG7u2j7eOlnzGR72NN2z+aY3C1At7IMfCcsm8nhmF+x2TlYTCB+qGHgKzuQHaxOFmzIbcp01+G7KtWVKXGaFJSj6/zFcYIqLn9b8a/D4GMCLUf1r/u6r9vayG+Nu2K5Zag/5sS/2phommCKw4YsLldX01A29K5KIXpyV5OU0Zpb9et02ZzKt0DXxNrDye8Q3/M5Vx52fur1Kdnc6HzZ0Ydv//Zvf9V3+vLLv/zLL77sy75sk9lXyIKL7drXrpyK4SqcK6LFmHbK1eOOjT//5//8dqv6r/yVv3LlJ64rogguPD44suC1WI3cGpdX4y589q5mtojOP86/vuFTrNpJX3v5KCO2brG7re+KJfx86acPP1eRPXLgijOa8ZXnRj/b6hjyVoxJ7NloN67djgnP+toH+rVjLywczdiznvymfAN/EL9YyW4SJ9+b5sPPfrBfLOLtK498+MJqnjffWzB6rMSC8BDBmG1RNyf7wpC8/d7Y8KWnOSsd7OzjMNwBiMjh9+aDzhvTN1uc7XX8Ot2e7wb44IfcUWP52c9+9lYnb+GZHh47fA87+QZy+VE9Tq4PbN2N8IjK93//928u2a18U15+rPKb1o/h0b/EPbd23DHO8ZjNqXpY6FT7Y3Z30e4t3rGYp+rvR27X9V3xpk2yvZyn7Z7NMfmdO3e2RZaTBFvk5DwpuYOwCaeBzi79lGUbn3hk+Uw52cTIJln1fKrT57vyfPOJT7uZY/ZT9hf/4l/cJu4mG77pZ2zYa51stjf8aVsuZKg4ynTRajdjKeeHz5Nx8hUnvHh69nKG6YSOz1js8jmVh32In4pxzC7saUemjixSnvvc51487nGPu3iv93qvi/d+7/fergq6Nf/AAw9sC8InPelJm/xv/+2/fWF767d+6+3E2jOhTg4Wgm4z96yjk4Vb+OK40vgf/sN/2HTzCuejHvWo7SS+JfLghxw8c+lKLF+LXzjIQg95FOQxj3nMpvfsqfwjublabmNvvyH7zn5DrrQiV1be9m3f9ipvOcvPAtgVrm531063/FuI+3L5m37Tb9pwLMprt1vgXbnq1rpxIh8LnxbwrlCWD6yuxMJHZO/8zu+8lVtMq3hswJVN9Nmf/dnbPpKz/2Z3srZpt31S/6trPxLTcRA1LtZ68pvyFa96/Fzcm/qtceDoC/vJAtJVaceAfvvJn/zJ7Sq6fdHCcj3G1SfBR8VpXskuPm1mOX04dJPobeHS5TPtlMsh+VoPh35iFFu/dLzQ2+jST790ePNh/halje01B/hz0RrmbF/x4BUf9+U2Cnflx/Sr/bH6MTz6l1iE6hB0jJ9icwwj/RbwhJjZH+P3A+9YzFP19yM3mHvxizdtkl3ns6c7VV4MA9TmlrofbPgxhgmc7JGPfOSW93/+z/95M58HnoPHichtCldFnGydJCITnmfvnHDn1ZBORK7qvOZrvuaG4WQ8yQnIyUcMV1dNoq6MaJsD2etaXLWVI3wnNSdsPxKR6yMe8YiL//Jf/stmL2d5iuvHEWwQnKc97WmbDRyk7V2BefSjH73JfEuXgwX6i170om1yeeITn7j9MMXJUo7I83Dyg9UVZbcixSVrsmHrhNAPWmA/cLkQ+r7v+76LX/frft2Wq1uM7Uf91EmbL7m+1U794MSvn5E48Nhoi7p9qf2ujNhP1e2rYuQ7c6xddNOu8qmc/x6dinHMLvxpp+3VH/vYx1588Ad/8PbDIX2LLPLsG4tP+9z4MVYan44F49NCB5Zx7niw3372Z392w/BcaET/63/9r7/4mZ/5mYtf/at/9RabnXjGWn1buecx+XtOUwwEBznBec2ROr39pz1v8iZvsuXwW3/rb73Ki5x/GOzl3lh2PMjltV/7tS/4vcZrvMZV27STf4tN417ZM62v+7qvu8VXJ3eFtVz5WKxP8mt4V3P1Ex9tRWzloC3kHjUJn4+y+QNZTNpf+lLZHRptkbM+9EUCkb3Wa73WVm//bIrLjxYA5GLbJlW/LQ8TTn2fDD8XP99z/VZ7/Z7MD7vsD/vyXd/1XbdHjH7wB3/w4kd+5Ee2H30Z7x7tMM/4sZ2rpshcQQbLPkAwzYeOlbd6q7d6qWfmxXIegeE5ZPXv/d7v3fz4rHOOK7J+ZBc2bm7Tl7Z53jGHmR9dwbWQto+NgY45uRrLvkTVdnjd+lc2R5vH5cQXpjzZ2/wIr3aL9b7v+76b3LPM8jG3em66cxGZV7/5YSBSdz5qIakfGq90YrgD+QM/8AObvWP5CU94wvasNJ1czentPzK08k14QL7anVo/hkf/EovQGnOMczxmc6oeFjrV/pjdXbR7i3cs5qn6+5HbdX1XvGmTbC/nabtnc4ocjkkFOaF85Ed+5DZxuGViAnFgG8gmLROIqxxOBCYgEwhyELJ1cp6LULrP/MzP3H7A4UpPB4RJz8nIpmwSWRehnsW0WHLAmjhcCXJy0yZ59s5Acgf93/27f3e7siMmvWf7Zs7krqSQicmmH47QyQ02PLeVvuVbvmWbaOkQnQnCVRt90q1wV9JMVtrpqg7qikM/Igkbhg25olY8ExtsV6u6Et2zeXztHzEmTV9l7bE4kD889I//8T/e/FqEm1zhW8yYgDshlBOfmWuLJnryqPqpPL9D/FSMY3ZhZ6c+czae521Ai7tsW5SG8Xt/7+/ddNpvIehK0kr5ks/yarfWy8lJxriOZjlZXH6Ot0g8uXWiIl9lxgA9KuZWebDOHmlr+idcngxR+70fYJHduXNni6Fcey0q175xHHd113juSlGY/MWU23wedMYqDzjiok7kW+XBj9og/3KKTxnz5PlXvy1f8arHz8W/qd8aJ5zmEXOIMdSXUQs58wIyL/ybf/NvtnmxW/TwzOnmaLrGiLnNQs2CciU+iJ+yhZoFpi973hbh3JFN3OLOl5DGaphyQuscbh50gcIxIY55zHwuRwtoV/nN/doG07gzNzc3Os7Mtc4v4s5zjzaK645DX1AtQpF8za3OO+baJz/5yRu+svMf7sus/OA739XGdexqszHuKrU5ujsB4uyNW1irrrymfLU7tQ4L7dlvus3iwQ9B0TF+is0xjPRbwBNiZn+M3w+8YzFP1d+P3GDuxS/etEl2nc+e7iZyPk4Ob/RGb7QdnBYqTiAOcJurJ16vYiJzMncFkQx14inneN9IHZAmBos+k4Fv492uFKMTVX64GOKZRE0kfBwgJkV11In7G7/xGze5E2Ix15zZWzDy75e/JhSYkT4wceHkdx48ARbHrVY+6haiFqpO9uquakUmK31CblKCVc7ZmNz4tq9gsze5zqtrfL3H0gKXvTqfnr+CV5n/JH2s/yw2++VwejgorizH2l8fkJejMqp+Kr/rdfjzVIxjdqFnV322L1k823hynKyTWPWJNX1meWIo87HVt/VvdnzDdSJ1Yp1kXDjxT3m5FdeVIyc+OMnCbNwZr15tJIYcIq9D4oviymGt+RrnYYvVF69k+cGYvrOcbbnlE4dbO+BMypfskM0qy36VV78tLzc4xUo2czw1Tr6n2u/Z6Vv5uIpvHjW3u2jgjpJ9Ye42l5sbzDe+lM35h8xcRGbesXhF5jZf+uE5R6DaLRfzTHPN93zP92yLORg2C7sXvvCFmw9bmy/F6TfF5Yf5zPxt/upcI1f28rLA9IiJLzHmWc91dz4Rg52c4habkzpvrecePl6xJjbqzoOyPkBsLBr1oQWwGHJAnRuc75znHCuuINc/bNjP84hFM1nnouZ4tojuEN+E1+j3/Pbkx/DoX3ymVLnsiE14hJ9icw7WQx3v1LYcs9s69/LjmN2p+mN46fEwk1Vf+bRddafWYRiUBr6TiUWcA9sVyM///M+/enAdngPSAY5wi7mViksO14Fa2W1pf8MnjmfPTI6+dftWPf02h8sP+OLQmVAt2nzb7NfD+eBk5TblZMnh0vkWbSJTzraYuG/TJhHPvnWSrB302uV2YtTkZyKNXBEuLt8O/BmzxSlZ+tnHYZVjvngnmHTZxpPbj77xw7fB198WHt2mzXZtI3mybFb85Md4fof4Md9T9WGv9tqtHeTp6u9Vlh4Wm+rKbVNWmf0sqyOy/PDZn+oIz9dVmK4ApXPCcmVmytv/G8Dlh5fCWxzADzfMbCxCvWqqK/jp4bpShBxfjXn18MoRN1c4YTqOLRbm1WU+M/7qL2Zx2UbJ8fwtECpnFw9j6iuHoV6ZXz4rRvKb8olXDsnwc3HzPddvtS+2BZs53Y+TcAvRFoLFKu9D86UFmQsA3eEyb5ibxcsvnMkbR83jexcqYMzjYuLS8TdvodpoDrPANbch7XI+8QVLe/mFg7vK7viIXIRwZdZV1trALtvOTa5Ukk1S5+/OW+ei9OZ0xMbx4ZxQv2VTPLzFbn11KFaylYe3ym9aP4ZH/xI9MRtCuVe/TrfnsyeHhfb058rvot1bvHNz2LO/H7ld13fFmzbJrstxT3eqXAyD1iSAWyj2gwTPvfjFrwMEXpjlqM5nyss53sGlbuFpgiDzzJCJ4WM/9mM3U8/nrBQubhJy4HvG8Wu+5muuTOlgmCw+7dM+bZOTlVfl2mdCswD1g4x+TMGJXROhZ9BcLZBnV2jljdj4BbG6GMgzP/Vd7XU11tUptrDnN26TePmFEfeMVrqw4m5lofBwW8QvnHxMsiZUfffA5TOnFiJ+/OGqNBv54dplwYrDhEMezoxTDufwcjzEw74tD3vFIa8ttWf2E3v7p7azry/pbHSdCGHQk4WXHV/liU+G2OtjPmHiYje+LPD6MmPfuEoyf3Uc7swVttt7CA4dKk4+jrduebMrdyfLJ1zeGkSOCf42frVL2yvLN0xcm7LdQC4/1MWwZcuOb/biF6dc2FsIiZV92GSzrA4Pn6QOV85wi3/Ijl/ym/Ji8y9Wspvg53vTfPLTfn3obo053YLHWwV6BCm7cjY32KrTP3A5Z7hSaT60IT+I8/wjvf5H7T/9jujat+ZBz6zDNvdG4mTfY1382mfKCLeVl6uP5tB/9I/+0XYF1PHyzd/8zdszxM4FHt9CcMLvTREwYGmLuwvqns3E2dt8QXf10vnEnTNU7K1y+eGCSG99mLqODTFcOdZ3NvWoY8ncHM1+nGOaX74rz3eV37R+DI/+7t590FLDBTvGmR+zOVX/YOiHNN6pbTlm97Jua/HwcktWfeXTdtWdWneAmAC8tsO/pnSScvu3X5y66tfA9s3TN0gHp4WfqzT0buPBclWw/3v2YHbPF3lWBqYDU25urfjW6mqjhaENiQOzE3Bl79ZEFrIOUpOLxwFMBBbO/bMLuXdphuMkDkPO4tos9GzdXvKCbic+EzZ/k7ZNHJMSepu3eZstltsw/YL4r/21v7ZNfCY9kxbf3jJQLL8M/viP//jt9pWcYHoGSFmbcJu+sjD0nj1XDCwM/GoZ0blV5paaGOxdUe5qrJj6EvnigLy2xq+TTfx/42/8jW2zGEWf8zmfs91GcqvI81of/dEfvV1JkxuCL46t9msPeVT9VJ7fIX4qxjG7sLOrjpNNykYbUQuj+tdiqHL9EEa+/KZMHWVfefZbmPq6mIfs7Dc/eLOPOybFsj9wWzkqF2PizwWgGO1LNtmR56s8Y4TPVhnlx4dtuuq4ONqnTB+F7SQcsbGxL984m3JWrp3hr3oY5qcWX8WBP/23yuVHeLflK171+Ln4N/WbcfSRrf53FbArgcaTLzt+BOlqHhs/ODN/v8u7vMs23izs9BvZn/7Tf3qbk9zSNp97x+5f/st/eZuj2cET+4HLBau5rXnJOcKc5krgJ3zCJ2w2zgN+kGZOMyebV81t5lRf/pGr+uI4BpDzTOcaC2mx1J07PKLiLRdk7l7J2Zc2pF3kHWfOcfRu3bt6b25218u5h5ytzV/6uiOAyp2+H9Z2LrIQbZybj/m6Q+DHtH/hL/yFC29V0W6Lfv7tC2U58kf6yJj37lTk/NWr+Ngi2Morv0632h6rb4GOxHqVX7gkhp1wcnqYv2L1QM9ldUXkfrduDk6x5mDvIHAAKVfng/LdKg9+5M/HRMjGQeakoL5HYdLnN+NOXBOLCSA7ZbLsYRWLLExXjPxK1G1Ees8VWYSi2ZZibYoHP8pvYqcnS55duVVnG+7UJYuzW/V0qLYok6mzRTO+soWxK86uXOCoMVUsVyYsbl1dJrPVr+zhkN2WwmnhP28t3xb7FP/a0PjgU050ym2zP1sQ5ccmYtf+gBFO2NkVW92XKydcJ15f2JxEvS+UjS8d8H0JcXJ0i9yP1zxbhlpEsHEl36Mz7Sv+/aKZrTHty5d9W/x/8k/+ydWXFF/czDO9EoqNL0sWF3ydcJXl6GTv2CV3Jc3jLL7EIc/+WTyE4wTtBOtYbDEoRznXl+Uz+3T2Jbvaxc+G8lvrdLDCp2drm/uH3f0k/Sm2Bd5DgeqH+MwpWX00+3Ytq7PPJ5x81fNRXu1WWXo+9nNzuX1lHHT8NT6mP19zGW4uczy5qmkhbFEZzfGQLC5u5yKxYK2UjG1ltvyMM/LGVhjTrjI+MfjySz7jJit3fvoHKb+8yYWjl+ip2UjJ7dWv0+357MnrhD39ufL7gXduDnv29yO36/ZF8aZNsuty3NOdI2+A47NcLmHRKXfw0U+fac+ug5MNH/VstsKDH2xtYRWHugNeubhk3bLjh1qAFhNnHy4bddi+afpfa1cb/+yf/bNUG+XLJ990ZPT8cRR2vPzplMs3OT51YSaLT9/N4fKjfMIoh+rsyKadPtJGv9y0kMCjcnMby5UHuaCZk3r46clQ9VP5Xa/Dn6diHLMLPbvq+OyX5LNtfNSNrUh/OumgbHFyPJ/KMy5ZW3i4kyVMi7jeSMHP1XQLvH7g4CqJq0auVreoccXHM51k5VmMTlYt7rXXnQKPr3zXd33XtljsKrk83J51pcqdBH/GYDHpkQ14sPzwRDstdr26x/ElptuqrmIVx4LAApS/qz+d3MWv/2DyrS+1t/FXH6qzy0eOaMrpI3bpyNLBS0evTEeO4rOc7KZ8A34QuzyS3SROvjfNh588yiUeLp4sW7LKcX2nbEPTR73+ZzeJXT7k4cXT8zcujDcyZZw823DJUdyVSl+y3cVxIaG7U9lkVx6Twzee2STnVxnXptoVVn70NvKJUb38YUZ08DpOlWe8YuL6AUb9MmNMn7BX2U3rx/DoX3xf47IiMXSMn2JzDCP9FvCEmNkf4zO3WV792mFTXnn6zXL6m3JY6Kb+q99dtH289DNmshWr+rRNdlMOy+DNv3KcXLl6ueVXPf+VH/JbfapnG08eJ2+CICu3GfOQL70rcd0e8T65+avJQz7FxOmjbOPk5ZFN9fKaNsnCnDj5Tz7tw119wsrWbbNO/q7+9gOq/PAWPfnMmLO86qufyifWWj4V45hduOxq45RVjmenHnZ9eMhmtctnyvNb4yfHPS/s1mHPrrnl6YqnLw3XkduGbMqxGPHpKzebH0rgXlrfe2TZ8TEe3N6E2cmRLl/l/JWL88Dlbdf5YySvqnEVl9zjJFH21eFGyqueLtmqT77yFW/WwyArdvyQLN25fMaU30q3wbtpnvKor8pnrZMfksn3kHzmEma2e1jZrb71yaE46abvLHc3hczzoeawfOCh8kq+cna21hb5TK6M8r1be+nP2jDx8onnVT1bi81kbJTDU6+czcrzuRccBlpjVKd7iUVoyR3jHI/ZnKqHhU61P2THf+54Nodoz7cOoV9twmEzd2529JWP8bCO2Z2qP4aXHg8zWfWVT9tVd24dVn07y8nCq85mpWxWuXp+08atSFdUuo3IxjM42eLsI+PGfp0LULp1X2cfnzHh28jmOBTLlaluV6++5UTuFpBnKV2h8nD8fMcb/bSdZbqZq3q5sfMAv6tF7/RO73SFkf+044fS3a3d/STL1pWwQ5QfbgLP/pAtWfr4IVm6Pb6HfROsYzHSz5h7sutsrvOpD/NfbVf9tDPGLELdvvWFyFUdz9G1wMx3YpIZG2zST8zKk7NzjMH2vk7PmCK4yMLX4xgWorDZF9M4RXzn8eak7wcdxqjHBPi4HW9hbTH9Uz/1U5ufj/CU4cKZMuVolpPhU15u6enW44lstasez7/6bfmKVz1+Lv5N/dY4s+9grvVk+a365OWDkyWvr9Pv+U8530NE7sq8q+zZO06KNX2aw5Nlf8g2G9z83l0FdX58PHvqOPGlzC3niA7hNuN3HW/04Rzi+adTn5Qcn9jikdlQ9ZVfp1ttj9W3QMdiZYSX3DF+ju0pWLfFE0NnHKI6acZQTj7zM6AMCs899bzbxGQ7t3QTg2yvfq79Hk7yY3jp8XN8sr0tb5/scfh7uuTlUFuSq8/ytPN8s1/kTvzVPrx4WHh+HmRPnl18xpsy9mF00q2e3eQT3/N5+U85+yar6Vt55mLssp3kfaeTwq6ddMn2+LQ91f46u3KOs618KuezR6diHLMLn93aN/kmz3byacOu+rSpHE78UMx0cb7sLPpc1fTjCo9LkPki42ToROz1Mz1z6Y0Ibp2r23zp8WO7/kXGuDWGXIVEviAhVybdvvcMtMUu7iQrhl/leoWYOOZRt+xh5wtrlldsOr82RhaxfnA4qfbWJzhKHs+nejy/6ZNtupVP23DixY9PLOXkN+UTr5jJboKf703zyW/mUjlejJnflJ1SLs4hWzqbxZ0f6vQD1dU2O3JjsV/P+8EUui7GZnD5UZuyjadvcZecvXJ+7FwMmW9LSTftkrFPHmYyfCXHtG0SrPDCCJNdskM2Uz/L+dyUw0J7/nSvEFdCPURsAox8s3Z53RWZTt51AhtlO2LK8m0HuZIwr2A16OLTv/IxPmPMHI757emP4aXHw0hWfeXTdtWdW69/93h4Yp5ik11+fGzqNuQbbc+WKU8qxpTN/dltZnoncxPYs571rGl+tFweDMXzLXnmqNyYxLP3XF8+86olff7sj5HFgWfuIj/o6O/rksGLKh/j5XGqX/Z7uOnjcCufysvlED8V45hd2Nmp16Zk1bM9xLPhY2sMJJ+4ycI/pMtmxurHRrBdDfUMJnJXwF9r8vHMWzSv0Ch7lATNcdmVyR43MZ4tPGH5oZN59lf8il+x4fuXGC8ityiltwjWBs+blq9yVL7mbmW2Fhbi90cJfiglRv6O15lf8jDxQ/12SJYP3aSJWXnl4cXzr35bvuJVj5+Lf1O/NU79AK9yvBhxcv6nUBiH7MshnB/+4R/evjgZfx7hKE52cfa+zHg+2ZX1sKc+TJy8sZXNxJ622VkjZENfO3wptKGwKqujbOPJ4+SdnzaHB308e/q85z1v+7tZ71qN2E+f4k78bPikX/l1utX2WL3c9uzoX2IRWrLHOMdjNqfqYaFT7Q/ZebmrH0nUUK+N8R/LPZvWxGXgtFPhZC8+uQkWn8/00aHiKoe3YmSzx/miPf258rto+3jpZ8xke7Gm7Z7NqfL6d4/D2dMlL9bMO926L2fudOyaLPJfOZuoMl/fMnudEb08ipf9yuktZD0Lp7zGLu/ZJmVbsWEqN1bVlXugPN20Ly6ZK0wz9owV9pTxKf51fOomzp5/MY7ps4NZ+VTOZ49OxThmFz67tS35rnI+U6bcWODTttqpzzizPPGmPAy8X/KK1RdoZSeqYvoFvTcbkB/Cyc4t+jt37mybMe0vAnH6rrTWJpgzj+RyRj1f5/a8f9rCYfVli5251xh3W94fWvhhWyRmxJavMa4s1qRi1jb12sSuejwZXhzY1bNbebbxzWFgJL8pn3hir3Qubv7n+q329UN41csx+/R4Nsmyrc7Hpt/x9GFNGR9fdiwqf8kv+SVBbDx7lTCULVZhe9URmnbq01Z56qs3JtSNP1S+W+XBuvGYPF94tup4VCw+YU995WnnlWHueLXIhRV+uMlwGPRhrPXk8emb7KYcFtrzp3uJRWjJHeMcj9mcqoeFTrU/ZGfC8m3/BS94wfYLNbdjfVtna7PT5kPydyO+eMfpoDYDLL/VTn1OeutgO5Qb3OThVb8tP4aXHi9Wsuorn7ar7tz63sBLHp6YyVY+bdjp805ys+x2Xidhdv7+7SM+4iO2b8p+we3xCs+XISdF+9mtQ+PCuPH+S7/SFZ+sA9yVI7/kJTOOLEzdhjQJ+LLi5Oklx95j2m0ft2DYy9273rwf1AuPvZ7GCbvboq7Yytu/jojLHq5X0ri6byHhJcf1gaua/iJR7vDd8vS6nCZF74ZD5bxVlg99x1e8NibK1/Fy2IzOsN/DDS8Ot/KpvFwO8VMxjtmFnZ16bUpWfXJl+sbq9FO2EGsuyY8cVQ9/ytLF06k7HpD92xiZGO334mbPBpUrOX91PrZ0bHtrRHj5yoE+PPXygpkfbO2vzsb8zc8v4s3nZMVXpltl6nJAMMUoT2V6G8q/+sr5yYk8DH6rXfXw4mxR9dvyu2gvxqsePxf/pn5rnNofXnXcxv6Byy/Cvkx4xMMzwhaMLgy5UOQ9nsgczNZ85wuO539dQX+TN3mTba7mg/ozDVfL3S0y3/onI3+R6Qdu4rhr2dV0c2Y5+4U7eru3e7ur/ehPNdzhKg9X4N05DcO4IfM3m+4qyRmZq12l75l4bSVzjvE2EOV+3OSugTzrG/5yivz63rtPET86P/Kbsbx/tAtr5nlxG5cW1cra7NEEfaTuzp9zkzKqH8pjr548Pn2T3ZRviYxcVhz6Vy9BlcrH+Dm2p2DdKzyLDK8M8WtK/5bjpa7Iw/MGlGfufPtGBoEybiA42fuGb8FhJ8rbYtbixAHiVpUHnJW7zXWsbat+C3z5scpvWj+Glx4vRrLqK5+2q+7cerH2eHh7+plLNnwMZFtfLuwvC1DvITShmGQ8H9eAt1g0gZnYTFImLhNHYwG2H/DY9/0TiFvaFnPGhphOmE54XsZsgfvsZz97i2OcwXTL+5nPfGZpXi0M2ZmcvKrGItRi1S3Lbot6DYiTrtzYmZyVxeTr5OxditpCP3PW5ny9Isp492ob7ahvtQemk4HJC06T1FWyJxTCO8F0Mzlmnz7OqfIpPJu9fNLflocfTnX8kIxcH1sUOYkYM51QXV130jV+6NllvxWWjz38xWyrwmJvU24Rlq1nNi0KHAuuRk7sfPhNnLlQdgKWv7FjEeDL1GzDGi8cvAVi+HJy7IbfeJUHHPb6zSZez5w6bvyoaebO1jxtfLv974TM/rof9tUneHnbL3Dd3pXnMSqHePbVb8P5lkM44ceTn8pv6rfih3OIl7M50aLTfOScaT+aI52D0SyTeY2Yc7bynTt3tnN3+HDYe4+sCwmw2SC5GUcWpOb9LhyUs3nTPNtzmeZP5+/5Rgc4r/Var7U96+wVe15XZsxNu/6FyJVU5xjHs/kWmc/N0Yjcy+H9WxLSH+WyCR78sHh2rviYj/mYK70LGB/5kR+5XQjhp/4n/+Sf3J6TdpHClzPzN7zf//t//9U/MrE19vUB3Twm19h79eRxaVa+La/d1+FctuHF31xz+MXGa6ABamfYWXa0CRdHvpkgO79n5uaiwS0qBMvEhExIT7j86zmTnBdvw/PPCJG+e5he9j2g300UnaTaD65I2vcmJGRfzvFNns4zcPb/E5/4xKsG+ELiYKdrTKUsBrmJzxix0D1ExWwcsQnPybtyviaR8JPhyeJk8pW3b87I807IuI8mvl8wmzw7DrL5xc7r44dqO3yp9TeExopFkc0XGT+oQHOfzvJt2lOfHMJzUvNjJC+XR8ZmdnOcOq4QXeMI989nL3rRi7ZnpH0xY8fG4s2XOu3Nzx0GsSwqXBiAj7tKYyHxwIOPjDje2JD54siu41pMG5nj2sn/0A9R5GBx7ITO17PcLRC2hJaP2hyvjfaP4wp/eVO5vbzzOCV+ueL1pS8Xvgy4m2M+tvhbib1jA2cfDpnjRN1mjrV1IWHi0MNH7i51Jyqb8qm+8mLCN8b8bzyO0k0f46u/d3b1drWD0wKUTvxDONqbHb3j4QmX6wxXZx07XrPmYoM2ddfMAtf4tOmL8P1TlFz8Q6EN3qGYm8ND8GPLt7xK/Bg/1/4UvGM2p+jZ+MbkKqWB6bkRO9Tl6mjFST4HK5vqFjmejXJAWYg6kfdta9qtuHv14u3pz5Ufw1v1a32NR7/Kblo/Futc3PA6sNtH4dC70kOejmyW1SO3wfl6wDtSJvOMMb+wK4c1J0q+5NOGX7ZhzxN9svBNflF+4SWPl68FDuoXn3JGYW6VBz9ghTvl2Z7LwzjXb88e3p5uT14Oe3zP71z5TXOzT/W5E4aFjROkLyDNHxN37uub5scvnMnrn15BQxdVjpdTWOGoW2x69MOVKZSO3NjrtiKdedcVef/OZNHL33h1y5NMmcxYJkseJoyInSu3roIiNtnRoX6coe4KFkq3cr4ovlUuP+5cXl0zf7QIXf2O1eEcszlVX06rffKbxMp3xbxpPbz6MU7exQHj4BGPeMR2mzj75kELOvOoDfGXi3oLwWT0jp/2jXrkR3EuGrjbcx3VTjaVy7lj1T9+9a5a+R2i5lvPLcMJi61jwd3UKSOvHneHpIti9I4DbRBf3Fkvx/49TL2FKV9/B2rNo/3iizH7rZincpjoVPtjdnfR9vHo717yuyzU2GM80GN2p+rD0/kGb8S/BlaefLUrnknS1qV9kwuClU0DrLoDI2w6ttk//vGP357bc0m+X4+mi8MPSxnN+ixPXfKb8i3QiLXirPq1fsh+ld20fizWubjh2Vfd3oNhH9hnXh3j0Qn/vU7uoKZzZUTdAeokY1K0H/1q0q2abpV63tIrYjwX6pe5jYn5F5xyeMxjHrONLbdEekbJc6IWteJ75qixLM/+E9gjIfLxRamY7MXyH/U2JH+TlP/55Y/YwXG1Xo42Y9xfIvJzpcGx03j038meIzIx1Ucb0PJBh87lwZzrt2d/mxzKZeV7sc6V3yQ3VwYfeOCB7RERJ063JC0+O1G2n8ql3Ge9eSiebuXlR97JX1kMGzoUL5vwshPP2M932pGbV6ePRZ9XOyXD3ZHyyIEx7DarsWvMWqg6Dj1G4jjxCEx/j2gMd2zDqC2Ogc4L5VR7yrnY6pXx7GZZjKi2pnc11q3PXu+24l1Xv043czrFjg1a/e5K736uumP1fI/ZnaoPrz5u35B7VtFVPZsr5OZmY98xgTz36Qqe/va/8r3FpC8kcjBHwjQX9teycCzU6Ols/Se7/drbFrYglx8eB2Dj+UpvZVA2lxqDHutAzg/k5m9jFNE5V8hf2THMr7+gNVZdzUQ98ufKPxx3qGCKYXwpP+pRj9r+DndzuPyQf3/A4HlVj7c4Fmo3H/8Rj/SDO7ce2xKXjWNHLP3lS67HvJBzAj26Kd+cb+G/xj2GR3/13/Gu9gHQuOt4oMfsTtWHZ6Ix4TQx8FdvZyuT2digJhSDzIAxSD1fQu+2V1e0+D7h8nK3H3X4GzjvxfOsnLKdbSK1aFH24w6Dwsndj0k8y2fiFdcCQt/U0WSRXNLh2lOdXT7sq9+WF3sPZ+rd8kLacJ39nu5c+Yyt7ef6r/bw9LF9O3Vu3bgN0i0cdvSocVJdHo2Z9oe68YFW3fSjrx3K5aAc0bffYVamZy+f2tB4n5x/efHJtrI2sp8EMwwx+MAo1sQr59vy4t8WJ394lU/l08fkjCxyolNxjtmdi8fefGE/uNphkeUk6uqOk6SrQ55vc6L5E3/iT2wnZCdjJ0Enaq8kUvYF59GPfvR2oiZThuvk5mRjzJvz4Nr/nn8Tzx0bZL/rDwtBL7GP1h9iqPdrdzYtErO3oO6Hc2TmRH//aXw31uQvnvj6s7q5xr6Rhy9zz3/+87dck/VctC9X5mN2/BE8ZbcY+/tEjwS4IqreuPYXoR5F8Txf+x++50xbELDVR3Lv5C6GxY87ZU70nq0Wj6++rG1k5XIdh3eq7TE7WIideRufV87SXZfPGmMDfBDzHL8Vp3p4K6fvi4r9bzw5BpxTjZuoHNg3h+EoHRwEJ2KP2GRXfersP5s5s33JvnJczPzCwdMXg42tOZg8mjp3Th0b6eFEydhXxq1xypNtOuXyOJRn2J1r2CO2+RXrVH4X4f6MZe1a87DuuuqhGn6Ml+Qxu1P18CRmJ+B2YuUShqWMlHWwus7Hm0D4IROOg3YeuGS+UbCxaFXn3zcruL6dFLP/PIbXDmUz4zcwcIQ3oMqNnM+k6rflYe7hrPq1vvrRr7Kb1o/FOhcXnj5F9kd9bz86Eev3MNko06H2T/sWR9mrJxODHx1Z+zGbfIq/AT34UV6qM598yCeOMhx+xY2T28rDuIVZPvmUY+NOjDBnXPLqt+Ww0G1x8r8J1pbANR9h35YX4lQc+wO171z16/ai+cizi5/2aZ+2LTgtMF74whduVw3JOulagMJ5wuUXZ1cVEe5W5VOf+tRtAeoZyw/4gA/Y5jgLJ/lZ/FnYfcd3fMe2KOPnNqZFgLeF9EVUPp45s5h97dd+7ZfYj/K1sLNo8MtfdYu7Fo4w5/gSV12+HTdkz33uc69utXZcuG3YO0PZW+xZnFqAosY0DoNNVya1TV0+XT21eKZv8UnPLxxX0SxGyS1SxbcI9eNVV5DczdCfzjn5TS4n9VP4KTbnYB3C2xJ58ONUrOzyrX5bHl59Xh2urauaFvgWke74sLU1XvJNVk72ny8fvoz5wubxOufjSWzDU+aDkuOtI/JjH80cplyZb/rGIr/i0DXf5ktH5hjl07EQDrtsJxbb8oTBr/NZOvIWtxMjbD7k7GCxpSvOOXxzuvyAdY7fnv0xPPqrvVLjjvFAj9mdqodXZyo7ySKNghEPT72NXYOEn0EQZa+uTG+AKKfD7TR4UfFwV0xNvi7Ht1id8ZQRnNogRoNixgk/+3vBw1zjVF/1az27+L3IaWLda7z6tb6Oz/0uZuPDPm88kSO6/OSqnJxOjIjOPmZHB6v2xdmmr4yzLU7jBCeDxSd89khdW9KTFZ88e/rKcNg0tmvvzA8OSnZbfhft3uKdm1M57PFz8fbs4e/pDsnnvqO3kUXKFni4sdZ4s0icr5Wjt4/zdRL2ozl3d/xwwR0b85LbmUgc9vHGnKurNs+zw0euovpR0N/8m3/z6l+SyPPpR25++RuFm125zTYkM1c+6UlP2p4LZW9s9veef/Wv/tUgtwWox2AsKuFbKOI2uYRXH9UXPbfXop28/PjY+MC1yHVFlD5//aFsEa8/PU6Tv+TCUyY/hZ9icw7WIbwtkQc/TsXKLt/qt+Xh1aez7suWRxp8OXCBqAUoW/NTPvF87XN5kfsi5ouZZ4pdQaWz5WP/ZkvWBsv+D6t67c2fvDLeuFEuVjbpq4tt3VCM2tS4Y9f8nw1dOMXILpvqfSkqhnj8tWHO7+Ro4rYArb3n8g3w8uNcvz37Y3j0V4tQDUHH+GZ0gt0xnPTwakDY1e0cdtM2GRubnRNNu0PlcNnbmerw9si3ZberPGPXQidcvsrVYSjP/NLFi1P9tvwY3qpf62t8+lV20/qxWOfiwmtf5zv3QbLixuc+J1PPL5vkOJyJNevt2+mXT5j5HoozdfzYNDkpo9q4VS4/8smOPNupaxzj4YYRz/62/H7gnZtTOezxc/H27OHv6U6Rrzb2DVlc2SKtq6XFo3cSsiG37z1X6llLuv5I4clPfvKm72PGU3Y71PNtSN2PGsx9d+7c2U702afHPRsnxvy1MTsyZCwq28irb8rLDydCr61xpdWjBMakRfBTnvKULTZZcS0otcujVFHHQPE8Y4iq9+yeRXhUfh0H5J7Ts1gXNz15ZdyrnKrTRWToVH6O7THMLfCB2MlvEivfY7FP1YfXPpl1srkfpo1y9fhsTzgrL698Ds2H6fDGEBz1/Ffc6mzyn7bK6ZS1q/GeXXpYq0zdFnY8efGzmXK21fEZt3r+xSavfBO+OV9+3BYn/2N49FeL0DrnGA/0mN2p+hWvOq4hfijSMyZh0rVDsjM4anicbhKbiTHtkk/uV5luJbhy0OsPJh7/7Mm7ZUQ+ddOGXfXbclhoD+eu9sX6tb76XYe12h6rH4t1zH/Vw6tP0818ixdnMyfC5JNPnLCnXpkNHVrxkm/K8cGnjU0T4oyxjt+9XIoRXn7JC5t/8hlrtcn2pvx+4J2bSzns8XPx9uzh7+lWebn4wmqx1+KP3DP37qxYULmS+cADD2wLS/vTc6LmOD9+7NfznlU0n3jGE45flHsGFFmw+sGHOckCFvlhA0w5kdv/Fqqw4fihmlccWZS6xWkh6kpKV1Ng8LEYdNve5pVK6m79I8/U1+ZNcPkhNzHg2pBXJvnBiCuv5k8+2i9Xz3T2DKorknwsFsW2OEVz7Hqlmvz5u7UuH31lI1dvQQ5LHyB94FlYWPpLDi1e9ZV6jwEos5uLWjJ0Kj/H9hjmFvhA7OQ3iZXvsdin6sOb+2rmRT4p3D0b+tVn+iuvsQ7pyeZaQH3GVj9G4pTL9E1WHtkVL/l1+BOP3XpOOdQPE5f9irGHQ57tqZwPOtX+mN1dtH08+lf7/y5JwfMz6Bd+4Reu5ZvyBLtjOOnDe5VXeZWL//t//+/Fq73aq11UpjPJuYXjEr8GdxKmYwcHr0w+iU86vIFjwvLtnAzh4rNno5zOrz/F8c2erNxNWv6T2Td/5PaDKwD0MKLs13rym/JjeFPfc1Mext+Lx35Pd658xr4XuDCMDfsfX/Mp3uTZkNkf7c9sVr19P2Xs1KdferaTpi97eSLl/OU9xwV9OHCVsy2OunL6/OsD8mz4N27rq/DECvO2HBa6LU7+N8HiU7s9f4bmDxjCvi2HeyoGW+REYcFnX7nS1z72bJvXNHmtDPKvLH5w5GXZP//zP789p+hB/d59CIf9G14u3Czo2NE99rGP3X5I6S0P/rqQDx17tm/0Rm+02Zvf3M0xPxkPns/zKAA/C2W/Uva4Ubfp9ad85a3NvnxttgM3AABAAElEQVR75tJVWLhiwKOHZ6x1BRcGfK/G895bc6ZfBXtPLbJQNV96nVJzpAW3K71iydFtfDJ5OH7w+sqvlG1u83dsyc+PlH7yJ39ya7O+ssjXLm/B8Lzra7zGa2zxtVMM/W1hKzfnPP1J5/avxxPoLYZP3efZCVL5tnxL+EE88za8fkE+dcqnxrqp3x5+eMZ2c9LMJ308nGz42L+TYE27qat8TM+ODezw8qkeVvV48j1uzJc3zI4B/q0dxKXbw6Rny5edrTrsQ358bAifdsUuHzqkfhO+Od3Cf417DO91X/d1Hxq/jteRdZ6k1U00ODJJtIhSZ2vCnT7kx4h9mP7Z4FnPetYWB5Z4EzPbNbcZw5UNdibWcg6DvPKKUf22vFz2cKa+HyV0ZaL2Tc5+D+tc+Yw9Y5yLk314k9O138jFmVTcKTtUnjEqx2G0H6dv+im7TRneHPOwyNBsV3aHctqMH7QvvzDopqy+uQkvzr3EOxdrtsf8gOYccS7env0GfPmxp1/l2bs658dE/tzCFT+UbTan8uv8pk6542Hu12Nxst2zo2+8FQOfsVffqVvLM8f81hjq59AaY/Wf+BM3P1dQXfn1HKKFcPJTOcxTbY/ZlR878zY+f2R7k1gTU18cy+GYPrxDuUzdXjn8m+r3/Mj39vV1PumO5cUuG3yds8OJNw47fqZ/NpOHTXaoHVM//bItn+zO5WGe67dnfwzPF+iryzl11jEe6DG7U/Xh4RqC+Npp1clqZPLwpy77OB27fKfcSSIMmO288Nymos+GfCX/IPLDP/zDLyEOp5iUK0b12/IC7+Gs+rW++tGvspvWj8U6F7fc7KvK7c/6Ok6vPPWVxa2Mq5dLuNVx8fB82KBspnwtT/x0+KEyvDDhT9/qOJtyUl8pfLy+yib82/L7gXduTuWwx8/F27MPf0+/ytnre1fW9P+8JZ9tNniyud/IV4LFZtqzUV/l6s1DKw7dJPW55Zfd5MVuXOHFn5iVw2WTXTwb9dpWLLrKK1916SeuNpRjepxN/smTeUG4x6/mApRt+mP8HNtTsA7hkUXHMFb9Tf1WnOrhzX4lq1/Trzx9OPnHyStP3/ymbK+cbVjV9+ynvLyOyegbZ8UhW3NXt7GdVJzGfnU2lfOdfh2f2eCNdeV8pn5iHpMX65jdqfpjePRXv8qRPOBjPNBjdqfq4elYiz7ci1h7MF7neo0H6p1y7F7wghdsV0c3xeWHKyAf/uEffvXXceTiIz8s8i2yFyaTpXNbiK+/eXNVs+ek/syf+TNXLw93Cx75hZ9bNZ5Fcis/uee0XF20eX5Lvm7FidmPCuYVmg3swY9T+2jPDsyeLnnx1I9R+/+Y3Sn622CVawO9eOQdzJXjbGbM6TvL7NWTqa+UTTzs1e6QfPUJv3jxQ75zMlljXec3bbOLF6c8pm3ldHzKP57N5NlN2W3KN8U75HdI9rLOTQ4WM/5haFJ9incyUUZ89ogu/Wo/5ZVhG0sdKxM3m2TVcRu/ZGySTUw52Ppx57SfuOTli0+7yuTlGU9X/Hh46eMzpnKYxZz1ZGGqIy8jj1bc5NfxcrvO5lTd3HflGz8VY7W7l/nBDm/21Vpex1J+M7d8wjtksyebOLMc5jl91jg4xXe1mXFmO2ZO4ZMZ59Ub89VX//RhFSv7+lg9Xfnlcw5f45/je8h2D4/8KvccS/wYP9f+FDwLyyY0C1APoHuxsB2Qv1d8eO0Du2Tehxd5SB1Z8D3jGc+4ePrTn75tbOGE6wX1ZDrAgpHOA/ftbPi9HNn/Ffu3EwtQ9H3f933bM1Be7UHmuSqLXFgWp2E87WlP2+ragRocymLPAZPsJvw6H7mIM6l+S36IH5LBuKl8xj+1LM/6acY+1f8Uu9pziu2pNu1/2DP/U/2z438v8wvrECc7lPd1Y+UQjtxvI7+pb32G1+c3xTrkl2zGuWlZfm3mPHRb/Nv6z7bA2sMzRuQubzb19fSf5euwpt055b3c9jDk2Ng2R695H8NLfwrPZi+Xc+TlDFMbED77vHjn8HNsxbzOPh07pF6uyi0w7mqv/1yxrrc+rr0JXv0bem1RvwleOPEw8MrpbsNn3uUc/k34TXzkf53fIV2yzbcOSHiMn2t/Cp6Fn8mtTnQQejeYRWf+b3j5YHwTtwHu/XLeK7c14nLHwqjsoXO32/3PK//5eiUvLLY4FAOOTdni1UbXL05d7Sw+7sF5/+7hf2MfuHyGKF2xxdcGeI973OO2fLShWOWnbsv/pjy8Q7x2zT4Vx5bsED8kg39TOd/bUrFvizP97wfmxL9NWW73Mr+wDvFke/mmn3yW+d2L+k0wjOV5HDnO4dwEa68dYe31z7ny9bi8Lf5t/Wf+sA7hkflRj75Wrs8P2YZHd50+u3P4TfDk3fw8857z4F4OxTuFZ7OHdRP5ijlzTncOP8dWvtfZp6td6sY2apykk/d1tGJdZ3uK7ly8+pVfua7lU+JeZ1NOeOXr7E/RybUx3bxSW/gX5xx+ju2pMSamcvVyvxodKY7xOueY3al6eHVcPj2v6WXDk9KTuSXuKmQ0B89P/dRPXVi0euiVT34Wjsr+ii5K5+XNMLw+5RCx89oVv9D0QyTUKz3Kn6w8XJktlgGibKNvU0c35df50hWncjmoH6JyP6Q7V3YvsOqXGTvce8Un9m3Lcpp93EEG95x8sz3Xb89+4rFZ6bq8V1v1Y3iHfK6TnYuX/To+9Pe9pmLdKy5nWLY1/5vEuImPPjrkl+xQHzaWs1lzP+ST7b3mh2Ltyfbybj/s+Z0rf3m28ZRcy+8U21NsDuE1JlqMhpNcPb/JZ3nP5iZyPqdQY0Ee5bqWT8E51ab2nmq/ZyfX1hbGeeU9+1Pk9yq3Yq14a53dQ+KZUIk0EPyS1ALue77ne7ZnLL1OBHlXXa8D8Xdetm6Ts3f1E3k/nMWh14S4cuo5Tdhw3TJ3S907+BA/f9Xp1SJ0P/ADP7DZW2gi76bzCg+LT68D+aZv+qatbGfrTBt8L3Vmi8S/c+fOxad/+qdv38C/+Iu/+Oq/l9k3yNlWvymHgVZ/shknG+8WnLT6vbzrM7e1XG6r/Cb1sO4VX3OAi24zMZTbin2bepjxFWvNm77jcvL8wnlZ8zV+Y/3Zz3721UR8r3Iq1r3ia173Cvde4lyXYzrxKu/xe5nTKfHWPGb8dOHMxekc29mdy2es25aLDce5St35aVI2Ly9eLsVXr4yjjsut8jL6mDmcsl/PSetc7D17Mfd0p8oP5Z3vbfDDDete8/DjXj32kHhPqIZ6v5RBM9/t5v+NyVzV9KC/2yoWk4985CO3uttv/mKOr3fi+XWjd8XBsADt3XL+us274bznzvu5/OuId+mhxzzmMVfvt4MD37urxLM47T115SDX3i3n1TC/9tf+2u2XsN5Vx0Zu/l5PPsgjA35UJa53fNXOymzIbsI3pwP+ySe3WPbuPm1DDS7lm8a/135y0i/1jQnYi6XV+2LQWLkNb3K8V/mXNzzl5zznOdvJwzgo1rn5ltu5fnv2h/ZztnTKa97lsHL2aJW/rOrlXbx++HfdO3CzPZdrZ/HuBTce4OC+uDauxUHnxriJz16MLYHLj7WPkpe397L6UWdje7Wvfi9zKzbM8I/x2U65zrzNKedgHYsFa8Zjf9N6sfibs1Hz9la5/Mjm5cXXPOQ6x4Njcp5vst/rE/o93TnymQPMY/0TNtvON3yc+1c6hnWqHu6ptnt2M2/jWn9359da49x+KE5trn6vefi4NriQ+CqXQbYVkAlR4hTX8UCO2Z2qD6+k8L6lTt2hcjEO6absFLtpo/17l7an3XUxsmswTLx0t+XFX3GST9436flC70N+q+ym9WKf658fLmcHmMcuZt7T5rblc/Pbs59jpvdWer64/X9unsU512/PPryVH8t7ta8uTuXb8nI+FSf7eAui2d+nYh2zK8b94Mb3/RrXt8l37ZOwkvfe5up7PL97zffirfLiJp95d45Jd1terHvFHZdyOjRvi3FuvjfxORZjYiqjfHocrX/Huqt92X2WxzE+Mzp0vsmfXeXb8nuBNfOe55t59+2med6L/Ipdnmu9GC4iPiSeCXXA2frhUQnWgFmfjelAJbO1A7IniyqzmTT9Jt5qU474pInbbfr06fIJn55uysnOrfNBq99d6Ut/lk+aQ36r7Kb1vRjX4dGln7kmg5n8tvwm+fEpl8kr05eXcmMt2amcb5in+hyzC2/yyuLlr1zeytms/DrdanusDgsds0t/1/rwZzb3ihel/rkNL6cw4zDpbooN56a+qx+s8owbD+VIj8oXz27ldy3vbW7FPoVfl3e5rTnftB7e2p83qZdDmPGw1LM5ld/E5xj2isl++sw6W1QbVn6dbrU9Voc187iuTncdhcOm8m35vcDay1nfPBTyK4fyPFQnk++rKqwGOb6s+JbIZTKe+SyxmRN9J0Zyiz2k3EZPPu3CIKucb20jJ3Orvx044xWnHPOLh6suDpzyCLs6TtYWxv3mckcz1+ti7tklj98r3HKBp49QMZSLM+XpJ1ee+z/75HHyPQpvT39IXt5znLEr7zCv43Tpi5EMr13FyHbl0w5O+jAnP5b3tF3L4cZXffXr9KturYdxiNe3dPnhU37Ib7Xfs5l2s1ys+rk63nbInm4vt3T4ni9d+36NPX2mjs/EnPVpN/23BJaP5q0p1pbmzClfy8WM01fGq09eO1f9Znz5kbz6Hr9t3odwr4tNt/br2pZVH97k8j40VrI5lNeUHbI7JMsnXTx5fE+eHi/nmTfZSmGtnN0pfXPMLtw17suifmpsdvop+9ln8kx+bs7n+h2yn7JZ3stl2szynn3y2s/nsnz3KmLKlxeXR4NWedKDiV6Jamz2FKvPrE+7K5BrCmu8iT9xgyBLLpaDqfrMtXJ+Lyt+btxyL7/alzwebvXs9/gpdmHuYVwn1/drDPW5rWNBvOmzV74uLh2cFfuYz9TPuOTlXDlscuW1n8hnW1a8GWuWb5p3+PGJWc6Tp5/2s0xfG7O9js+2Xmd3SFfc+CEbsuv0h3SHZMewT/VhN7djuIfy56/fjvVdOcVnrCk7ZX9lHw9rrScv7+v02Wazx7MLs/qa9yH/ZPnEV9/kOJ/VT51P8vj0W8v2zzEK5xBPNjEOydKniyePX9fmbMo5DqtyNsf4XvzV7xS7bOIrxin1c31Pta8/2c8+yj/9KTnu2YR1HU83Maasshwrx/lUXvnEu67ccXG12luB9uqB7unPlYc3G9qOOYY1fbK9DV4YcViVy+lQzEOy/OL5T8x0N+W1dc9/1a/11S89nk5Z7ofyp4uyj0/5Id/sVj79KsdX27V+KE6ybMPCOwiymTr2yfH89/j0rbxnu8rZJ6s8v8iEN/m0T54snhxPtvJpU3m1WevZXcfrOzaHyvXp1E28NeZan7aHyqt99UO2e7JTfA7ZJFv5oThr+1ef6nxn+RBWshVz9YXTls/k+ePXxcwum5VPzFnOjmzGmPJZnr7Kjlt+xT/Er/PPPtzqK08fh5nNlFXe43zaYJTbHg9n1SfHy2OPT1vlsKY830O6Q3aHcPZ8Ya+66iufsWY5uyk7lMPUrz5rG9Pv8Ymf75Rd53ddHvmxgWtrsalMP3lY+e3x7OLZwULHeH4rDwe3rThhp1vPV/mzq7zyMK8WoQmO8ZI9ZneqPrwaM5M+hjF9sr0NXhhxWJVnByaLH8ojXTz/iZnupry27vmv+rW++qXH08m73JN122TKk2WTbmJO3OxWnn3y6qf6Fjd/vDKMmSfbORG0KC1mtp30rsshn8mLe4xP3Mr5yFHZVlk+5Z09nj7f8p826eJ0K6Xb43v24tuiyjOv+nLq2ItlS74XO3kx9nh2K5/26cQsbpxd5eymb+VDumQrz2fyYiRbfarTV47ne4izyW6WGzfJsglDnMp4evKVsstm5ezJJk4+dMnzI0Nr/a70xZ/5hXWIX4eRfYjVJz+Wd8fWnh0sW3nExay8x8tr1SfHZ65rPV326vINb7VXn7r84lM3y9f5zbavOGHE6decw542h+zyY6dsm22d+jCv41OX75SVT5wumvblkKz82ObLJj2ePNtVNn2zLXY8+cSlO1RPlm/xij/zC3e15RNOfmymfeWV53d1xrgSXIKivfqmvEa/57cnD+9QA/Z8kk+fZLfBCyMOq/LswGTxQ3mki+c/MdPdlNfWPf9Vv9ZXv/TlSq9c+zqBxZP7QVmyMA1gxCadevo9zgalv1u7+5lsj7MSD2UjtvzIp47+537u564enVCn95xbdjfJewv+4Ec5HOP5ZKfun17KI07OZs2bjI0tDLx/CsvvECdbaWLQrfVD9mz0nS2a+dgHNrnj2YddX9fW5Hu8GIf4nk/yfNRta97p5Yqm35pntpNnv/JpU7n2qq/2az2fcnCMrSeKfOpvPsortW/CmnlUjq++1dMXc+XsyLITS74dY3TlycZGlp3y3NLbL/07lhjhr5zuEGWXrvrk4lYvn2N5w8sHt5U/XThkaI9vygP65PiMs9aLu/JyIW/czHL64pSfvKNke/Xkxa6O57tyOvaHaNoqyztsvDJd9ca7ejRxyPbqU3eKfzblVl+pt7/LQe4Tnw3/fPGIPN3qM+vZx8Mor+t4+Lhcqyv710jHWPN57SpOOfCx9Y9qxY9nd4jz2+Tb5+VHgmP8XPtT8SSdbQ2ovsenTzblN3Wn4oURh1U5jIk7dZX3eP4Tc8/2VHlt3bNf9Wt99aOXZwOyiao2H7JnY6A2OWTD59BkkH6PrzlWx/d8kq95Vp8HfzJ4ytqaHleXN0x6VNuUi7VyupVWm716B7h+LGYLID7pleln3snEzpfMVrvo1A/xTbh87Nkmz7xcqpu09F1y9jb5m9S0j77+JLdlFw5erD0+bdfynk/y8stv5j37jBxN+/Rzn8ANm33lldOtBDta7dd6eZAr60vbHDd0s7/ZTZx8ybWl9qhHlePJV55+4rOpnj07eRrTTlbqneDYkpPNPm1cyI9NG0y62ebyWHnxV55d8uqH+Dl5hxeXM0y5aq967WKjfohvwgP65PihXKe+2MXIJ3l9TV65vg473zjbWT5UJ0Mw9myTx+96vPQnPRxbY3XmWp7lXVx1ulP6uhziMCqHP2Xp4nRIvTwrx8ORzyzzU59Ycjfmsku3x2FMyi7/PZ4PezazD8n8OQ+ZnGc/KiO6iH15Jy8PNpVXfpVbQFeCy4TQXv1c+z2c5OFJMFnJVt/j0yeb2+CFEYdVuZwOxTwkyy+e/8RMd1NeW/f8V/1aX/3oDSK5dsD469R3fMd3vHpfnX+j+tRP/dQL7ybzfsZnPvOZ2z9GffZnf/aFPwUgf7/3e7/tn6M+5mM+5uJt3uZtNpl/vEJrzLW+GQ276vhqu9avy9u/Wn3Kp3zKlrO8P/dzP3fL0Z8JlLe/gkVPfOITt5z9ycAnfuInXvUF3RqzOt1K6Y7xTqgmH/39dm/3dlcx/TOYPi1Hdf/KNfNWF+O7v/u7X8L2lDG35qx+LN984BsvX/u1X3vxHu/xHhf+sYjM9gmf8AlbO+SuD7Xth37oh7Y/biCz6W8LkMbI+7//+2//jHZODuUy+bH8r8vbOP3AD/zArb/lrW+NZ2PBPvD+Q8eAsaQNHQP+oS3ai59+crlEe37JD+XNl15/149rf8tdvl/xFV9xoY/V5e2Y7aQy86gcL7+Vpy+/lZebMWL7qI/6qIvHPvaxW77q7OX69m//9lvfftzHfdy2YJNr410ZeYej9skd8S3+Ht8MD3xkn6r65PDPydux17gxXh64/Ito2/u+7/u+RN5irv201strT04/c511+1Pe6L3e6722MQrH+PykT/qkqzH7yZ/8yRc/8RM/cfFZn/VZ21gwluXvb6v9hfUHfdAHbftAW/orazHLaQtw+bHWk19nm0+cj7z5fNEXfdHF4x//+G1/0//4j//4lrfxYJO3udxfe8vXOMbV+TpXkTkeJhXrGOeTTX08Zeni8jZ/o9nf8pZrc51xbC5JZv5WR+bB7OQeHl1x9jibSdmV+x5f8xaXzDiRo+NUTnLsvMJG3s5ByHHLpv427mCg8pjlZPFyu/r6m+AY3yJcfhyzO1UfnsTyWZNMvvLpk+42eGHEYVUup0MxD8nyi+c/MdPdlNfWPf9Vv9ZXP/ryTGcSfcpTnrLJ6b7sy75s65Nv/MZv3E4g3/zN37yd3Ph+6Id+6PbPDU94whMufuzHfuzi67/+6y+e//znX3zhF37h9jesbMLd42xQ+ru1u5/J9vj0K28HhbxNUPjXfd3XbXl//ud//jZ5fcmXfMnFt37rt174tx0n6K5++QeK93zP99wWWA6uvZjJZ56V0x3j8spG3v7RS97iyknu/jL2rd/6rbcFkUm3vP0rkxMGW/KP//iP3/aB/Gv77JfixMt18nR7PFt5i/Gu7/quV3+hS4YsTL/t275ty/0rv/IrN9n7vM/7bItsL5WXtxMc+3d4h3fYcr5z5842TmZ/HMthA14+9nySX5e3v/XV/1/zNV9zIe8f/dEf3f6VzXh/+tOfvu2neQyYsB0D9gfc63Jf0tyq7KPy2+OH8s7WP4sd6u9v+IZv2E7i/rL37/29v7f1uWPgvd/7vbe25F8OeDnFp26W04excrZkHVPPetazrsZ5OPJ+wQtesC2IjRlXSr/8y798k5k3vvqrv3o7CTrx+fKrjcWFUXmPF2fybJNVn/zcvC3oGjdv+ZZvuf09tLHkZdz6uxM03LWf1np57cnpZ66zbgHjC5/jUv9F/g2IzHiw8P+Wb/mWi6/6qq/acmnelr+/rn7Ri160zTWOAflrh3i2cgp3rSe/zjafOB95y88c8aQnPSmY7dwCa45jx5q/9Zavvn3zN3/zixe+8IVbbs94xjMuPvZjP3b7p72JX/kYFzgbcaNkK5e38a3PZ3/7wld/W/w7/szl6HnPe942/1U3D5q3zYs2WNEab61nF09f7nt8zTu/xonj7G3f9m23nJ1XPu/zPm/Lzbwtb7jubn3Xd33XNnc7dsngovBmOVn8KrfN4/LjSvBgx+/Vz7Xfw0kensSSvVSSOzlNn3xvgxdGHFblcjoU85Asv3j+EzPdTXlt3fNf9Wt99Vv16tko1wYnCgeevzi1kZtk/TWoK0WueLmcn72/QA3nGBcHZXe3dvcz2TE+/eUlDz5ylruc+7tEf8FK50oechA99alP3cq+VdeGU2JuTsvHMb/03MpTWd7p/AWsCe3d3u3dqDYqb7Lp54rAZ3zGZ2y+5MfyD2/y4u7xbFds8mS4NvT3tfkYC3SzLT/yIz9yNW7S78VOHt4ez27l7Msx3ZSlM04QG1cCnFS6Uk5ufM9jgB1fW7gr57dS8ZKvPtXps52y/PBD/S1P4/1N3/RNt02ZrPZN/8rFiSdfefryWXn28lopX3Ll13md19lMpm1jwRcBc4ovAhajq28Yh/gGunxM/0M+6WcuQaTLT46T6tvs5Guxlz2+9tNa34wP2CXHw588nPRzMUM257/mbf4WHq6I6mfHKxksY6RxUpwZA+ZaJ0Nh3K3d/cx25auNuW7ayEHujeFpX47sXb17i7d4i23LZuKQHatPm9p8DIveWKm/i1F/z7zly27Of/zdgXG1X8w28rD2OJtJ2ZX7IZ4Nv5l3OPJG7ggiGI5Ptmve7n4ZO9oIN+w4/8orL7erpX6CYxwoOmZ3qv4u2t1E8ynZ6nuc3aq7Dd4hrGTldCjmIVl+8fzvR98VY+X1RfK1njy+6qvj08YlehOXS/dN1I95zGO2b0b+ZtM3JP+9q82+HbpKkP8xXszsqs8c0u3xQz5yWfMm863a7dWf+Zmf2dy0p296P/3TP33Vjr1YyWfMWU5/jE8fZXk0ZuSor//H//gfm9maN2wTt783dVK0DyxEJ+3FnzaV92yTZ4cfkqVv36vXFlcR3U6rv+mc+OSM3N5B4e7xzeiaj2N+6Q9BWHS6coFMriZlV859yULawsYxoC2+uIRHV3nlm/PyUb8kXn2qr/rqkx/q745TOVp42Byftj0qp/gxu3JceX7GsvG5R/J2DE6abXECdLXdQtSX3Kj89nh2K88+efWVH8vbHYry1nZjwhVGfQvLWLbgMHbQ2j979fJa9cnxNVf17OmV63Nlm/nPGDaXdMXKvO1PYp7znOdseauzrS10xQoXj9geojUfNtmuPP/k05fMQn6O4+w7ThvLrkDbPOLTf7+HeSqfec52T/mKlW72N9k839Tf2kL+sz/7s0w2Mm8b4/ZBC1GKtR/IDsUmj9KX+yGeDR/lmbe6/MxrnW/Y+RLuPF7ecF2xlrO5WzncmXcxDvFyu5oZcjzGgaFjdqfq76Ld7Yx81sYkXzm7VXYbvENYycrpUMxDsvzi+d+PvivGyusL8kmrXfVpU3n1NbE6+E3A2vSd3/md24HP/s3e7M02NwPY5OWW33Of+9yLb//2b99OfpTF2uMbwIN2lSff80uerTrqAPMsmVyd3Oic0NyG+uIv/uJtQnYLkDwcJxcTgv8+Rsn3+GZ04GPP/pB8LjzlrX9NUPrQJFaOM+8v/dIvvcrN/5DLW/+bGOb/kh+KN8fkTH3PNvm03Su37508kPz/+B//49sJebZFDm/wBm+wjRe5297wDd/wqk3FXPle3OSrffX08VXuSorx6plhJD8Le1cw9KuT+Fu91VttC1NjCTkeHve4x21l9mGufDNYPtZ9sPpUX9y2GFO219+eMYahTW6tOkF7tAO14J84yuUUX/XV05fjyrMjXxd02Tp5fcEXfMHVAp+PtjguGzv62/aoRz3q4qM/+qODfak8yyd+ZbgUVn31lR/L2+KyOe/1X//1t3yMG19e3/md33mL2thxh8IC+sM+7MN2x0d9UrrqKJ4cX3NVX+2yYd+XqcZs44HO7Wy+HX8WovRuwWqLLwARu4m71rM7lE+2K+dDFk18zxs6vpq3y1uO5vO1vy1IPUZg7itO+OW0x4tfLjOPPYx88Gk/z5N08vbIly8lzp2+rBSnedsi7zM/8zOv5u29PKcc9qTaXC6HeHHzy0a9cSLHzi3ON45R83ayfByrHpmZd4noygNm5ZWHcbXnExzjQNExu1P1d9FenKh6nXQMo0bxyVYZTd2peGHE4VQOY+JOXeU9nv/E3LM9VQ4L7dnf1b5Yv9ZXv/STZyN/mwPJQWPSdfvGN08H3Pd+7/duJ2o6V448E/ohH/Ih261ttxoe8YhHbLDh7fFip68eT77HV7vq8ragtOBx+/fOnTvbCcEiz2RmsvU8EVyLDSeMd3/3d982k/NevOTFWXn6Y5zfHCPhyFmOJmILe2V9XN7JwveN2rM8btdPSr/yaVN5tVnr2U2+5i5HCwzPS3rmk94JeG0LucmXPfIsK9kac63P2IfKq331Q7ZTZpw87WlPu3jN13zNizuXY+QHf/AHtytEnovy7G1XXRpLHQP9YAZWsVY+41Re+231qZ795FO319+NdwtQJ3QLO1/A3uVd3mVbQNWeiVtO8amb5fTlsfJs2aVLVt2Y8PiLOcIzfhar2vLkJz95+7GJsRM94fJZ80nF3+PTdpazT1b9EC/PbKuvefviZHwYN+iRj3zk9gyd/jV2nKxdNRIjjD2+xsouOb6X68RXzu6N3/iNr+Zt85/xYN72bKUvWPocV5/HgFjN3cprLmudDZp53JW82DefePbZlTfuy4e+bhw73xjH5Gt/+4JlHLmzYu42r0TFOsbZZ1PfXYcx21ne7D07KW/nSf0tb31sc4HB+cZcGPmycudyvjF+xC92uezx/OPZ5X+Ihz9tszNO5O180zlRzs6NUyaeBSmddrQ4XfNQL87Ki/mqOV0JLnc82qufa7+Hkzy8Oka9ZLPZ49Mnm9vghRGHVbmcDsU8JMsvnv/ETHdTXlv3/Ff9Wl/96Nc82diSKzug/FLV808ONpMWvUnMicQEwc6B5aFrOpMIIr+Ob8phV/06nzCzVU8mdmXf+MvbLzBNBn4I1K0bBx9bi9AOMP7qYezxYk++Z7vKxSjPdBNHH3qGlU05ljd7i328jd26CA135TNO5dVmrbMj6ypz+eePWwzLkc6Y8MVEubzZyNuVAThsjCPEbo251jfDaz5W+1m/Lm9j2A/AjBVjRC7GsfErP3I0jwFXQY35aMYiq55+cviTsj3ED+VdX+31d+O9HFt0yNcCyVas8iinePKVp89/5ezLmc4CEymXtwVDP6xrwaktzRvJ+M14ytX3OJ9DlH266pMfy9vxVd53LhcPxrG50PgwVixKkbYo+8FNtPbTWt+zS47PXGd92sCtHeRzzNr/HW/m8TlvOwZqi0WUDcEr103woKzy5PLbs00en35k5VwbLZi9McQCTd42Ocpfm/SvzRdyX2If/ehHb5AuHkTFOsbZZ1P8KUsXDz+bmbvc/KJf/8rVpi3kqLk8X1y7ULGLs8c34/GRXf57fLhs7S1vcvn1m4lyNG8byyiZsrnRPL5SeZBXXnm5Xd2OT3CMF+yY3an68CSYT+Xqezw7GNncBi+M+MQtVvyQbsrCiB/yS3dTXlv3/Ff9Wl/96OUZOWn41ZtfsDo43A6jd5XQFaIP/uAP3q4asTNBuJXgNrAJ2i8C/XLYpXrfSk3Op/RBscutOp5sj2db3v3a1qQktgeoPe/i9oLbZXJk4zaDyYvf93//928nQFjdrvRLwb2YyYs9ebpjXG71jb5268brarz+yqtGvGVAjn45CWvNW0y/eNXXToYmBrektAcu2sthUy4fe7bJwwvf1c4HLl9HY0Hzeq/3etv+lqN83Mrz6hK2ZLXFGwnkql189bVbm75Zh38d34yu+SjXQ/y6vL2exjhBbmX79u85rn4AdudywdGXK7egjCU5t//i/NfYZCtNe7rVZ9YP5a3fLBj2+tt4Kkc/Ivicz/mcbV/8/+y9B6ytW1W+v/irEQEJIgLSpfcivR8uIL03aQrSJWCIGkRA/kgTERM0KFJEQgDpHeHSLiAdBC699xJCCE2CMYTffubazz7vGXfO9X1rrX32PcecmXxrzDHGO94x5lzzK+tbjf2Uu3OcUMxhbdak1F6lfuOrBM/zi50XIf5sDneR+aY8jW+88zGTm9/85m2/A+9a5rjB2uFjMdTLBatvJ5Pb/CPZEnQexOtSTzlVN/umdXOCZp/leAcHc8rxjjtxrG3uOtN4jpwjdPtV4qON7PiyVnDqxoChDsbBvHNRz1y7ZvGxnjxuc5eW4za/AMFPMvnZ2wc/+MHtoyZgXX9w2zKfNqT1pE1slWC0ccxgXjnfXOQiF2kXpNTCPug6Bptf5GH/Y59knfCLFsTT8l0V+ackcWJyDNpGkjjnm/njoo7jCHUzp1yoYcfGc0BtYFgT1Ns7bpNrlE87ebNpt/aRFEesdbtOWNsc9zzvsT+efPLJ7fmnbhprgQt/z5G8UJHTnA2486C9SnC0M/xip9FhJwIkwUiCpY3869qXbMtHY7WpjyS46jM2fdoqdkrvcaTN+J5Nn9Ia5mCNmZJyjnDp94sqvROm8eKRrAVfHfUOPokFB6a2nt1cIykHfmrm5MPt/lV1y0XsqG7XdmLp59j0WTeSgzhSbjFV4tfmjpkHQX0jmfWRk5M2kpb5m2HnQTySAxi8vB0F1j52WmJrfvzarNuLXe1VEpMNfhv50c2JHVtdH9iol3HmcyBOnppbHV771u0BUvtIEkvr1b30LB9rfPqyL06bepX6kfhY36xrW8VXXVyt2zkDT+vNd8aKw2YO/VMSPB89cK6TQy6lXOg+x64LamR943NLHbxrwPEmL2vbcZtnlSS21r0Kj4+YdeqWL+usNsbiuMRVmTGsEfxcKEw1cNTrPuX+RZxz6PzLZW7tqec6qjXXeHUlF4S1brmrNAa7z6n58GGn6VOvNTfQ7oO1V0zNnbrnG9567s13YuVdNd9irMu6ibHPmueC27GBNU/2tVUJJo9/+rGPGpipunP+2ddYS8TV5jzLiW5j/DRrqhIfd7X3WA2YkgTSpnBz/Uu2w4WiO9gpDgdFjFj6tPTN5ZNDCY99OZI3ffZH0vjkHGHn2uGijfBL72F/1Wucfmp1nO4wWb844t20pfQiSi58NWfVjdeuPid2Vd3W784uvzHuPPrJ50Vd2oyrMuvMfsX1dGrI/O7YSHzE+DzAbc1IT8bchZQDPHZkLx8c2unXpm8kxZPfRj7rxpY1enEhFsl4wOszF3HY1UcyuWp/FKN9Vd3JJT6ff/zGK8GJxW+/Sny1yYG94que2Jxv5gufm3Nac6GDpSU3/eS2r2wBnQf9yZXcnZB2gYSdGq0lY+R0DeTYyIPO2HOMxlTZy49NnH71KvUjubCjjerGZ7zrBd3NOXa/BD81b9VPjM1cKc1Bfvpe3NDXl3NuLJzOt7WrZ/3g4MlWdX3EVZ96lcZgJy+bdeDDjg4n82ezxp6P54k48TXnSDcfMucn7RkLhvzYmG+ktdd4cXBRO8115RiwyZ99bVWCyabf3D0Jplc3dn1yguPcwjxSo3Nu/Y4JHDbn3TrgsV/lXm2ZjP6eY4e0pzfjDNwUj375cvAWK2YkM0bMNnxyKOGyb029nD2bcUrjk1PfptKxjuKrv+o1Tn+vVm3GgKXPps/4njRuShorTl2pvSezDv1pg0M7Mn25M9EfYTM+MS2gPIyw1Z51pC/t7ODWhR0cUoxxYpDask5tylJyU/WNpDGZm3zWpV8JT2KxY5NfnJjkEVOlMT1ZsVU3D/Zat1h4rSNt2lPSByNuJMHVZi3YR3HaxaJn3drlxl9t+pD45ESveGOVYHpNv1xVGpP5at3EYMsGXu70yY+NvpiRTM7si9em3pOZE795kVkbXPqN0SYvurXTF1clPtrIjk/OlOJ7tuqTo2J7OLA2/SNdO7wjrHYlMfaJWxVrvcSII5Z+Ph/YtCe/eUYysZkr7TVWnFL/nBgw9YXNqji5lWCzabeWnhxh4MHHlnHi8WNPP7a8+PSiP2PsV2mOvVsZGqYkSWlTuLn+Jdty8MZYrPpIgqu+bfh6XNqsqZezZzNOafzRmDtzVOlcaK+6dmX1q6es2PTlGLFXHZvxIwmGpn+pHX7U3pPaDqP7PetSZpw2Iunr065eZS9TxYx0YvMAKq5yUoObGGXWWuPQxVW5DtZYY9CrTR+y59Om7NWdNnFVZp7ar9ierm0Uiz3rSBz2XpNzJHsxyTWKS7v9HlfPl/zEgEmbfSUY+0psvabfvFUSAyYvvMQYK6916U+7faVYdHlG0piUYrWpp6Q/VTcYavGuEHzWr88c6RMzksZUv3Zk1qpe8dZf7cmzbl8u46qufZ3xE7OKR85VOHweQ5Or2vSNZOZwjrHRRjHazbVEL58jfUjnRCkOqS1x2DO+p2PLJt7ae1KM0rrVlRmLjXWuT0lu+8q0ZV+/co8/QfRPr2Zh5M/+qnpW4dKX/VV8q3xyKBPbs6Wf/hxMjTlauk/+HP5VdVcfOtzV7iKfypd1ZX8qDn/FZw3pw64v+5mj4vEZk7j96Gcu+jWPNubQfsVQh74qN60RnqkGpodLW9aadrjTl7lG9sRs0x/VPZdz2/oyPvtT+ev89fCVL/XsG6tNid2+smJHuvaUcFA3Uj51cPrppx2d5piNXVfCYQx92kjXjmSzHu3qlUN8I999MCZt+9mXv0pyUGedt6nc8kzh5vq35SPejZyOZ1V+Mcq5cSPOuWMgX+aUbxQPVh8yL+6mYvVPyeQHW3Vs1qzEls0YbJ5/9OtzLIyB/txzPTxwsB3+FKnsJ+T/2RlwsbmARgMVhz/7Fd/zwV3tVa886llX9vWvkjVv5kyutMNXdWyr8PhHLeNGmGo3hjroW4/2nq1yoCeu519lM5eYqmufK0fxI/tc3orbb77Kf7R0n+tN+F0fBx1Lvk3rtmblqHaezxEm7dkfcaUd/CZrxTzK5Kz9OZgaM0fftPacyzm1zcHMqXe/MLWeTZ6//aplDk/O9xS+YnNsPt91/FOc++FfldO6zCPWsTgG7eJWSbH/XyVZFXTCd3zPgAvleBjF8VQr81l30uNhjrPunG8PDsfyGI7X+T6W53RUm+eIkf9YtR/PdTunuV9qO5bl8XDs6M3f8Vp3byzHi8213S5Cj9ed9XiZ7BN1rj8D+Tmr9aMPPoJ9qNZ8PBzYePvEt1KcteOh7uN1vpnbvYPvTp+m7vwfa5Kas27qq/qxVrM11jqrfizW7XHEdUHNNPVjsWZqcm6pk/7xUje1H+tzS43/15rr5JddKPyuF82FNJJOxMi/rv1o8K1bwwh/NGqDc5RvXfuoPu2Zi/+8dkcb5Un8CDPXbg1z8RVHPDUr+cFiF+1+yEa881Dzbqonn31+d462Lqfx68aN8Kv48Dmf4qbqFjfKt64dvnVjEm891r0tn/OBtGW+9K9rlw+Z+6T2TfjWjRnhqWGVzxqRnC+cn6mYkX9dO3k3iSHOlnVjW5dvhD9aXB4DnWvHMapjZN80bhVf9ZkD2au74tWNU99Wrssn3pqR/s5pzvu2dRlvPvVNpTxKr+HQt+XcNL7GWZt2dSX/InWGn//85+3H6vlnhJxwQSfk/40Z4D+jaTzpowVxLIzU2pTHQk1zarDeKufEnp4Y7rr4EyHs/9Z/etY0J7d1Vkmstjk8pwfG+pTWUHXtx4q0viqPlfpGddR61Uf409s+Vd+U//Su/3jMf7zOaa276sfyc0Gt/Itb+8ckTj6nnnrq3h2RPBk5KCWDsr9fcj85nfRjtbb9qkue3tylzT53iYjJf4KQQ3kszZ1r8FiszZqqtGbmMS/u0PXNkeAr97b6iBN7fvMx615V64hvVcxoDJty9eomx6Z8vdr3k4va/PgDuWzOyya5NokxX5W1nvSP6iamN2/GHlR9oxpGdTv/1rmt3M9xUkuubbhp1rjUDuvap2RyTGGn/D0u60o5xaO/x6dvXbkO16pa07cO51S9+8HVqw3btut6P2qr409O+jQwbPxPfbsTiuKt6CXk+H50Eo7vUWxePePnIEbjooKF6a36/JvAXoZjZe6og+ZO1av1WLNRc8499R0r89mbK2tjjdBcM/T10T9WGzWyWbc1K4/VulnTznmu72Oh7l4N2GjMs3WjZ+3oB9F69Y3yrqp7HZ4R/9GyZ22OIec6/Uerhk14s65e3ZtwHkTMqO60H0Qd6+awPiQb+yeSlutlXd6DwFMftba/7aSzTsHrYOcM5mjw7RfnfvE4DwfFRx6e13xu6U814varxk14MmY/a+mNO3P1/JvYOAh4IIA/538dvv2ubcRnrbwdb39OnSO+ObE9zCZ8zG2db3mUvVzr2o4Gl+sCbvdL+pvk2iRmNAejGphnfFn3nLxzMKNaevZRfT0stlV16xvFrmvfz7FSm80xH0vrhNp64+3V7ThWyR7XKvyUb12+xNNXr3Iq71y/vHPxI5w8SOY+989RzJRdzincXH/lcx1bKzztyiQdzbh7wdKzY5PA/xMVl7H0KaD6sBFncfJlrDE9iY2Tpn8PRRwteZaWpU3fprJXw7HAlTXQn2o532B749Im1yodX31+k9c7sJUjMfqUeZfFGqoUO5LJb6zY1LFRv3Xiczzi3bGNm5LGyYOkaZ+SYns4OfGxWbc6EkzaM0bulInFbr3Zh5eWMvvNGf7UzY+NGOMSo0/bXOlYwWc/4823rkyOOkcjLmNGfuz6xCKdc/LYxM2RianznXpyG5M2+mm3j7Q/Fy9XxsoxR1aMeetzYZ6RlMd4dWRuo3jsrq06l3KBoS51ebHT1DM+sWJS5lrATiOelr4RD7iaL+vAbyz9bBWXPvti1JWVs+rgtKW0L49SuxK740pbD4/fOdO/qTRXT1qPsmLIqc38qRPnuta/qazjNc8qad3kzHVsDdaHXnnSZx/ZwzbjzoP+IzA6kQJG0lc6+Cn4Zz/72d5OYYHycZEIpp7IwRHnRSRco3xpJ46LT9qZznSmxoHfvPQzF3ZsbsTRX0eug53LvV+cjhs++1Xio2mnP1Vn4n2+jVd3TnPnAaPdHD7/cGbTP5LmqxKOUQx28dapnj448GtjTYlDYnc74xnPuNdPDBxV79nEwEdbJZmrxDh3SF90EQ8n9WtzLEj2KexygTVncmuTD5+1VpnY5KBPE7/UDuvEUUfGZz7w1GzTB5+cU9IYOMxD3zhtI2l+/G7GyuO86kdPPnRijEsfHFXHRhOvBJd9MDVWvdZNnHWAkYv1YExyG+86EZN1aZNrypf4Wrv1YbdlvemHRx9YfNaO3TFpm8orB7JiezYxxjFH5M25sm8NeQwBC4d1o+P3WILdHFPSGlLKvap2cli3NZrL2qlLXjHo1i+ugcqDXMaNZNYqxtgqSSHGPhg3SwCDzfoTm7Z6HBS3iTR3rRmd9Uhe6nLuwONzPPpzTvGr42d9iHeMc2pdhenVa21KanCukDZr8JyiHUm9xIFxzOjaweT40XNsqbc+D7YRsNrBmwQffXUkzeL0Y9OXffyVv+riHWgvH5jkMlfaKu+UDidtCjfXv2TbHz7HB6f9Ks2nXR05qhmfeDBs6sz/qIFJTnTjMiYx2Hu6cVWO8NrFw8mmjj/7+rHTrIG+ONeaWO0jmbEVI/9IZix9GhzgkdaCnf2Kpq9y4iPGGtBtFSsHfvFV9mLkE1vjjUn/Khvx1kKMcVPSGOORNOPMWeUSdeTzLsZYeWoOdG3ZJw6dNiXlTinnqnh8NPmX2vIxbayXPKGAcFziMl/yrMKt8iUvfOr0c24qh35kNnC56TMeaY6RTCzxFSdntaMbKwaJLfdFMeKRcqWPGHRtcIkbSTA0Y5Tgsw8mOfQp8XPMyDhsNnCJlSttYpUVI7bKzKnP2CrxiyGPujhzK7HrA5s6mN7zJP+6MnPSNy/SudWW/owjp8du7NSXDZ91YXc82kYS7MhnTSNpLH44xFU7Os089B1LxiRGTmw0Y6vEd8QHBSug6gTUBiYLUXdSc7LFzS3Q/OS0byy8yWdfHDHVpm+uhIM2Fz+FW7LtP5/jrNJ82tWRo1rTV+OMwc6mnrz09eVzL8aYKWlu5Zx4OWuMsSnBgmPrxWljHYsjXu4qV/nkGkm46kWDtZpfPfPIZy0Vq91Y8SnFjGRi4VEXT87axKS9Z0u/fXnR7Y8knPqSv9r0Kc2V0hhl+oibEytmSsJtHiUx2QdTebDVxj4mjnj74EbPjTiwiSemV4M2pTHIng0eMfbBJV4dP02eVf0cKzhzjKScyoqDg1btqdtfIpdYbUi5kyex9t03MzZjqt04+ZWZs8boU8qBzHh1bHLoz5hRv8YYW2XWoc/YKvVnTmzVrk68HBljXxy6/U2lnOarEj82+Nl6fjlSuiYyBr92ObGNal/lq3VUPTn1wUfT16shz+v6lcvow/uUunxVtlyCmrIzgXMkGItWYmPyskD62Gxga7H4amFVByMvPja58NGyjqXlsK3yzdXlmYufwh0tPsdepfm0qyNHteJzrokzVkkcmzr42vCJMY8Y9Skpv3JOvJzEGKc0Hikud3bsuX6JYx7AYpdnJIkf+cw3ksTic96Tyxhstp5NHxI/m/XoMy6lmJFMrNxI8Gz4xZgnZc/XsxljHej2RxIefclZbfqU5kppjDJ99PO5SR/4GmOekSTeGCXY7IOp8dhqI8ZNH/qoXjDy1j56rwZtSuPn1iwefhtc8mmrsvInXs5VUryyYs1X7er6kXmscG57uIyxb351pLEjKdZYJfjs97jSTz9j5EXqs4+0Hvq9ln7zjGTmFWN8lb1c2Iyjn3xT8cSJkWNTSW6afFUuves91loyGv7qH+nEjXy1zqobl7mzj58Y6xGvFKs/dfrmo29MlQ3Hg60CRrrkyCzAvjusvEr4/EwPthF/tVcs/qyh4vVl3soxR982vtZ1tPgcb5Xm066OrLWpp0888XKAS2xi7CPBi6vx+PWNpPmUxNBGeO1L1OHHGi+HJxLi6Fccel6U6h9JeEc+a1slqYF8NrnQiVOXI3HGJabi5KnSmJGUp0rwbvrglse+taHT8CceW+o13pieJE58j0NblcYo9ZMjW/pHGNeRWOLFjiQY8Uqw2e/x6FfKj+76oc9W5x2+2oxPe+XOulb55KrSGHJYo/nwuRmHL3OKTb+YKWlupRzKyq1daZwSvH0w9uUZSXDijTHHSMolXikP/lGs+ZIj47T3pJw9H7b0W9NIZk4xxlc5ypd2YoyTr7fOwbDWKtaYdaU1yJeSfvLpM6ZKsdjpq1ce4/SPpDw9aS0jaf7Mbd6Moe98Zh3GpZ/4jJUv47Cpt76gdAioUqz2Wlhy0GeBgMlGrEVWO7rcKem72IyFN+309clLDLbkGuXo2eXZNL7GHS0+x12l+bSrI2tt6onJvv7kwsaGjU2MNvOop1/fSJpHaS1THOLkFV958LOGWCNiXKuOBekaNn4k4Rv55B9J17JvycsDJw3d2uRwf8CvzT7YyqGvSnEjKXeV8JDHfQydVnmwEWt8YqZ8lavqcGrr8WurkhhtWYM2Za4NcL1mfiUY40cSjHgl2Oz3ePDLqR+92vDREp+YpffIR/29GrQpxSJ7NpjF4Lefkj6b8cZoR08fum3EiT9zGK9Mn1w1Rl2sOPc/uMwvJvnFGaevriVjR7LGywM++9arxOf+b05sxKGLQzc3tuTUrsTnpi1jjK0SbM9mDSkTR7+XR7zYxOjDpl0e8ZtKuGnypqTvjTXzLdGH9z+fD+zWQJ/ng1hajW3GXbv+nuzZzJF1gqs6Npq5jcOWWOyuazGO2XgkTS76cmjvyYbjwWaCkUwcRf30pz/tJgLn5HJitRgkuvwODLy2lODR2fj2GA2bPKknRg5q6C0A/VOyJdx5mMLN9R8tPuaDVqX5tKsjRzWL0U8sfQ9gzGfa8KWe3PSJcw3IOUdas7LWNcVhTeKybmxs1MYvLbgm0dlcu5nb/khS38hnDT1JDL8WQXONUyt1WDPSfc3a9aGbl75jwaa9ke88jPLjF1tlLwa8c0UdbDbzYgODDgeb/ZTGIc2FnzYl5QRrbMZpSymn9auDSRw8tHwelpbDdakbl1z4tFeJT6wSTPZrvL5e3diMR5qP58A+GBtrhIZfXnFVx65NKTZ9aYNb3XWATl72LWtBwonPWulrM59Sn9jMg6/qxikrpgXsPFQ7Ohv1Ua/zhe633Om7r1EPTZv5kMTDlXFgeznTTp+WXOjEaetx4KMOaiKntROLTT8YmlyOAc7KC8ZYfRkrR5VgezZi5VHKZx7rw25tYpD45TeHXPiwudb0byrJR5M/JZw/+clPWj7tS/Sybmw8BzkGbNbHcZ1mrfStH8xUzeBHGOvpSepxDs0tjzVYs2PQj6Ru4mhIcxBjXwkmY1NvfR5sI6B2cRZ/zWtec/G5z32uJSXhE57whMWVrnSlBfY///M/X1z96ldfXPWqV23+5PjKV77S7GDf8pa3NFr9KXMQ5sRPH95b3OIWi8c97nGLK1/5ym0Df+1rX3vxohe9qHEag5K86+jrYKdywEWbws31L9n6O4c+ZM6j9lEO/PhyAfJvS8w388x8f/e731184QtfWPzpn/5ps+MHL6c5bnOb2zQ/z4k1iJmS4pVyrorDV+t2bTz2sY9tdeN/6Utf2tYJdXEBKOef/MmftDXLumRjzLRcR9ZTJbhqU5d/JNmJPaGBIR/70hWucIXGCc/1r3/9tt7Zt17+8pe3msHJCYZ9Eb95qSmb2JRiRzKxcKnnPBOr/W1ve9virne9a0uLzXWDZE5tjJnjAzaeI9aQHIyLNqpJO/jsy11t8opHul7BPutZz9pbx3B85jOfWTzsYQ9b3OlOd1o88pGP3HsO8D3nOc/ZG1Ov7swFvurYaNaotDZ8NUYfstZNDdjZ8liY+xycrA3GdMMb3nBxs5vdrI2Z3OYHUVE8xgAAQABJREFUQ1OHj4bUpuz50mYckufSkxQYdNYoz3tyuw4Yj+uEfGI8BmHTnnl6+a1XWTHE06pdnbrzZIud4wVrmY31+6lPfarVQ93a+YtkGnkZ73Of+9y27zKu1772tc1njpFsoF0O+jmG7ONLDvpsHk+Ya2p70IMe1I5/zqP7IzVhk5M+eMfDeqfpp28+bSMJrvqMrZJ1zVyxuT9SA8fB733ve82GTr1PfvKTFz/4wQ8opbXXvOY1i1vd6latZvw8Lzxv5Ia31rCubp5as+MjB5uNmp1Tnvsb3/jGi+te97oLzi+sF+IYJ3VwXGd/pG6P684F/qlayTnC9OoFb/6s2ecc6fxTExvXazZjWT/MOX6OkeayFnXjtFeJf3mk2UVWQNUlpngO1Pjvfve7twLwWQwT/KQnPWlvcqCXi/5d7nIXxOLDH/7w4mpXu1rr6ycWLqU5G2jnQf085znP4qlPferiMY95TOM25qSTTmpPOnhsbvCbQ67Uyce4fNWCpGWc+DmSvBlrTjnXlclFrRlPn3xK++rNsfugbzQGYPic/9e97nXtL12Z14tf/OKLV73qVe1E/O53v7tdiIKF05rkZy184xvfWHzkIx9ZvPe9723Z8Y3yVrs8yt3yV8ZbN9g3vOENi49+9KML62Ycr371q9vB4e///u/bCZu6eM7N8Z73vGdx7nOfe3GVq1yl2awJv5iRJOfIJ09PYmMzB/3vfOc7bZ7l5ODEye/1r399m+cnPvGJuPZq9LliX5SrAcoDPlrKUc3aE1tjG9nuAzhOFqwLjw2cAOF5wQtesDen8lIz+xg6x4p3vvOdbYPOg6PYkSSnPuskvtr0pbR/yimnLLhwRjfuHe94R6uF9cIadjz4qZvtgQ98YNuIZzOvvCPZgDsP5lJm/lEsdn3WnXk5GXs8ZW65iLI5pjvf+c4LNk6GjMv84tTNg9Sm7PnSBpe6fZ9TXgwyfzT5mrLzQO3Xuta1Fo961KP2ng94cqzoxMm/SsqvrFjzVrs6dVK39YLnhfUFLnCBFgruPve5T+uf4xznaPXf7W53axcWzbjzwDyfeuqpize96U3N9PjHP75Jc4yk8dauBJ99cJUDGxguEjieMYYPfehD7fiH73znO1/bHzmHXu9619urlwvOZz/72Yvb3/72i4c+9KEtNsdOLM181jGSWasYY6uEF8wb3/jGvfPNJS95yQVrmjnmb8VP2j0HveIVr1i88pWvJKS1b37zm4sf/ehHC/CMjcaYydGrwVrmyka481BrTn765GS/4xwJN88956Df//3fX9zjHvdY/Od//mc7PsKHn5sh4Hlhgu5xHT9ctKkaV2F69YLHDi/PLVLcNa5xjcWtb33rNpfsi/Rp97znPffqAMs+TH0+B5xbbdYrZ7XrV+I/fPm+o1jQSFI05Nzm9+IT3YQ+8RBry2SVl1dnZz3rWdsBnyeDg88d7nCH9orGeLjYWb71rW+1+v7iL/5i8YlPfKLp1PD+978fSMvHKxAWsQeJZzzjGc3HxS5X7uyQ8DDBvFqlHsZE3WzU4NuzvnpvBLsP1OR4rI84OJgTpHzKOmb15KWfc4dOPM189MHwCo8aMz99a7NvXej0aZnbfpXyWM8tb3nLthjZoXh1d8UrXrEdFDjoUqNzbA7ygPXVE6+UuDPNBazccyQYmrIpOw+13qpb981vfvMFG7Xwyu6yl73s4hKXuETbcaibO/XPf/7zF5e+9KUbNXk++MEP7s0VdRMPH3jrGElIRr5aY9XJwdojHt/Tnva0VhMP5P6Hf/iHpsuPIhY/a5WTo3444MvnhJiaV12+nhQzktZBLBfLHIBp4G9605u2kwgHMWtrzt0HOR/xiEcs7n//+7cTIi6xU9J4YrJvnLaeNM9JOye2z372s3vv6GC3MbdcqHFh7TrR57qn7kOHDmluspePmrQDskZl+uz3pLG1bp5r6uTYwB10mnf54clGTl5wsU9w4jYPmFrPXJ+4KuFzfbNOuWnAhYW5wHMeoHGhBP7pT3960+nj//jHP95e4GCEa1RjLzcxIzw+Wo1Dp/H8k4+6mUv63snEzzmF4yAvVngBxsZF0NnPfnbcrXFMed/73te4MIxqqTUsow/jaxz+GqMOlpqpi5qpnTturA3epbjf/e63+P73v9+Oi2c729naGoDvIhe5SDtOc5GXrc6HtUxJ64FLrLYq9XPM4LjLnXvON+x3rA/mmfM+F8qsW453NHjwP+ABD2g6Mawj7Prl3lQ2op2HWjM688s6sXH9Yh6f+3rsAEssN0PAwmEMPvps5tPWkz2bXMb3JHHaH/zgB6MuPvCBD7QLfS4y4eB4zs0c74aDIcaLTvqO331FuU79RxydLH4kTcoJzoKQFOmAmqM89PjA80qNxs5B424ITTyvyGi8yuHOA3YwN7jBDZodHR4bOxo2LoDYfvd3f7dt3sngsxtwXvjCF96Ls24mjz4SDjaa/Ej72tGtwYsIF5Q+eaps5PGQeeWs+bDLL59xUGkzN9J++rNvjNKc6mB5+50dijnlQMB8Jod9Yti4e8RBjhM0jVd8NnmnpHUo140Hz0mBFyDUzcUodyO+9rWvtbsArAFfyYHNPNbGOrOvfySTo2LkGEmeQ55X4njFf85znhO61rDX/U0ffMRwJ48XQdmsIW29/OJGshcDp3bjqJuTHRc1NvbHbOnD7v6dGPjknJKOn3jroW+ctp6sNuOMRaeBy+1Sl7rUEWNcoo58rNxVB20eJZjsg6lx6NUmF2uICw8kjRf3vUYOtlVcxGUe61L2fGnLeGOQeawCg804dJtvZ6PjZx/IE7mcxo6kOGXFma/a0dmIo2Y2+tqI4zyEzh0ubmzYOM54fMTmeQFsNvWRFGvtSvDZB6dNrvRjo1ZuzFzucpeTth0PqVUsjgtd6EJ7N3DQufBjg6PmwG/sSBqTWGy0Kptx5wEujtueb6iRcw7vDnksZ36dY3hqHi5SbdWHfVTvyJ5c9LN2+9iZ59zvXO/wyi0eib82/eKnJPEjjFwpwaJrI94+8ktf+lK7GGXeuXOLLc+T6B7HeYcLHU55lclLH3tPNlvz7D6MgNol4c4SBzzuLNKe+cxn7g2kGcpDFpZcvOKhMRCaOzYYNl6x0bh4tM/E8BZCr2nnlRAbr/J4ZcoFEQcyeGh51yh5RnWCscbE2zcOacu+T5Q+pRil9p4EI0/Wkv1eXLWZayQrXv23fuu32sURi/OTn/zk3qLCX2v46le/2g4kPme+sh7l7NnlVFpHD4tPuzjluc51rlY3By3uknNByosTLkKty3g4yMfORbvRjW60d6CwjpEEP/JZ20gSSyOeAy0HApufLVJXyoXOSZsXajTs3ElivddmTMpRzdoTK3/y6qdu9jkbNXkycL/E5wmdPjmM92SDzdxTklgx8siL1DaSYGqTr9rV4WJu5eQESe027SMpzjxK8NkHN8UhV8pTdj8awAtA4+UFRz91YytWHSle2fOlDc7Ueydj88LJzQjqve9979vMnE9o5uMtTV7gaNOOnnmqLk5ZseBp1Y5ODJLn2niw9tkveRHFnUXeYaF+PsbDHTzurGczJm29nPi1izVWaW2JTZtx7mfEcb7mIxjuj2A+/elPt/Ph+c9/fkPacZIXwFyMstnMjZ71aR/JrEuM8VWaS/mbv/mb7QKY47bnG47lXBR7DhKLhJ99kY8+XOYyl2nHGY+B5t5UmqfW7Pi0sya8xuBYyJ1Fa5Ojp6ev9qdqTr6Kta6UYtLGd2tYv2yceziW4+eFH3je3TKOfNx15t1pPrqRdvrJm2MRVyWYX9aIYn8kwbC4Sc6Hg7nq51Y4Nha6t8R7XBTHBlY/OoO+173utfeWoz5k3hFycNizb63YbVwg01jAhw4dahejHCB4W4QJ5fOKNmtC8hYVb9V74OGA4lU/ebjDB44ngMYrYOzssMTwqpc7QnB4ECAnn3OyTjhoXBzLqQ63tpqHC35sYuDlMxzk5e6eHK2z85B5tCGtYyQTa5/5ZAw//vGP9y6QjAdjXSeffPLirW99a7srxxyxE1ovOGPmSmJqm4pNPHUzRz/84Q9b3b5o8k6t2Ic//OFtHvlsIs8bb7WyXnwOxW0q59QMhrniiyO/8zu/0+YOG31Odi95yUva/Dmf+KibMd773vdusejYeVsNWZu2Kisu9YpVF6Nu3Tz/nCQudrGLLZ73vOc1GB/I5wWmdy/4KATrlhcF7F/sP+x7vO3KidIxmmMkzY0/++K1jaQ4JTix2thP2c/5yABj/OIXv9juyvC2IXdsOPF97GMf27tTZ/xIyluleOz2RxIMc6T0mMrdIj4nzwssjgmcFJG+cyQeXuadu7o2c1W92vFrU/Zs+pT1OUW3buaSfZK7daxd1jHHaI6nnGf4gtib3/xmSztCyj+SCa4YfdWObr0pweNjLbCWeTH7lKc8pX1Bk48p3eQmN2lzDoYv3Hos9GRuPnlWycRm31p7seKsn9rZ1ziP8UVSbuBc5zrXaRdKvGjl2IhOrczvWc5ylnac5FhPe+ELX9jWODy0zN0MEw89vLaeNA/HNOryfIOdd3ryWI7NOWa/5IYBH81jHXHzCf/oHaSJsofuXs2APU/w2VVysnapgeedj8/RjKXPx9M4Rt72trddvOxlL9vbD/DtZzNnleTAxjGY2vnIHfPGsc56ubZjPMwxa4f59LjNFyBZK9xo4HqHd6lpYJwLczbHiodWB4HrNIoi8PKXv3x7VUIsHHzOhxOPjZMObRU/TwZ3KZmAXsvPIpyy8wofLnLTt5kH3b6v+LhQYwK5mOXbdJ5Q4LAu+5xQXvziF7eFLvfb3/72FsPHBXhyeIvg137t1/YuQjkB/fd//3fDEEMOxsTOYoOTz0PyOSEWqBzUQmMxwoE/85z5zGfey8OrO3ZM3xphzsxD/dYhB3cNzMOB3YO9NTmP6lU6J+A42L7rXe9qdyI4GTOWC17wgnu37Ill7njLnhM064OLJi5CGTtcXsjXPPutT9V90s7n/xgPOw6vWBkLjZrZIflMMXPL/HGHwzUyNV/7NQ7ycAHBxomOxsGVtcJdW55zxsidRaR1c1DIRsxBN+v+8pe/3FIz1+wzjMkvZbAm0Pn4AI0+zwNzzj7r24WM7aAaa5eNxr7Ixvpmv2H9Mvfse3wOijFSM/sTMZzIOQ5a90HVTB72N2pgrqiT9cpFP/so88wFPr9ewQ0DxuKYOJYwBk6Qrv+DqJuc1OoLEXJaNzcwuIBmrnnHheOHd1+IYz2zrljvNHjYX4/mOrFectBX59vO1IHOeYg1zp1Q7n4y72zMNcdCXpTf8Y53bHPNWGn5rkAzHMUH5tVa2ec4D3Jxx51lNvpcbDi3hw4dauchLlpp+NhsjPloNbnJzWebOQZzXcAa5blm/rCxvn0Bxd1cxsd+yfPAsQQf6x0+9lP23aO5TpgPa2edkvPRj3704qIXvWj7RQTqZc1TA3VxU4EXJ6wd1hLHdT+uxtqA62jX63NoHq6z2P9Yu6wR5pnauDnAeNgfaa4lPuPP3VKOf6xv3smwbufCHMr0kzf1XxaETEcFWjA4rnxNxlsoxoHhlq6Nvjhscvr5TvQ/+IM/aIPOuPRnHwyT0suTOfnAOBgWJ42J5Qk+73nPu/j2t799RE34rZ8FTJ8cLHzeqoDHxlsEXChiA+dFH35sxMCRMVWXQ87KgZ0DsZ/xg8uLT3zobF5oY2N87IDONX7y8GqFvnYl46PPph9pE6eNMTs2P7zOHWxe/XMy46ALlp93IBbJCZK35Rk/B2lbzTlXJ34OFlyvbnZ+7lxQK/NJs65ce+RA5wBtPvjsjyR8I9+UnViaddP3rUliORBbI5I7W9i1gaep13xL7+b1jfjkTckXuqyDV9hf//rX29phPOx/NI8Z9J1b4nJN15xzdTinsGBo4GgcL9iHOGHRuAtO4w767W53u7afs59SozH4qZ21vk7dxE3VN/ITS7MGvxijTo0eL8Ex/xzvqJsTCjh0GhfOjJlmvqaErn1TKZ/rGh6aNaojeZeC4xLNL6IQZ6zryhjs9LeR5BpxyOu5wDqIcX0bj+RYS2M9sL86tzxHtM9//vMtzs9Jj/JqJ8b+utILL2rOWn2xxPGc8yFzCgbJc4Kk8YsmtEOHDrXxNGX3wVpQ7e+HhM/nn/ponDs4bjO3XHByDmJuOQdxLAfHscS6mXvOm849ddG2rW8VR0uw+8BcUqM1cZ7h7jgfJ8DHTzFRN/Vwkcpxg+cHHel3WuRBTtW+qrapWG6KUS84z4nMN/PKTSwaH5n0S2C5lvCdtHOjgS9iOd/YbOZWZyy0KrGd4Rc7jQ53h+Y0JwjsqouZWkSPey6GWIuvPHIoqx9dn7UjtVW8djHqFVd1cVWC01Zj0rcKYxwY2mguxPUkb80R7+c05+Tr8aTNOUpbr28uZQ9zLNqol7bJfO/XeKbmTL+SvNnfrzrW5aEGWu8kvi7XQeBHcza1xvFzIKednuvEORqNQ3/KdbAZt03f+Vo1V64dMbXOqm9TzyiW3FzMcaIm3yindvD0adpG3Efbbn7lKF/Pn7Yc04hjP+2Ze13ejD3ouq2VGrwm0oacU0/Wn7EH2V+3hhwvfRpj7TW5q2wX5QZIMkeSiK0efEcFkENe8yETr79Kc4nXLw9+bMmlT6mPen21pU2MvPKlDgZdmzFVJueonzHJl/jE2AcLpodLHvEp9Wcsfe1KY6quvUqff+2jOPP2chozJckxhdFvPXOlcUpzsVasXd9IGrONzFj6NPMvtdM+6ndu1UFaq1Hq28pV3OaijqzJvv4puWmN8o7i9Vc5mjd5Kl4dv2PFJn4kM24OXh7jpmSOQ2xyZL+HXacmuUbS/CnBmtc4/fpyPvGJF6du/KYSvlWxeUFhTmtAZp3wyNXDgteffW1VgqFV+xzd/Mol02kfe/60mSsj02Z/Wyl/5taGlD9t9vVlLDbtGa9tXVlz1Xj91qBfe9W1g9dnrD6l/pEEN/KtsvdyZw3ptxZzwYs/Mepiza2On1YltuXla8dZweoE2Xq26rMYsergsq9fKU9K8Pp7sYmlnxh99cJJO7zizZEc2LSLU4IzXpmxiUu7nPqVidE2lZsYmzHqxqojwWhX6k+9colBihNT9cRWjNi5MvNNxYA1X9Yw6lc+cNiSo2Kqbsw2MmPpZ/7U024fOaqZWFqteVM9uRpxcKsjszbrS39ian+b2uAaxePrtazVWG1TePxijR1JuUb+kd24njS3Ekz25cSefXRaYtHFbCvhoslfpfxL1DKvGG0Znzb6xm8qV3Hgs5aexOYGlmYdS235aGz6sYkdSTlG/il75p3TJ1/izF+lebHb31ZmDmtQZh5tyvQlR9rB7ld9Ix5zkyvzaU+ZtVesvpSjnNpzrNrmSHMQ7zVRtcmjHYmNzZgcW/aN1ZYc2NRbfwokWLku3mKMR8/+iK/GGaMc+dugdiaLlrmIQx/F6c/4Hoe2lNakNEeVxNC09/A9GzEje/oqBh9N+1JbPlKDdmVitfVw+pSj8SRfxRg7V1r7XPxUvnX5pvLmWKewU35rq2NQR8qRNmvQJkY+9W3lXD7ryHprbjFwrsLVuJE+t7Yabx1ZgzY4V+Hxi624qoOlVfumOlzmrrXP5TQeLtrcuCncku3I+rCZbypev3j5tG8rp/jMm5Kc6GmTB1lrAjfHVjFyVvtcPfNaK5w9u5zp0zaScI1869qTy1p7taQvY2q+9PV4Kn5Kh482hZuTyzH0+PSlnMrZ45mK0Z954FG3P8JhFytmJOGiia8S39qfCSVonZYFE5d69ivnKl/lqbHqPY6eTfy6vCMu7VWaR3vV025fuQqrT1ljsPOZUJo/o9XDNEB5mIOrmKpD2bOVVPuqHnS+fS1+l6yOQV0JzL7SOqqu/SClNSh7udOX/R72aNrMrSRX9mtufVVW3EHp1mG+qmvvyXWwvfgpm/xVTsXpN079oKR5qyR/z9arS1z6erb070c/c8zpkzNx+1HDJhzWoEwObcr0jfrrYEccc+1zcq3C6Ktybv51cTWPOjy9ftoqZiq3sVVu9JlQk0FmIaukV77i0bM/4qtxxihH/qwlc03Fpd/+VG2jGrRXKZ9286gje7Y6JnRj0ldj8dG0L7XlY+ZKv31lD6dPaS1Vz9wVI3autPa5+Kl86/JN5c2xTmGn/NZWx6COlCNtWUNi5DNmWzmXL2sb5RQDZ9Y8wk/Z59ZWeawja9AG5yo8frEVV3WwtGrfVF+ynTZ/jmOK29rlmsLP9csnf5VzeYyTb27cFG6Kz7wp5UybPEj9SnD2lT2bPqWc6uvKzGGtcPbscqdP20jCNfKta08ua+3Vkr6MqfnS1+Op+CkdPtoUbk4ux9Dj05dyKmePZypGf+aBR93+CJd2+yMJF03uKvGduBPKLERjMp2oMB/RFaM8wrmjaK9SnPaqp92+chVWn7LGYD9xJ9TZOX5kfR7VlYzEvtLRVV37QUprUPZypy/7PezRtJlbSa7s19z6qqy4g9Ktw3xV196T62B78VM2+aucitNvnPpBSfNWSf6erVeXuPT1bOnfj37mmNMnZ+L2o4ZNOKxBmRzalOkb9dfBjjjm2ufkWoXRV+Xc/Oviah51eHr9tFXMVG5jqzxxJ3R3sp1QJBegTFQ2daUXqUrtSu1Vyqm9h+/ZiBvZ01cx5tOujqQG7Urs9pU9nD7laDzJVzHGzpVw0ebip/It2ebzTeVdp7Y5XPDVMagj5Uhb1pAY7DRjtpVLtmm+rG2UUwycWfMIP2WfW1vlsY6sQRucq/D4xVZc1cHSqn1Tfcl22vw5jilua5drCj/XL5/8Vc7lMU6+uXFTuCk+86aUM23yIPUrwdlX9mz6lHKqryszh7XC2bPLnT5tIwnXyLeuPbmstVdL+jKm5ktfj6fip3T4aFO4ObkcQ49PX8qpnD2eqRj9mQcedfsjXNrtjyRcNLmrxHfiTiizEI3JdKLCfERXjPII546ivUpx2quedvvKVVh9yhqD/cSdUGfn+JH1eVRXMhL7SkdXde0HKa1B2cudvuz3sEfTZm4lubJfc+ursuIOSrcO81Vde0+ug+3FT9nkr3IqTr9x6gclzVsl+Xu2Xl3i0tezpX8/+pljTp+ciduPGjbhsAZlcmhTpm/UXwc74phrn5NrFUZflXPzr4uredTh6fXTVjFTuY2t8sSd0N3JdkKRXIAyUdnUlV6kKrUrtVcpp/YevmcjbmRPX8WYT7s6khq0K7HbV/Zw+pSj8SRfxRg7V8JFm4ufyrdkm883lXed2uZwwVfHoI6UI21ZQ2Kw04zZVi7ZpvmytlFOMXBmzSP8lH1ubZXHOrIGbXCuwuMXW3FVB0ur9k31Jdtp8+c4pritXa4p/Fy/fPJXOZfHOPnmxk3hpvjMm1LOtMmD1K8EZ1/Zs+lTyqm+rswc1gpnzy53+rSNJFwj37r25LLWXi3py5iaL309noqf0uGjTeHm5HIMPT59Kady9nimYvRnHnjU7Y9wabc/knDR5K4S34HfCSXpqFGggwFD36IzpuLSl/2Mz5i0g08fOv78oWJsvZY8PQ5stMRN8fT8abM2fqdL/vTT7+U7cSe0ztKxr9fnUV2Zz3Xa0n56jtKalL1a0pf9HvZo2sytJFf2a259VVbcQenWYb6qa+/JdbC9+Cmb/FVOxek3Tv2gpHmrJH/P1qtLXPp6tvTvRz9zzOmTM3H7UcMmHNagTA5tyvSN+utgRxxz7XNyrcLoq3Ju/nVxNY86PL1+2ipmKrexVa51JzSTSNS78MKnPyV9C7fvRRS6Nvv6iKFvLnGNrDxkjHFIY5AVkz7pxOnTXmWtCbyxFdvjMh5pXRWnXalfnTzalOlLf9YERrwysdp6OH1K81U9+SpG7Fxp7XPxU/nW5ZvKm2Odwk75ra2OQR0pR9qyhsTIZ8y2ci5f1jbKKQbOrHmEn7LPra3yWEfWoA3OVXj8Yiuu6mBp1b6pvmQ7bf4cxxS3tcs1hZ/rl0/+KufyGCff3Lgp3BSfeVPKmTZ5kPqV4OwrezZ9SjnV15WZw1rh7NnlTp+2kYRr5FvXnlzW2qslfRlT86Wvx1PxUzp8tCncnFyOocenL+VUzh7PVIz+zAOPuv0RLu32RxIumtxV4tt737k6qw7Yxv/p8r+6bOAsgL5/i+mdOnzY5YPDu4z+6n7G0AeLL3HyYSMvunnhlIs+8emTD19t+pBsNHKc6UxnOg0PnI5HHuOoicbcnPGMZ9z7z2Fsjol+1kUfH83xWEMz7trpww/eudePNEaZOdKfMWDEKxOrrYfTpzRf1ZOvYsTOldY+Fz+Vb12+qbw51inslN/a6hjUkXKkLWtIjHzGbCvn8mVto5xi4MyaR/gp+9zaKo91ZA3a4FyFxy+24qoOllbtm+pLttPmz3FMcVu7XFP4uX755K9yLo9x8s2Nm8JN8Zk3pZxpkwepXwnOvrJn06eUU31dmTmsFc6eXe70aRtJuEa+de3JZa29WtKXMTVf+no8FT+lw0ebws3J5Rh6fPpSTuXs8UzF6M888KjbH+HSbn8k4aLJXWXzNcTuQwVUHRjJuMj66U9/uneRiM0iuFj62c9+1nTisSNr34sv/MRwceWFmDWZX24kGLDEy2FdxoExRl/mT1/moK8ONzg2berWqR0sfS9AGT9jMhY8m/UaR23YafjkaYbdBzngphErzy5krz55icmmPW3yYku/fWUPp09pvqond8WInSutfS5+Kt+6fFN5c6xT2Cm/tdUxqCPlSFvWkBj5jNlWzuXL2kY5xcCZNY/wU/a5tVUe68gatMG5Co9fbMVVHSyt2jfVl2ynzZ/jmOK2drmm8HP98slf5Vwe4+SbGzeFm+Izb0o50yYPUr8SnH1lz6ZPKaf6ujJzWCucPbvc6dM2knCNfOvak8tae7WkL2NqvvT1eCp+SoePNoWbk8sx9Pj0pZzK2eOZitGfeeBRtz/Cpd3+SMJFk7tKfHt3QlcBDSQRG/pZznKW1ufiCJsXZj/5yU8WZzvb2aBrF0tefBFDnws08djoc1GFjwtbLt5o5oQfH9ILOzHIT33qU4srX/nKexeAxNWLtFoD/GDkyX7mprbUX/e61y1ud7vbLZ71rGe1+qwfHjge/OAHL650pSs13qtf/eqtLjBs1M/Fu3oj3nmQgxrJh04eNnTnR59xKYmhKcFm05625Eu/fWUPp09pvqqTr9rU15XWPjeu1lTj1uWr8VXPsVbfurq11TGoI+VMW9aQGPmM2VbO5cvaRjnFwJk1j/BT9rm1VR7ryBq0wbkKj19sxVUdLK3aN9WXbKfNn+OY4rZ2uabwc/3yyV/lXB7j5JsbN4Wb4jNvSjnTJg9SvxKcfWXPpk8pp/q6MnNYK5w9u9zp0zaScI1869qTy1p7taQvY2q+9PV4Kn5Kh482hZuTyzH0+PSlnMrZ45mK0Z954FG3P8Kl3f5IwkWTu8rma4jdhwqoOomwfeITn1hc7nKXaxdZr3/96/eeHHxcTHEhat+LSOzEcyHGBZtc4Oz7NjblYKNxgecFqHFI2qmnnrq4973v3TDgqOkRj3hEy/29731v8YQnPGFxq1vdanGzm92s4anhCle4wuIOd7hD2x7+8Ic3++Me97iGueY1r7l4zGMe0+LNQX006vn2t7/dfL/927/dbNrBUuN//dd/NRx9tmtc4xp7OOrjAjwbnI4z8130ohddfPrTn1685jWvaXOVc0S8NcmlrpSz+tWRYMQrsdtX9nD6lOarevJVjNi5Ei7aXPxUviXbfL6pvOvUNocLvjoGdaQcacsaEoOdZsy2csk2zZe1jXKKgTNrHuGn7HNrqzzWkTVog3MVHr/Yiqs6WFq1b6ov2U6bP8cxxW3tck3h5/rlk7/KuTzGyTc3bgo3xWfelHKmTR6kfiU4+8qeTZ9STvV1ZeawVjh7drnTp20k4Rr51rUnl7X2aklfxtR86evxVPyUDh9tCjcnl2Po8elLOZWzxzMVoz/zwKNuf4RLu/2RhIsmd5X4jrhlVgFVJ4B2znOes8mznvWsi0tc4hLtyQHLhVTe0WugnQd8yWXB2tHtG4ONzYsz440F9/KXv7zF/dEf/VELO895zmN4u0PKndXf+73faxfFOLiDeb7znW9xxzvecXG3u91t8bnPfa7Ff+Yzn2m4+973vgv6tMyT+oUvfOEFF4nZcswXv/jF92JvcYtbnGbcyUufzbHBSf8c5zhHu1j/4Q9/uJfGuDpPxqQUa3Dya8u86bev7OH0Kc1X9V5NYtaV1j03rtZU49blq/FVz7FW37q6tdUxqCPlTFvWkBj5jNlWzuXL2kY5xcCZNY/wU/a5tVUe68gatMG5Co9fbMVVHSyt2jfVl2ynzZ/jmOK2drmm8HP98slf5Vwe4+SbGzeFm+Izb0o50yYPUr8SnH1lz6ZPKaf6ujJzWCucPbvc6dM2knCNfOvak8tae7WkL2NqvvT1eCp+SoePNoWbk8sx9Pj0pZzK2eOZitGfeeBRtz/Cpd3+SMJFk7tKfL9sMMqcBp6LJNoDH/jAxXOf+9x24ckFKXcfn/rUpzbfk570pCZ/8IMfLOi/+MUvXnzhC19o2O9///vtLiUXhd/97nfbRSJvZYOB48lPfvLipS996QIc8XIwAO4wIh/72Me2t6zB3uhGN2oLBN+5z33ulvezn/1s+1gAd0r/7d/+rfmf+cxnLp7+9Kcv+FkA6v7Sl77UsFyMnv3sZ2/4y1/+8s3mA3db3/rWty5+9KMftfqvda1rLbjQfMtb3rJ417ve1WDU4uRyJ9V285vfvOVlnLaLXexii/e///3tQp6Y8573vA3z3ve+t114Xvva115c5zrXaXd3uYiWl3guyFOXs8o5z+kcDLxzcBVT9bk8dRzb6L0atuE7PWLrGNSV1GRfaZ1V136Q0hqUvdzpy34PezRt5laSK/s1t74qK+6gdOswX9W19+Q62F78lE3+Kqfi9BunflDSvFWSv2fr1SUufT1b+vejnznm9MmZuP2oYRMOa1AmhzZl+kb9dbAjjrn2OblWYfRVOTf/uriaRx2eXj9tFTOV29ie3LmmWd6N8+JmJDPJK1/5yqbe5S53aRdjb3zjG9tnJd/2tre14h/wgAe0t5J5axwbF2l/8zd/s3j0ox+9eNjDHrY4+eST28XUQx7ykMUFLnCBxkGfO4zgucP5t3/7twt4XvWqVy1OOeWUlo+LMN6y561tPjPJnU8uQGnUzQUs/DQGy0Xp0572tKbjx8bHB+j/0z/9U+Phzic1vO9972sfM/DtfHLxsYJXv/rVLeeDHvSgdvFJ7HOe85x2YX3pS1+61UAC7DTGQIyNcf3rv/7r4j73uU+7iMX+0Y9+tI35ghe8YKv/y1/+crs45xv53/zmN9vY3vCGN7R6fdK820q8Nvon2okZODEDJ2bgxAycmIETM3BiBo63GeC6ae/teC9setILLOXjH//4Nlaxt771rRcvetGLmg3MBz7wgQV39vB/+MMfbhekf/mXf9l07jrSuKj6wz/8w8V73vOepnNxCC93MrlgRfIZTe5afvCDH2yxxHBxaF4uMO1z4UqzRj73yd1Z7lg+6lGPariPfOQji2984xuLq171qg1LjXe/+93bBSX14yMeTnJ5YXqpS11qwYU3F8h8IYsa7nznOy/udKc77eXjgpmLY+L++q//enG1q12t5YCDO5+3uc1tmv75z3++XYweOnRowUYj5yte8YoWz4U9F6LUog9JTeDYyJENG61KMdqrrl3Z49CnFJO6tekzT+riN5X7wZV12bce+dG12e+NLzGVq/rW1Suf+eWptWIXg9Qvj9L4bWXyT3GBzfVqnzrtW986vKO8co38c+3yIJ1b+nPjRzg4aCP/uvYl2/KR+bRWeDhOVT7x2tGzn7r2TWXNNeKxZmTNb4xc1b+Nvk0sdVl31pac2h2DMYlJX9p7sekfxY3s8lUpXrv6lNymlspdczOvObdTeP3yKHN/2KbedWJ7+1yvPmyM0WMgOlvGz8k7B2P+Knux2GzgqZGm1Fa50LWBz37q2pXNx4NNR5UWoATPW9J8M512/etfv32WElti6H/nO99pmMtc5jLNx8UcF3L6uFtJY/JpN73pTZvvHve4x4LPaPK5SjisCYw5uMjUzsUsfX3cVeQJhp+LSBtv/4O57W1vq6l9vMCPGBiv80IXulDD89Y9nL/+67+uq905dQ64aOQuqPXw2VH7BPB2Pp9HpfHWPxvtK1/5Sutf5SpXOQJ/yUte8oi6qSu3Frz7YM1VitFede1K/PZHUox+9Jz3tIvdD7lfHPDQrFOpjXWoDcnWG19iGmGHs2Lm6pXP/MSzoVunnGKQoyZ2Wwn/FEceTMVmHPum+3zWK3ZTKdem8cblfNrP+sWtK/erPvPKR43OOT42T8JZN/0cT/Wlbo5NJVy0qXjrQYonxq0Zdx7ETfHN9ZtrU2k9WV9yac96vOhIW8Zo78X2cOKnpHxVGpdzPyfPHIzcU9KaxFFLzq12pbk9fqQdn7HY7RuziZwTA4bW2+esz3GBszavf9C1iRe3Sq7yyTMl5aA+mzHquW7pO/d5zLEvn7Gpy6vEdzjrjqIjZRZGgHcueQubt6Up6NChQ+1LPlyE2l7wghcseEv57W9/e7sj+e53v7vdLeUb33yWlBzf+ta32lvdxDsofuIITi7aaD/+8Y+7Tw4+Lxx5u/6d73wnpta4sPuP//iPxde+9rVWG3VxB5bPg/KW/f3vf//2Vj9gLog/9KEPLd70pjftvd2O3XHzuVRqJx4sG41fCHje8563Vzdj8Qfu8XuhTZ+58KerGDd3dxknn5Hlc7B8JIALahq8XNhyJ9W7qc2x4sFaqzREe9W1K/HbH0k5lODEakupb1sp56Y8xivlUUdqQ7oP6E9fxc7FTHHor3zqvby1VvYdaq/1j2I3sc+JsQ6k+za12ofDGpVpcy7WlXNqm+K0jqwdG20qdsq/ZNmexzzyIes89jCJp9/DaNtWJv+Iy3r0q49k4uxvKufUN+I2ts551m1s2uzrG8m5uFF8tcs3ko6jxo10eEa+de21JuPTjs0atfdw+tx3wYjbVMo5isdvbWKMqVIcdrHK9BmnbyR7PCNsz25OfVVPu31rQyaefuqJM7ZKML/0/+80Ov780C9+8Ys2OUpJwdC++tWvLrg7yJ1NPp/JhRIXVDTu5uEjEYuAizLu+HER+L//+7+LX/mVX1nwxZ973eteC/hpfBHnBje4wd437rlrybfv8Z/hDGdoPHwZyAHCQf/Zz3724o//+I/bSc2aqIMauIDlopDPjN7ylrdc/MZv/Ea7+Pz617/eLgDvd7/7Lc585jO3HIwBTl6RHNq5GOZzmvAzBmr4n//5n8W5znWuBZ//5CegkPwO6i/90i+1Ovn2PXc4wfJLAWBo3MlkLmi/+qu/urjsZS+7uOIVr7jg553gYP64IObLR9THF5S4e8pHD7Bzp9Y7p40kHqxNk3NZZfr5WASN+ak4dfz2RxIM88P4wfz85z/HdETL+kY869pNsG6ceONTMg7WmM2+UjtSnpGcgxnFVrt5tasrmXPnH4zPB3Zqd1z5POx3fdY2ktTBPk8N1scFKMcFYtjA4M+W49qk5k1i6hjgoGZqdU6x0Sp2XX3Jsj2PeeWjTuplTunX514cMmOzL0bbtjJzjbjMad1I10iOwXWkjefHNuKess+pb8RBfmqhIes6wa7NmtM24tUOlqa+rVyyLdc1c5wt65ubh/i52Clc1pK8aYeDjdqd9/RnP7H2kxfbOrrcozj91MUxrs6vfuPRWT8eY9Ddf+nTfE6MGUmwI9+UnRzk5ZhLLbVu48lBU0eKZV81Nu1il5FHxiYX10Nn2AG3Z4TfuBw1iiURDclnH7loo08RFiIGHT/SmNbZfUg+/f5GqBzkoG8Of2NTHJ8X5YLNOyvY6bPBbw6kOXbTN0FtYK01Y8TJoa6kJnmx2ZcPSXP89PXRpzlO+sbzUYF/+Zd/aXd4+YypYxeDLk+NR7deJXE09H/+539ufXj1Vym2xyUWDH7GhmTjuXLMLUk8GLethHK/OKwVPnlbZ/fB8YMDI057T8rT861bt7WM8rpv6XdNKKmB5hpPvv2ubxWfPvJTK/sw7xBQvw2785xrCrvx68jkXSeu5iM29190bdvw7ld91isfEhuN+fU4qQ279dvH59xjs8m9rZzDB8b5zL61InNdu0bStmmd5Ns01jg4qIk5z3MW9toyxv5IGjvyr2uXb0rO5YVnLnYKl1zMJc9tr8nT82FzHSl5PjjmuGaMX1fCvSrG3OYDS3MsrmVx+N3vrM1jujGr8jk+JG0uNnHmh4O6uRnGTUPt8Nonjo0akTS5rNda4DJOW+KNU/Ku8BEXoTqqhARC7DSSkAw9E6af4vQT42Qbj0+/A9GWB1Hj5HMi+Gwpfb7IY7MWdfiom414GjHUThOPTzvSnDlmuYirfWOww2kuc/vEEGuTAwyNu598hIC7rnwu1qZfvLXpnyu5uKVxEbofjbqoxTHDaY37wX80OKwVSaN+ni/7PI82x8ZBzBc4+k4P6dw6765ddaVrkRrFnB71ktP5tXZ06nP+ke4v1H+sNOpi8wRmXdiOpTqtKyX1cbxBOtfMO63Wju5Yqy85j2bfObUWamXeHYNryBqss3dMFXNQ0loYQ21pc2zH0lpnXqkrjxE+F3UsB6WP5tP5ow76rmdqpznXSvEpG/AoPZCHRn7nsMpMDd71jZ39NM8xrpOM2e++NXiMGPHnnFKXdWK3TucZjrSNONPORegRe4+TWSUJfeLxUQiSzcm2AItG52AiF8W5ORDjsfuk8Dub/OUlsQ4UyWRhoxHHt825AKWPT44G2H0wtzWC4WpfvGPCDpZNLDI3ucSZBx0esDTj6WNnyydaTnnE8BEEfi2At/dtYPF7wEXSrCVx9LMGfWnXVnHqidVWpRjqog7mTgz92vRtK827jcxY5996eY6YXzbGRmM89HOMo3GAH/nWtcNFMy5rcN6tUQzSfcY++1m2xCb/uvY5sWCY02zOJzZy8hwoE6d/EynPumMST7zHh/yMN3brpS9+XUksbd24EX7Jtnz0+OBxl+ff9WLtSvhcQ9iyjXKta4dzKsZ9y1rQPT8Q77HTusGxGTcnx6gGYmkj/yo79VBnYrBZJ5IakTQkz496xuGvOjZatW+qL9kOP7pGmEs5qc3+lDwatXnsNXfOFTY37D7/rht82PKYk/Hb1LsqFh91u++R0/rsUxt967dWcRxnvLaBL487YGkj2Zwr/KM45s19yznMeo2D37lmjM4vNnUkOg0ux9oMuw/yVYn7iIvQClC3OAL4KST++pK/w9Qujp2S27oUhY+GjUZxbGAZCBgbdn6cnsZvitLAsTko4x2gucHChd8Jsh7/610dDB874CKXjS8AOZnUCSdfEuK/6Pl8KZ8r5Q4lf+uJjb8B5YfzadxZlMcafbKsxXrQfZKU1oTuXIHTjsQOh/MFln7iqMX4KvHRtC+1w7p2ZWK1VSlGu3Vipy6aY6Avblu5H1zMH7Wdcsopbf3y26/Uhc1x8Dz7/D/ykY/cW39T9e9HfeaAi4ZuzXwxjjXJRn21btYFv+DAz4/Rrwc2+fZDzuVgv3QukdSWY8Tmxi9s8DNp+VzMzZM4+jTzrCuJdR0zj9aDnbYuX8UvWbbnkTf5OJFROx9V4tjE+hXHlyOve93rNru/78zasjFOmzHbSvimOMjLcdh17RrxOUBaN7+1TM1wus3JMaphm/FSN+vD/HwPgT9O4Y9JnFfn1HMF503HNapJ+za1WVNK+ZTsm9S3ab7klmNTCRfzwnzCwZeXucmUf/LCR9U4D7M+OGakj3h+PpGbOBxH+M4HzfFtWpdxcNmvkrrZ73zO+dMdaiM3vt5+Jx/XGuynfI8EiQ4/80Cs9YvvSWy0WtdcnRwcJ5hTauC33IllPNTDfgnG8VkT3+VhPRPD359jp2Zx5l9WN64P/+Ejz4qBkMDGb2PSeOuYZlH0mTxOfkjsLHSv8CmOwrD3Cn38zm+EMgiLt58xxMGpDS42Gj77cvClJH/yybwsVE52fLP9nve8Z6uXC2fj+d1QFg4YfofUi2NsNHR+FeAlL3nJ4qEPfWh70tgxaNQGj3VmPfhodVxi8BFncwy+2gaHzfHrBy9HlXJpr7p25SquxMiDZOe/613v2i7KrUk5h0/eKblfXPz6AH8mwJ8a8GsJ5KVe8/Mc8FljflOWP2HIA8KqGlb55J4r4aKB5/lmfbJW+b1bavNLZtRt7awr1i46feteMi0f5+afwlnbKkkNHNyo9WMf+1jbn6yVOPp/9Vd/1fxPecpT2t/oWn/ipmqpfrhp1b6OLhYeXmzzW8M2fZvK/eIxv3ysE2ycNPinNtaJL+jB8HzwRU7mmvbFL36x4eVhzm3atpVz+MjLL4SwTjjmWocSDuvmpgDjoCH3o75NOVoRuw/Uwu9Bv+xlL2sWa0TxXMHzcY1rXKOd7LFP5QVDm8LN9ScXfdY053IukHOuN+GbGzPCUQ/HXeeN8zZbNm5+cUPo+c9/flsrfqzM2vmHRP5pkI/pwYN9lG9dO3WMYuq53u9eEEMN1OL6xcZ+R8POMd3x8OVrjn9eJxA7ZwyNbOdhVN8qu/PNvLI+qcVrEOKoh0afjXpoxHF+YZ9l41eQ8HOekhM9m3qVja8CHXhKkye22nil8trXvrYVio9i+IvKT3/60y2Mb3/zpQQWC+385z//3mcfT9m5M0XjCfSLM0wIP2tE0byy8W884cXGlfg73vGO9tNGvAolZ97Zgs8B07cm+nxjH52NSReHrl8bOhfWvF2OpIHj2+68EmDRyKEkVq4WsBuDLXn1IXsx2OVZFZuYXox+fDT1Klf5xDaCeGDMLMhRM25bCf9+cPB7rvzuLH8gwK8V+DNfcpOHAzPrjF91qM+LuCr3oz454aKpUwt9foaM/cwD8BK1fOQETr28eqXVurHJt62cy8WvXojlJEJ95sbOr0nQfvjDHzaZPvvryka087BuXMXLw/pms1Xcuvp+8Zg3+bw7xPrmRTMvDmmsBX6Ng8Yx+EIXulCbn94aASP3thIu2ioeauDuFY0LiOtd73p7eHw0aqdujsE2OdHtryu3jbUW1sfHP/7xvd9+tg75OVfQbnazm7U/ctG+SuKjybWtTC7m1XUtb0u2Rr7kk2NTCddoLeKj4ecnFzmOMI/8yov5lojlI+foPE9jFbepXMVh3chec7/jJxjd7+SjHs8/jImfv+R5wQ6f3OJ70pzbjI3fYieXtcDJ+YRf+PF8gs16zOUdX47r+ltn50FM1bUrW5wgpI4qSZ7+7IulIP6b/RnPeEb7+SQkJ3NurTMQLhjReYscnd8PlbeRlweuzmnw0OAWbx/J73jS+GtMmhj61kafps5FqP8xz5OeMfQ52OUBj0VNTC5uDixs9cSaebJPbritAV+2Kbt+ZcaO+uTLsYnTViX+aqu6HEh/X5XngI85oNdW4zfV4d001jg4+ItUGm9vsx5tYm5/+9u3tcZPgPmCCIz+kZyDGcVWe+XCz2/bcpBgzWfdYHk784UvfOHe21AZT99W82yqwzcn9tChQ6Zu/wjGi8RsHOTg4UWoH9vRP4cfbMXtVzw8HNN4gfvmN795b23XfOvq29ZX88nHcYE1y8mO4xLHTS9K8Xm84gUjcw1udCypOTbVrW1VPDWcdNJJbQ3zr3E08fisnbr5abw8XovbVGauTTiojTiOJdyl5cKoNjD8JB+Sfxa0TeWbi5vi0S8fkn80ZE33jtvipyQ8U5i5friYn2xV5+1iXqBw7cDxr3eu4V0u7NyRy/i5dYxw1tXzZx5xKd3veEfY/S793uH1hTg+88BtfyQTP8KM7NbBOyc0rrnAIv/93/9973ziGJVg+AlJjjFs9eMPcJmTPk29yuZriN2HClDP5D08Nv7jnVvonCzd2PlsvJLlCZGTCzr7LC6ad3jIx61qdXyHdk5o3BHi4MmByBMYn28CR4x84GnqSLYcR/WBxy9Gid2WMYnF38MbNyXlncKlf26+xJGHTVuV8Fdb1bMGbsXzdjx3rNn50Wur8Zvq8G4aa5y18Vu13CVizdJy/umzg3HS8649GDlGcg5mFFvtyeVJlx2dizjecuJC1MY+wTsIXCxZL7qc4pJT36ZyDhd127h7S65DO/twLycHPU4y2Xo4/FN2OaZwI7/xSA6wnDxY467tUdxcu/xz8VM4+Vi3zDlv/bG2+YIj9Wfj5Pyud72rrXc/QpR++1M55/rn8onjH/LyT0e0Wze/o8x6d5+YW8cIB//IN2WnBt+h4GKfu8+sY46D9ecOPb7AOcWr37GrbyuTz+M2xwxqRV+Xf5u5q7mSi77zhbTPt6g5BnKTgHl2fwRP444jzwkfs+PPamjG1nzr6o1s56EXh4086TOvca5f9DzOcZ3EzQPuOnpjzTVlbPJiq3rPVjEj3RxI5pTzxo1vfOO2hjmnez5hfcthPsbIc4GdvyJPu/1m3H0wvkrcy1ucK4B1QnehTUCIn7d+7HOi5APkvNXG31hygcmrRF4tcuHIj9tzUsrbvJDVPNz1sWBzMlH1AJR3LMXJZTySjSeYBg8HDRuc1GfDzyYPiwjdjweA49+O2Hj1JU4pD7KOU24x6MwHzfgehvr1I+FVJ947wo65coB1HoyrMmuoPvVW6O4DOxSfueUuMQeJ3MHEGbet3JbPeCSvSA/FXTruJDq/fK6LD5dzgODA4HxO1Q/vFGauHy4aeDbWJ421zkUoL8RofrGOF3t3u9vdms0cTSkP+raV0q7i0QeWgxj7PnPJPphrl3XKnzLwApVm3KZyvzjg4aKIueaCzrW9aV3GwUtT31Yu2Q4/8iccrJPb3e52zehxgGMYF3gcw3jrjz/ywEazhqaErn1TOYcPbtYFa9g7KsaxvmlZdx7nNq3LOPOoryPFwsG7Yd5I0e68o3NuQXKe9BwkbiS3qY3Yypt8Hrc5x3rcrvgpvZdjKmbklws/a4Et+/q5ccWf2TDfzKNzjJ9x3Pve924f2+B8hB8eY7eRjWTnoVe/dYLJutHxud9xwc/nyznWeZHMzTP+PZJrCPZL+h7re7nkTJn9uTHicn64u8wxmM+mcsPwjne84954HRf7o7G8a8H+Ss3eFNGXNdGn6auy+Rpi96EC0C20h7M4vqRDozA5eMXN5N7hDndoi4YTD4Pgw9AccLiAS27ijDWX/OjctYKLD8taV/rB1CcQG8088vuqVR2/BwrwLG4OdvJxVwybB20w4Nn4LBALHi7rwk9D5zOx5sEGL1zi0bmITEzuXMbUMfAqRRt4xoQub3JgE5t9bUpy2R9JMDbefrrJTW7SLkLps+U4wI141rWbc9048cYjeR65w6Xvk5/8ZHNbOx/V8K1jMKvmTA4I7G8rWzG7fORmHSLZWGu8LUkO1haSWt3QfQcBfLZt6zJeTvWepE4b+64XodTEfFsbvzZhPHj7m8r94DA3B1kuQlnjvtWqb1PpnGwaX+PkU/KlO+cWm8cB1jx3jziRMxZ0j2dyyqG+rZziw0+trm/zYWPz+wTUzQtH7oRynNMvflM5Vd8qXmrAj2TfY5/jQoi5RTrv+D3X8Ran+8UqbutCTuHm+uWkHm4EccfLmweubcc0J+8czLq1WaOS+MqBjzlkPXguxca65otfXEhxrHGe1xlTzaUOP029SnL43RDy4nfjPJP7HRebrAcacVzP8IKQxvGm7gs1V9WJq7a5OvltXlRSL3PIjUTPgfTBuj8ax4uYfOGoPWuSf1QT/sNnih2lB4RYOwF8QQidr+Z7kQaGV3m8hc6XddDZEZG8XY7kFQB3RP2wPP89zxPmpCP5aZGTdj4fBJ6B+0FeflnpoLMAAEAASURBVDuUBpcxD3nIQ/ZwPInE8BMOYK2LV9Bsp5566uIf//Ef21us3PrmiWcMfPmJxlhofGaHcfitML5oxWLnNjU2bj9zh4HJp5EPHr5ZRk4XPguSJ5P2+J1v/fPqjQtvXg0xf8Szo9De+ta3tp2JuxccFNix+IA+fTF8fpY8LA7ycEH/xCc+sf2MBePmv+25kGXRwE2fz5qYx/kAC49NXTmy61eKQ3Jnjg1fz69tW0mu/eDgDj1rgoMwn4XhuWIuWbesN55v/3qV9TA3537UZy64aOg8d0960pPaizDWF+vk9a9/fbP/3d/9XXsbynUC3jj6rEHXpHaef/NsKudw8cINfjbGwDflmWvszDf7BB+LYL/6sz/7s1Z3PmxT25z6VvFbB2uB/Wg/51DuVfnXeY7kY46plRfqHoM5lnEscZ/3M5e8Tc+dfk4g1EETQ38/a5viIh/HX3DMMzWzRjjGub6tm8+88oVCavU5WWeuai3bjNW8cDD3cMuPje9AcCzn4hQ/5zbG5dvIYkcSDtrIv659yXb4eT506NCCDR4aNdLm8q6DneKUixp4Xvn4C9/eZ774G20uMLlTx8UbLwpZu1xHcF5mjlnH3PDys/L8zBBcrump/FN+6/M5r9Jc1MnPFVELdXNxT01+7Is7hnxchptXXP+w1k8++eQ2Tn6NBR6OkTT61DWntqn6ar1V5xc1aOyHXLdxXeOxGjvHQWI8bnMdgt/rJj9TCpbnjOfQurHR1KvEN/sfkwDbKIhEJKRAJoyGRKfho1B9JseHnVfh2NhscIKXHzt9Gjh8To6x+o1RJ4a+cdRFnxMzkiYHtfJte+7ewm8jXg5tyrQ7F9aPpIHRZpy5GYs4sfiIoWW/GXYfnANxWYe4GovOzgA275LJYdymspdvv7g3rakXV+cKnefAWhkHLdd1HVuP92jaWI9eTLpmqIkaadbvPsVbKbzaxs5GzOnRnDfq5ODsHDsGdGumTpoxp0e9o5zURLP+Ee5YsFMj9bLlPDuvjsVaHRPSdaTvoKS1kc++dbJ2qEvd8YFlfNrRj4VmPc6rNWXdYKpf3EHIUY0HkXtOjlX1jXw5p/Y9hqMf7WOgOVmr5EW3mR8prvrc98Si047mOoHberk24hyDpH4afedNnzHoXifVGusYG9mKh3azMv0SpoSUpqTvpCn1cbLh4tJiGQR9/fKAAVvtHnTgJZZNTNaUE6DfCTWHEj94Jo5NvJKc3PHkc1/mJdYnQFzy2UfSfFKIyScSX+VhHM6JfTGOkbjEoFtH1oidseHTj00eber4xMqvDWkzbiTBJWdyVd+IY1373NpW8TJ3WTdzl7rjcC0p4VzFux+1wWGO7Ofasn7WC1h16hbHvuX+4QHlaNSXNVp3Stc0F8XUge78Wo/jIA4fODHJNZUr/dnfhKPmR3cs23ITb9ukNmJrXOXjuadeJXjrdyzo9G2uI/WaY1MdvqlYcyKpyQ3duqzbmpH4prin/OSgTeF6fmvTB4/1JSc2MOLEqI8kHLSRf137km15PnI9bMO/TWytPbmoLevTRwxzV+cPf65nMRx36OOr+dbVrWEkzVnrBo+PtWIfPcfCfprHabFyTdUK7xSm5/cckReg1kYNnE8cFxjHQa1e48BLnXJlzeZsA19RI/6174RCbnFOIDYLcueEvNqMHdmJoTlg+0hiUm9KPOhnIuyHuy0EffBno2Ym1wWgHx774Oljq3Z85ky8OCU4W9p6/ZrLGsGy0RyPnKukb1V4J3QVdltfjmdbrv2Or7XVedbvfCN9TvXtd01z+Go91kJt1qgNvuzP4T8aGGpwjdr3mKG0dvMfC3Vbi/JYrMnaetI1gc+128MdazbmmZY1V5tjS8zpMQ7yu4atsdbhulFW/+mlH2v15Dw4l/X5tWZlXQcZR5/jTj22ZJ6j0Tdf1m69q/JZe9asLblWcazrg9cco1jG43VR1kZsvRAFS/N4P+Ks9nYnFEIHOpIZ2MPjr7E9m7EVq97Low/JAGvLJ9kJMKbWgJ0tY8AYp8w4+jaftOTHJ699pfaK14/MJr7a0K1NDNJ68PdyYN/PVnOQP2swlzh96vqPppzKhZ+6kO441GOc/pxv6xWjflCSvOauMue4hzuoGjOP84uNmtSV2HvzKx55LDXnfFVNPg+rMAflc56tu1dbrpWDqmtVHuuxZrHa1ZEVk76D6jOnrmFy9uYY/7HU6rxVfVWtvfGtwq/rsxak/eTQ5pw7/2Iyjn71izta0vxK86Dbso9N3Rhqpq/Ub/x+SnLQag51pOu3YtG9ewuud/E9t1bid/j6FxIjEoL4y0N+Z85bs2D5IDkfVMXOB3Pl9UTPz0Lg4wPa+LDzbXnsxPKqUh0cH96lOUB5iOWDs8TJiU3sc5/73PZXac2wGy8v9ZlPHj4Lio0vNJGDDxZjowa+xFSbubDTZz6onVhuYSOxW6+y8hiP5MmWR5w86rtP1t6t76wDDDVoE6sux1xJnLFI/mCAL2T549fw8Fd7/NMJH2rmyyWn7PzgeOZlHvH5HM3NPYXLusCmTj/nm7r5D2I/D0t99KmL59d/vMq6ee718wF3OM0xVVutZ65OfhtfmuIfLFirbOR2vfuf4OKV1Onapv6DauanRp5/vizAvLJhw8+65HjAOsDGWndtY3O74Q1v2NbUftVOLtom0hhqY90zNsaiHckxi+Mg+wS6c7Ff9W/Cw7xSB19QonabJ27Gwb7KT8XwV3seM07P2pk7tic84QmtZn4erc4nOvPNF18Zo+N0fKeXtHbOLx7rGIc//8f80vgCjfvnurWSgzZXMjc2+nxZ1bUgB1+I4djt2gXvGsDmPon0HTT9cu+3dK6okbXJGjU3ufi1Ab6gyTwy1/gYH3i+nITPuvliE02/427GLR7k6Uly8Te5/4+9ew297tvrun/dNz0pKiMLNAtTo4J6YI/KMLzcVBs7SD1ITKxAOlChEmHlTgzEaKuRWlpRKdqRDgTRCa1sR9aWjmrQybZl252RHbB6Gvf9e83f9b72d48951pzrd/v2v+7u/8X5vqO8T1+xphjjjnmXHPNBYN5ep4rHXfmRnOJcxL/NnNluHH0pvu6LoAB7s4vsPSjrtZFZM6TMNVu/tZn4bY/6Mwz7cdyxPPd448j/JXlngHVlCt/9Vd/9eYhoYUXmQnC4PayWO/rAjrgGuIX7H4Z6PYr8AD7H3c+JkZ1Mfx63OKvX9GLoaPoceTvu/xKkm1yHH3d133dxvsg90t7uPyK3S/WxIbZr9b8slw+A18uv8rzAyW4vMh3tl1MNoi89uEtyJNPXfYrz0a7+NUGdoge0dUH2UwdG/Ipm3X6SeKhlWcjTrFwf0LgfaDs28i9I6yx4JVRMJKbBOxL+9sbCNpvezlXDEf1iU154qtOZisG3H65pw7Dt3/7t2/vr4XLc8Dk2RfPeKY3Vvx3PBt9WcwjfgZfOFcupmMJBm9QMJkZr+1rJzW/nkxWf3bAexsCvMascbhiDNsqv7dePDjEgNOPoRzHf/2v//XtLRN09a2xwE49ufK73vWu7RVnX/EVX/Hisz7rs7a3XxT7qdjER/dwPk5y3o7g1+XvePXGjsYBvTdWuGBQtp3F+9T2rXlmPPte//oVa8TeZqHk9U0vX77cxr62aU9tyh5fc9xbPxOLjQta/6xnjH/t134t0Ublrb+1AV71xh7D7G7lT/GVq33vPKZvLUD9G5G5BcFqMeLdw85XXiH0837ez9t017BuRg8fcqCz3BhAxf/6r//61/ViOP95r/Bsg7LFkr/aNv/5RyXvioyKFyev/FQulnk3Mmebu8Uttgsr86A5ED6PldX/5BZ43/Vd37Wdk2pnY6V6sW7l4SrOyutzb/+BzbEVuXgyNrxHFu+4E8ONr841jgFEbmxH17Cyu2ZzpJ+45/nF34e+973v3bA5p6D59Tt8xtCXfumXbsesc48c5MUs5+b88LH2WXX6D1mEptjjZG2d/ASQOLmXyPr5fnVAgFL3WhnkqjDA5L1eho7ca3LEqb4VHj4MKMTHQITBaw6QHHzdQbLIZBOFwSuS0Dd8wzdsPBv4vVRfna08ZOHKLs4GrXWydgIb+mzqIzbRbA9ZcePTf8bJH19t+M6NTfEqqxdv5Wz2qBjlww1C73x1cL18OLGh9GTGAT8XABaw0ZrzbD3/sBxxdvVtNuGC8x0PCwrklV0tUNXZssNdJLmapX9ufGGaXNkiDjdJOVl1DMjvmDHGG8PwkjdW6ZExK8atE8HZNma3JXv4kL9jD27/NOW1YLbkXoxOzhe2YjgmnDjYfeADH9h04qa/l4dNLnQr52Ph4HVA/v3mq77qq15jglmbzSF+ADZP0vzQNdyPVtftrsVJXzy4yNzBcOFXu8mUvTJIeyz2jP3u1mkTyl652E/lZ2Kx+cqv/Mrtb5R9a9E7FJsz4bI/9LfjQh2utjM5jtrxFN9i1u/ORea5OWfUpy6wkAWhdqD8j/hm9PBRjFt5x6bzJF/HWfu62HF628uH+dGGXHz5BsMr7WAUD4V3lpPdy8UKmxiwqMtpC5+bCBb8LhCz42teNPcZ93/yT/7J1xhbp/BHT8HHvziTi9nbP8zDcnq9Yrnc0PrO7/zO7VVM9r/jrva4A6l9fFzAt3jtxt4ZzGdswjL5ihumzjnO32F0/jamUQvRxsKXfdmXbXel2baf5n7cnF59sEEr32Sb5tXHajDrlZmujZkxKrPPbvrmny775BqRbvIprxPcEq7RrjjkMSDXfGKbyNzSb2VfXnW+qHwGc7JixbPZq3fiZZMeD+/MkT5ZcePk2awx6NDUK/NtU0/2aP34eRQ/m2JWx/kUL3l1+8AVYP/ikzw7bf/0T//0D8FKV56zvHjhP+Iz9opbPRk7uNY43gWLwp39NZyb08PHGu9MnY1xXA65jb/GNrnNnaAoXMUn7xgolvE4qfhP5cUUJ4xkcLsr6+sxFB5f/a3ENl+T9DxhiHsvxvLUL7fy8sLjjRlOxP0NI8wWSeYRf2hgUo7Kk/8Rz/5If6t8xnPn3gvdXQSEJz3u2yi47Rcbyi5OdiuGI/szsdjI7Rsy3B2vZHHjCe7Gi3xsj/KelW+JHj7O2k87+eEJk69Zv+M7vuP1o2hhZ7dHMxb9Ws8n/zO8GDMeP9vUpS9muSanc0PIxjf/eDGeg8+8ymFOru4r38/93M/dFpuOR3PGxG9xb4PPu7eLM3nYb+UTx4wnv/1vng2LOcIfcJSD3Ludbebvjrs1jrp5kp+YxSvOEeeHjvRH8hW3fM7l2YupLbbOk8qNd+9qdXMBWVvxDzPZjKOebuWbrY9oNVjr7AQHBtGrrwnpVhnb7OnFWG3IJzmwNdCVT7yrICc7Mp0hDrmvMi2I1v/v9fd7/UerFzXrSD4WHOTdHZXb3Q3/bJFs7YMwJ+dTu6aMHO3JikFfGa9MPmmNz27GneX8yFb5UX3KZzk8ZG0zvoPelR7qeZapd7Lm9/Lh6rq49/LihumIs0sX5nhydx1hf8fDXdHw5Kfef+L237l02R1xNqgc93Cxbcax8WxsIzInYlfaHoFQb6JSlqvjwViPwlCdLXoqL15cHjHneCDrmOyfNtT3CPY5fsS6F2Pxa/utvLwWRe72u8vh6yakz319Zn6xOHVScUJskcom/yPOBh3pb5U/Rnv8NB86IbqLhdRRMf05gDbpk/YJfX2kjLJ/Kr8lFlzuGHoxfXn5w1Z/m9sbQ+TZ3cvFR/f4z/yOSTczfEN3aSw8Znv8vJYz2/bNGb7GnBhnWexsyzPrjmNbi9BsjmLkey8v/uRiyWdDjkdfwZubnVcchyv5kxFjqIVe65RiPBVfcSYX09Z8bC5Dcz5z3PWnPfO4YycWHzFePpwno3Jcw5z9Nbs9PVm49an5wp+4RGT68Of//J//es1Hx8+zxjZ3Ta2pjvAWK/3K6R/3sMKrnX3ECzZ5tjUQ6HYCO5O0RiILSuT5y/zU+aAGjNvV3UkhLzY+/UxG7nq6XSyG2/Gf/dmfzWUj9uRiGbwmCicOJ3gnd3qdyMdtfp2J/PuCK673PDwfM++qlnviEN+WDu8AEEtdH+DZsJ99pEwmblTcWeefDV4e8tU+2cxTLDobWnk2uBzly27qLeQ8E4f3n7ie1YUlspDvFn8x7uXFDNMlnq5cfJWTO1F0l5CsvmTnJNh46T9x87/E6VA5buUTn+ex5tgWq/FuzNbHxlY59bXHSoxfej6z/eyqP5VvScdHx67FgjFgIoNhPSa5wNUVt7Lj07+pmagn3YuxGGKjW3k+7nK6o+grYKQ9jidfT7pD2h2i7Dejh49ruM/aXYuTvni45+hevjqRpYfbpu7didrjUZlJ9VGyfJ/Kz8Zj5ytMzw5PclzC5iSov6PwPge+p8Qw7vk75vTr93//9299666dPje26d09x+e571reta21+Rrn1zm3GDi/fKe8cuNE3fzo/82N/3CS85/1yk/lYl8jOVwQ9t/xjs+J2dj2d6QeEesfFMNVu6vfysNWnMnrE1y/m6fNf+Y+C3m0HncupopB39zdghC+9New8r9ms6efuOnd4IDZf8fDTe+iyvk7LOZt5XC6u2vd1LegsETlrF6MldO/fgJ2Va71gjnwGuQSZadsUCBlm/+IdnJh75lQzzx4ZgPVkBZKxenAZeOqp8VCMTvhWSx4EJleDCdnMfyw6H3ve9925dTJzsHkSrvFhoUrIneF8jVf8zVbZ8phMmTrOSUDPlxxNpVrr52ByF3p2JnVv+d7vmdbUGyCh4985Ebq/Konw2GRj41y/a4Pisu3mNMmma+xwivmpOTxqaud+KTknlvR/3B7DtfFg4lLPv0hph9+OWHP+JVv5WEo/xmeD569vN3hDIN9ZtFXXZssRC1CyfIVJ5uV06Fsb+EdU3yQHzd4FhHZj/D4cYOrf2PAePf/8d/7vd/7Grdn/bor7RgyFlA4lFfM99bFQuF9rL3Yxn4nAxd8jkkkj750stZWx2UXJ41TNsVTfg5sxbyF1xZzRX2HN08Z6zbtcOeArq+Ss6/Ne7z497Zv9ZvxmgNh+8Zv/MbtAr05kF3fACjDekRrjnvrxb/k35ymfy0eJjlOjRPt0ibj3XGp3PmD/aX4l/SXdNdi8tWHcJgLvd3B1/HGgvHRCZuNRah49/x3fGPqLJdnr2/47xF7uo5Dc435UP2jP/qjX7uw0e+TrvXRWb2YE3d+M1c2dBag2mjM4DDv+ax9ls2tPBxrPPVkYipbl/iL4vqTb3eWldlYhDpPKiPnyfm7CXJ9jV/Dyv+azZ6+MUKnDLcfJ3mUQG4LfueUd7z6tpCNceF4DB+ZsnNRx6T6xLRVHj5qy8rpP2RkFuCIc5DYrwCRCUEj2Fs1u5L1gK1nKi0OLeT8MMEvA51Y/djDDlAXhx0fX2V4BsuVIn+LQLr1AV0x5epWt1cH+OW9WHC0wcbOw/gw+hWaVzvoVCfy2terbSyU/OeyjtQ2V7IWwK6sso3LMeN7hokfucnGL1OV2eMe3u2E5i4se7giZb+aM2jZ49mUk00TmT4wGYsb0fOx+BDDwVkM9UnqyYofn3Zk+hW5K2xzN1sfwugE/Of+3J978Qf/4B/c+ksbnDT8yk9+/vafX3rP+JVv5WEL+xEX9wi3GI0VP4pha/vyL//y7Y51B5/xZQx4ILtY1/CexbeHO0x0rqRdSMlvQ413/Gf8jJ+xYeZjXDvZOQaMC2NcuQmBb/mUr7XhrF4sJHbx4bbQ9NUM3PDBYYvED3d3ufzQwEkbTfuzWFa7coXrVi6eucAdAe0wb/lFs6+4LfJrc3nVlatf4+G7ZndWXzz9agxE+lIM84Bf8vvVszvn73znO7djWR2VJ78pS3cvPxMLTs+WGQfmc8ecfMaHOU676uPizeeHk93D7/GpL8IEv3OGN8K8fPlyWzCzMScbM35sZYHh3OdOqXPfmbyb0cOHPOgs1zedN/l4dRHq0Qxlb4KxmdN9m2U+hxXm2vepn/qp242ZmZcuvTiVn8rFgltfIt9MwjVxWhPowy/8wi/cbvKoOx69IQd+84/50U2lflhTvNpwL84N1MNHcSZXFtc4bb42B8ODfHPy3d/93R9y3MHc3XG+jlvnSVwcuHF0DfNmdMJujbOHG/4v/uIv3vKzt3j246mwOB6db6ybtNHmB5zO/R2T8BQ7bMn2ONmH/GMSwRmqQWzrMIk7ABpQJhLvi/TKij1g/MkjcYunbKfMXMrJ5Win5V8sNsoWZRa2rqTDRK5Ts+WbfXHU4cBX2rOdsa7Z068xbvHJNz7jJYvPuCYhOC3Kb6E1lhhkq3ziUGbXAcX2uai8e7x9NnVhwcPR/sIbF3SNPeOKvLZmf6YNM/f0vyQXV05X+DDwm2N0+rKlZ8e+MnmTxcxL/qYoXOIrw4TCca0/pz8/dQT/U6nYt/LyhyUcxZn1afuR6vPy73EY9XnYJ+bwHfk9R5/vxb4mmxjZrvU92Z7NtTz36I1jCzq8nPqp+jz/zH6fuep3/ujIbvrMcnnPcr5s4W5+mPHWcnFXeXX6MF+zzecevsZe60cxp93sa+X2FV/lp1K59ng56PQXUj6idGyNp3g4y3Hk/xzyFYOY8idXtsGXrnp24Y6T71HtWblvDj6kl0q+x0taAgcgWQOdz7wCA9w736ySUcmB5cc/Kl8NwTvA6aZvkwKbFhDiFTdbsb3v6uM//uNf72QyuNgjPPvK5MVWpp883+TTL9nkU78FevhYY0x7Nnv6ZCuf9ns6epROec1XnQ7Nur5IRj4H5JQrr7Zk7OtzGIp9KxcL1Y49XsxwZENuI08nVjJl8tqG0/G35Z/PHidD5byFszWWjW0k/xz/m/Dhgx0522k/8WlH2POLk6On8uLNNtZ/HZPqymivP8nZRGKpF/NejDOecvFu4XLb4F79wkW+6tTTH/HwHelvlRcP13/8i1H/Tln2U1Y7pk65OPfyM/HKLUdlfvV98tm39LP+FHyXfFvIsXHc4Y1vusrw0NlmG8jn2K+Os73EN+XDR/HO8Jm/1wYVJ16c8qvPcnZx+o7jxle6/J7KxVtxlWvGrhzm6vyV9TWit7U2WWPnd5ZvQV/FLX4yMYyNMMGtv+qz7MIw62zDLE4bGzp0DeMZm6MYMNnCUM7kuD4kt4nDVpkO0XeuSjYxbUYPH+lWTn/XnVAgDHK8g1EwICWxVQ702hHThi9iI6Yd2EFPPvOJJyde42fs/Iqfrnrx+CNym5y1Rf2IxJv6tX7kN+XXfI70yePFrL7y9Pgtd0Jr3+wjMfbisyVnq2xfIfXK1dlN2WZ448eKYa2HozYIH8Y1VXhwNOvJZpzVf6/Or3xP4eEpPz7bJk9jtolA35LhbFH+W+WZP2pfbS5ffYfDgiebePZkzwVR7PDdw6fP2u8rxnKt8o90ffYnzM2F4Zg42w+1LZuPNA/THvZ5HkhvPNk6/7wpvPpn9o38+rOTsrz1MT7HeWOHTfIpIz9Ls3+KcY3P8yJ/GPK5lrd8e/bprsW4Ry/f7O/6Vix54+wmrTjDOOMlm373lIsTF2OWJ+apY5NdnC1qX9Wu2Z5sN8Nn/hDbuAhH47Q0MzebiY8NGR+b4zTKrnq8eCt3J/SxJx4sV+VR3XNFnh0Bgo1nYVDPMm6Vhw8/QqBHuEUQDnRfCffsomewPFxcnZ1n9nrgOD8N5I+Ufd3uWZYeyH/PwzMunkv0owzPh/SLyuLym7HZ+4GPWJ618wvHZPJ48bMfVtHzw23FqZ7uGt8cHz7WGKvfkT55fI2XPJ4en7I1X/Xs1SM/ZvCrZw8lk+tXA8ezIZ6v9WyZevHz9fyr53qrt8/V2d7Kw1OeI26/lZOP51rgd9Ly7GF17WnchcWzmMYDIjOGo2yOeHZHuM7Ki6N/Pcun3+Q0hvtWQRv9vWFtjTsePPrih3flKx5+hP1WeTH5oXLpZ68zMjfou/ozu7U//SKz3E7uxla/3E5+Kw9bmO7l8pqz/NDKs2jmEjKknR7iRx0PW+Xh4xres3bX4qQXL1yzP8mMec/YIz8Uc7y60DavNj/WP5vRq49iP5UX81IcY9fzf/1YkG1zRdj0N+zIGHLSo7sU94xevEsx6MXpJNyJ17Px/mAhnOw8e/sJn/AJr59vDjudOcdciOTThkt5p2/lWziciA+s73//+1/PI2R+QKo/LYCMg/ljEzpj2/ncD048Z96fwvANt/iVn8pnrLCZyxB8fjTq2WxzdrKeI5cbzTGi3o/ZwkZW+VbOF819UIzZJ+Zoz3siuGHUx2H3Q2e/M+lCZl0zzfEkxoxdvpWzQ6v8Wn3GhsM6isz53Dqo8Sr2PE+Wy29DjKvmdL6Typ8s/cq3eNeMVieD1yAHfL5z04O4/QAHgHkgeAVBv4r3QmX/7y4uH3FwPiZRg8/OTFYskxXiJzYurgdjk/O30z3Y3EmiPA1qB6XYyEkG0fk3A3G7Y0jmpbf8URyetZ7uGt8cHz7WGKvfkT55fI2XPJ4en7I1X/Vpr0xu//yX//JfNlWLDBXxOvCV2baP6L1myEIKzbFQrlv5Fujho3YccXGLzcfrRoyTTmLqHmi3f+dJG0ZvcMAb23KUp5hH/Cy+4q2cP1n4jdFeEUWmDS4AlfOdWJSNXcfkEU17NvfWZ/ywOGb9ZWcvkSavP+m0hSx7McwXyA/tjKVJT8VWnns5PC5IUViUjR8TtEWd8e2Zc7Io2yN+1u7If5WLl6z+1Obm5vL9s3/2zzbMXqHll7AdD/T1UbbFeyo/E09u49Yxp9yYV5Yf/5Zv+ZbXfez4TPcc+I5iwF7+2pEMhhVniyc28EVsjY/2zVG+VZ5/sW7l+eNhlUM/m5s73opbW40LOgtn59HekVu8cKpXfiovNu6Y8qOdXgEIj/mjc5D5ZY5dPsb0933f9yluF1nO8ai2Vb4X5xZsxBO3WHSVzQl0+i+Myp1vcAvSqDGhbh0jzq2YixWGs5xf7XBTEennxkbHox+HtV4KH24zroxvlC786pOSr5zN66NlVR7V3TG0+rVqD4zFh4mND1l3YophQvSeTnK+6nR8xMHF8KqCYpPNhhRrA/3ga/L3q7Ns6A1g/q7cdGIkVnHLR2cQqNPxFcOJHk5yv+Qvb3zmE0M93TXOHq0xVr8jffL4Y7QPxkseTz9zKq/5qk/7yu6m+HWwX8J5H5irY+SdlF1BZytOsbyuJNKfUfpbef617YjPuCYFB9Xcj66mtcn+Nd7Yi2XzmpX2vXzJlWfcvToZOsJ1TT59v+3bvm27W0UWPq9oEsNBD3vx2CDHg/aSh/VR88HP5E/lIhYjHE4OLcY8h02uPx1bNvU2/sode668fePQX/7O+OU5y/ki8e/l2mFh5C6otvgXomJ1cqld5MmUr+Fkg67ZndU/RvvQ/nTnAvmlcP3gRd5+gQ63u7pzfsymWGdzX7MT75oNfSfjj/u4j/swezFaMDn3oC52z8Rmf2R3STd95FPXT46//sawfsPd+cpHfZa9qjByh+5M3uxnDrKz9RYHYQ2PvnRxpU2f9Emf9GGvxXJx7vy5N04m7lku9r1crMjYNH7NDX3D1jnIN5PaVZ586n8+9oP3Ds99wG7W8z/LZ541VjrcNwz6zTmyd2fa9/CT493NlTt7bZqvbCrmGcxsz7ZjtWtc//gf/+M3fL5h8HpJ30rA22b9hOCxIe8kRmJOnOnLtRk9fCRf+RbjmtHq9Mmf/MlbYu+FbKBL6AXwOtXq2AQ+SQyvVEAOCo3Pl08kjq/Sk625a7CTrdcD6SSUnbKvAH3lFNUZbjdb6f/QD/3Qpkru9VBNyHAht9TZomLH85v1ytf4FvDhY42x+h3pk8fXeMnj6fEpW/NVn/aV7QsHz9/7e39vOxlM2xkz+/Re2Nt46EqKTfpbefHLecTZ0dl/vs6G3dciMx+ZccZuPpPjwGJnPBifyuWZ/nKsdTKU/b3cxRDcc2yL5fjy/lUXcPVnOZzEvYPQJIzCRp/NlKe/l89Yysi+7l13Hf/60zHlxLb2Jx8THgy+ju25ovA+BZvYxbmV87WodDHqa0B93eK6WOQWzPC7GAsr38pHnA060t8qf4z2+Nn7ifV/J8Eww2sz3n0duOpnnFsxHNmLeaSbcmPbic43E/6xzpixhd24Ul7H/YxxNte0m+U1Vrrk6o3hKSOHjWzKK9NZGFlkODdqI0p/xDejh4/64Cznx7ZzWX7lccdQ2eNSvpFsgV8+OudXd+zcDY3WOOTFfCqfsdzYcEzJbazK2znIXVnYYJ64LVxtyCLP8YnCtWJPfpZvwR4+ioPnm07d8WWum9joXcxqAx6x11b7oTvVR3H5lG/ll3Sr7VpvDeaVVs4h3fhj59Ev58H/8T/+xwaZrDmaoL4wzuhW7OXanId9fvEtVkZb5aFzL/Gps7M1QjCbKzzPcSIvSkZzIlFntweYrg7JLj7llV1d6JB3PLxINbsOOl8J6rw6IW5HGyD+pnOSes8jJXdCT1ZnxYs365Wv8eKvMVa/I33y+BoveTw9PmVrvurTnszGz4Tg6xEHjC2im3GT4/7lxL9XIH3fvivXrXwL9PBRviNeXItQ48BdLFvyOH+YGjfik9Hb93TKyfI74mfx7eGeeSxCYWqRXD6LUv3JX38WR1542b18+XKDkU9xN+HDx5ST3VsvHg6HzV0Li2DPPLnznE6Ovf6sf9m5i2phFPF5Krb65xZeTj7wuZPrpOfkNzGFEydnX55iHPF8j/S3ytd4cLjDb5FZrGljfNk/H/VRH/Ua954dn+T38rMx+qYErs4hfOvTxlV3TOGhuxdXfpfwlZutbc4T/JAxgthmr1785C6C3ZVGPT6WzRHfjB8+inuW84Or3Opy5K/uYtaiWH86j9PXFnpj3oWw+TN8+VdnV/mpXCwUBvHkNofXFuegFsUWefPbh4lN2bOXYVKfennSneV8UHHw1ZeezBrDOdL5MpvVjzwde2OrOXPqinmJ06Hi3cKzhc84gKNjzDjV/9ZCUfuC/WxT+claqBY739W++uabEZ7iiBfYXYJ3v/vd290xtm2uxL/kS75ka0wDqvh8NbKGKJMVs/zq5ffjCy8wdiVp85WSr4W9EN5zZGTIS1Y13l1Nk6xnWWZsA9ZB558M7GwnPDl8hclOWxBsYrgCSxaWeHhnvfI1viV5+FhjrH5H+uTxNV7yeHp8ytZ81ac9WfvLVZyX2LpjMWPNmHtl4+Fd73rX5iMWKtetfHN++CjPEZfH5vkbzwbZj+4edgexvPztZ3dFyYrnIPRSXnd+ETl9NvmvfDN+ZZ/fWT5j+8GDu/nGOXkvQDa+XTl/6Zd+6ZYqXDi8novigxwX5PX5Jnz4WDHfWy8e7piZx7rF8ud93udd7c+w8bVw7SQtJlxPxab96BYuZ/b+zte3Pl/wBV+wxYF34iKsrg35XcO9BXvlW4yn8BkPBliMaz9Qgzlc7JxU/MuZdvVS+Jl7xprya2060p+N4ccvzhuwNw46mYmhDX4A+46Hmw6zz4/ynpVfwlfe+OzHWZZr7v8Zkzx/d+rMhbdgy/cWzrY7iPLLZ4M53O4Uejl6f3NN31jxVbg/avF6Q+fR8IqLZr3yU7m4sDYnGKd+6GW+s9/hdg6yHvAtJXyTahe/eQOquDibe3GWqzx7scLvUQaPHsplyycMeO00xtn3+5Xk4WRb+YizQUf6S/Lywe7ir4W9G4ouVJzz/cGC9ZJ29FYi5Y5PvupiKRt7E89WefioH1ZO/zhTv7JcDda6Btn84rJfwVqQrnY6Fph+zQtwz8L84l/8i7dGASxW/nWIRaQN+bGQHWTilE8nKfvXiWRysxHLwfVFX/RF27+deI5RbIsKNiZld2vQe9/73k1mkQSj3CYIdmR+UAG/A3JtmzyIXOzwayNdbd6MHj56SLp6PrMexnKJWR+woxfbpt/gdZAiPuxtYcP52KJ0+ezxbOPhUZ/+lePZlxO+fOH1jE6U/FaefzlXnl4+sd09MV5sFs82MjqTVX0Da78MpPMPXnzEd6FTHvGVj3CXP/tbOf8VNxksSLxi9t/I4WbTcaH9jpU9OsJ+q7zY+YVt1rMxV3R86nO2cCPl9oN6/rOc7Czni+qrS1zM9MbB9PNAPl16xyOs+rd/cnER67GgSLxrONleszmjzwa+WYZRPXlzg5Ozr7OdXMzF6rY9Kt5TebH34oQxG3NtY10fw99cqmxD028vbjZn+CUbOjiMi/pSOWz0UTjUK+t3dxQRf362/po0uyO+Ob7yLcYZzqaY9duK2X53B45dto0T4+PzP//zt8ci/GuS8+ik7GeeZPfyGV/Zuc2i03x9NE7lMtbnedJ40Q7nG/uKzTyun4qvMRgv3sTfDa5kbPU1nM476h7vgWuOJ7Ha2BT7Gi/PNbs9fe2YnJ26NVCPXnZDpnmbTYvN7NcxVr7wzRxk1ZU/ZBGa4ohzcDcRuXp1l1Jyf+Pk7guZ27iBdcfSotOi0Q9VPu3TPm27E2kRqBEmcScpvzYVx11Iz47auksJS+/vrPF2NP8WfmxscHhBvlW9xaRffZlwyb1mxTMPTtZ2Pnt/ewi3uwImQXIyd5Q8z7Y+S6jddS5/8VsMuv0+/06Tna2/VlRmw95duuKIob8MUPkddGx8HRKx8etLObVbHn+JiviEg6+4xZBnj/iwEw/FlcnTkXuGSX94KNzBpG/p3/PwcLvNCdlCe+LQHn/Xys+jGY2HmaucZzlfJPceJxMLjpXIa5O/0TPW+rtYtsapX2S668gWblvPFs+cR3jLOW3JztTZ2K/F5lcZVnctYHNCcHy5oEJf/vB3oyY3Nh0jtV+8cm/GDx/FfCoXT2xxyuc5RBg//dM/fZPR6UNErhyecNPNv+0MF3nlWzlfVK5LXGwbG30YGeN+LAW3Z+PMW45Jx5mvjs0Xjuuv+Zqv2e4mufsrRvHEOcJ9SXfkM+Xl0e/KNpRcf3aXU5vgdvzZP76m942AdpFZcOzRzEd/b50vXMYiLGFurJPRm2thcj7x6Aw7Cwx3+OU2R3s0wnxMV6x7ceV3qW105cquvI5HZCy06PB3xeZBr65BTtwWRfrf+UwbHLseF2tfsQvLyukQ21s4jPo3H38pqh3eriGHr6r1rWf2zd/+VtK8Dqvx7UeR8NI5DjznOCmcZJWfysWCUVtdKHncyKbPjNvk6h5J8mwlbM5v+hf+Yrzj4W65m1HtK2uE+vBenFvwh4/ixItXHT7j2P+vW08gnJ0+xdX72072NufWXomkH2CuP8pxxLckDx9H+ktyfYQ63zm/uNts31svGc/d0NBG87YLKzH9nSdyDMwxtwkfPspbvT5aOf3/9b/+1//6fxQ8l3WNBG7nsq2z8qOXpE1Mt3T7aqhG406aLSbZ6/T04pE1eZVztWFXzmzIIgs7i1lXduJlW1kdVcdvoeLF+VbGbfXRGju7o3z0KD994atj/UaWPF6+6sUl1zc91O/qstjZHPEZS98jMv5Td+SfPJ/qb4qHqb6QZ8qUGyds7BvPGeFob3xtio/Ax8QlXX0W/iCEe55osm8fac+qz/9N8DkeJm7y+lT7wlRb17aFbcZL9lw8fHs5yGDDZ3nmDnM2dGTFnbbPWS6+vGEofrL6uP2v782x+OrDN7/ivAkub/nr2+ryIzbZkYU/+7DTTVn+bwK3mOLP3JVnvtqy6ibWGYe9NrwpEr99PvPOfFN+VGZ/STfjPUf5Ur/oW1gmJUte/1evj9s/0/c5y/UR3thMFsbyTYxsGudxeltrIzZvioodJnnItKE+U0+vDGe6bnrkg99Dr+62Pja8ZJc4neSA2pQReWCUnWyAtfBx5VcDAkk3G0Sujso/fZSLz0YZsYUDiTnlyh5g9vJVNuozNh9ysuKwIcuezRHlRz/LfJNpU3nZTFrr+cTDlk/9FT7+YqNy1Idkxa8tbNrorxF/fWpDEw9d24xTzikL45S9qXJjAI7ZT2HFa4+ycWrCRuz1X7bslFF8q7yhD1gm5rCUP1z4XMzxqd35hJ3uI0EzT/sbh7X+bdIig49PtrUtrOpviuRGM384piycKw620z6f4q72z1UvfvnEhaO+C1e42blo5bfa8CWbscjeBMk/81QnQ3Ag+Bu/6uFLn6x24s9F5Zhc/FlXTqasHfDaojBpm62+n+3veMjnuXl5xQ1n7SjXrE9sypNmffpMm+cq60f9Vx/OuPXjlJkD2cI4cSrDOvXT77nL8k3scocHblTfwZuMDYx0ZPmwKd4tWMtxCy8nn7b6tDoM7NTDjptbEDmf7JVvoc0vh5wvcQ7rVdYEwdfWgemZzjq6uBpUudzxI7lGy9PO2YA/1PF0YtSpZMq+lvJ6D3HVyx1m8lkW38lyYqZHK59Y022Grz6mTF6YEHnbrCsXEw9bcWo7O7HSTx+4EZ8p34SvPtbc2U8bZf6zz+rn/OnDscYod3L12nEvL9YlDi8KF95GPnEpz/Gg79LzMc7V267hFh9ds9vTy9HYK18XeOp8apMybLUV7k5sc9zCwnfSXm76W+XTJ7wzV2UcbvG1L3zlK04x1PPN5lZezCNePHn0oXq83HxRfcwmv0fN42f7JH/S7I74GZs932Qr7jDDoH9nP8/+nvsBhrCLW2xyVP2pXKz6EJcTh9n4Tlee2hIGNunIotUvm1t58co7uX5EYtavyvWbY87jVXzCg2fPV509Ype/uvIlfkl3xre2aEf2M6Yym3BVx9Ee1uSbwauPYj+VNzbqS/FmzLCGt3bxq49BUuYnTj4zDptb65d85DBOO1/IT4ZqS5jCtSlf6cOST7rk13j2+Z/l/KZtGMlsc+6oXHtgSqacLz5twoYftWPTnTEsQADVbTo+ADNRjQO0EyR78uyVDaRsa4C6hrDPVp28iatY4qejJw9HcesU9WmfnH2+4Z0TUHFWvuaqXrzJtaOY4rRlo85/bnT80s0JuQOQzfSpTfnRT2JLZ1MWG8WVyePkbKN8cTr5bNllWwzyxogyupff4ls/wDG3DcCrD3JYJtev2kA225jNJQzFvqd9xW+MqM/NuEwnvkcItBFGcnrUvsiXTDm6Bxvf1W/K5JSj3HTKEV3+ZOGpn8nosyle9Vt58S5xumjmJoMvjGFnA2+UTe0MI33lI37G5pJvGNhkBw98jrXGCt3EV5vWsVK8yYv7VD7b2v4O1zzWpl19jrMJQ/inbbp7eW0u9uT6Sb3N/IvCXX+Xm45stpPOPsDtm2lb+YiLd6S7JA9vHJ72+YxJ3/ggV5+8dpCXb5Y344ePdE/l9as48uzhhtdGx646e1v4i1H7nopN3KMY5Q7PioNvmMNdvOr5kqPslY/yJmeDZt4z9T2biUM8dRiLPdcgyfJhV3+LveKrvvINh49oNVjr2fkxhAdwvTLJj5HYediZzIO29EAaWB28dB7A7ccKYvnHI3W+GuCXbfw9oJ4sDOxrZHZ8xc3Wj6bg8WOn97znPVw2bH50Iq6HbbOn84A5e3H80CCZ/OQeIK6zVx4u3NakJQac6fOjn7LkuI3OjmxgrnIx82lSyUfOWWar77OnR2yKo4yyiSePs/fg9+/5Pb/n9QPMXnLs71f96Ky/vpSPbX5e7aBf/cuJ/R6V51Z+xl9uccPAxyMhjQkvRfeMsB/PGA9+sBbB7s5GY4UefjT37RHu4hzpL8ntczRxN16NS33rWCGz6c+5EC22h8ZhVt+Lmd1T+WwrzPrHtx4dS46xX/pLf+k2HuBovtDHjV0xkvPzYH64+dyLUdxLvunY1d/GhIfyjRUym7K+/O2//bcz3dqCv+dhXvEaIW20L/zgAxX3Gr/FdsaqzH/i7tiqb2HSn/Dt9aM+/y2/5be8Pm5nPGVUrqfyx2iPxw98yJxhfoXPjxu0xXweZnN0ecPvxzJ+kNLrm4qb3b28OPXn5OF1/lKWw+Z3DsaKftaG5MaB8QK/H9PkL6ax1HhpTrmGGbZrNnt6fVY7lP0QU07c2PU7CT9WgsfW+OVjcxz6IZ794cc0XhcXlvbHJrgTX7EmVxbbPAefcQEzDPrS+ecrvuIrXmMmQ+YSfqh28bNvyOuHvX7ic1Z+ybYcuPnX/pe/PyXoh17kfgxrH0Req8cWZsdE6ybYGz/XMBZr4iC7Vi9u/afuh0jeLsTXvAKbfeDcPzGJ7xgwfmDvh3r8Zjx2UflWTv/BWxYPFQYCHfECWpx5y75foBfUr9R6fxd9v6KnN2j8ou1X/+pfvf1C08D3q6p8cLGqyzNjTEx07Pyzhhd6+3W2ul/E2Yly4P5rtnaIBZtfg/r1ol+Gymfx+mt/7a994d+fDCA73oToPV9+Ye6donKjlRebjh99NvXJ9NuTTb3yns2RTK505RUDrVhWPRu+027apCuWPrHo0YdenWHweRm297hF6+DzRoR1jBTvHl6ecO7xiZu9Z4Id6F6c75e1Xh3mPZxe1QWvcSJOfvbjOrbp27+XcJ/Bd+Rf/mKY+I3Pdzz80tMzzbAas7M/+azkOIC3Nq16cvRUXtzywPIJn/AJL37ZL/tl2zGm31++fLmdJOrTfMKN+z9zr86ywNbG4j0F4xnfbMLiYtrfhkZeoWLMe9+ptqgbM+yd+Nh6tyn5rX1Z7nt4PhO3MR0G8xkyp5HtjVtv2bAZX0dUvKfy4ocDbpt97oIwvP58BGaLDb/gL2/+3/M937P9at4xPCm7e3mxYBJjj5NFbGA0LpT9ghsp69M5P5Ih8485U5stlOZfINJnt/JLutV21ideZZvzmcWQc6LzmjHzuZ/7ua9fFSQXyl4/WxBq03/7b/9t08lBXy7Cyk/lW4JX8ZxnjE395fhCbg4kczxG8ESdo8xB+nvqngPfUYzyy6dvmzOS6z/viDVfeKvND/7gD6Z64Y0KjRkLwEtrnjP52bSPrvHidWwC5Y086nzNx/YB6r3ryvmZB3sfagvr8k87ZZTfyuk+uBcvGObIAZkoIr+2RmTKtg60bBysAHuVCX0HL7vs5SiG1yrR6QwUr0xXrPzZWFSQ2+kmi3D73212bfzp2FsMy6eMTIzZWYSWe+XF3pyWj6nLb5rsyegvyYt5ZLPnzye/8lfHixVfbao7STjI2bk6ckLuv+OzWblX2yA+9klUrlt5sS7xcuAmMBc/FjgugPxPsnFhweEFyPaxu56ofnIAGhsRm/rpGt58rtnt6edEALc7Jxb5Hv5++fLlhmHi0p/TR0x38zqpw1KecE1Zunv5jKl/YHHi0l++hXDCwOngcoGH6sv8P/qjP3rzcXHof8MnPQXbNV95pk3/W1/+3lepn43z6vAbQ16zoq2OA7JJMy75Wt+TrTZH9dUXbgsK9rbuEDmBuFORnB8ytvx7VT8qeJR++OdR/lvlRTY+kL6y+NF3ti4C++9qdhYR7Gzy4U5yTnpeL6Qe3YpntS9OMVdOHwZlemO146/3H+tv8x1bd4bmuOBjzsynC/cVy1qXD63ys/VH7xcvPudzPmfra4sgiyT73tiA040bfRqJPedHY915tJzs9srJ7uXl11fmandi4TMHqofZ3bmjsesffzqHe/1UWCbmZLfySzHCjlv82s9w+/94pP/0I3n9uSkePrxj2NrDsdCapzHIRvka1mLld4YXk2/nETcG3dSLisN2r2zMo47t/KrPHHTVV77pcr5kmGO2rlp1uMVkt50BJbNF/MhtnZT6P+lsss92xqjxcT6V3RlyZdl/m+oUMVzxuZrKrjzuEmVPV5tcjZDP2E6c7o5OWfHi+Wcz65vjq4/sr8mmfi3PGMprrrWeP/meLllx4/lNztYk+vJhMWQhaoE0r0an7SybCEzY/VNRunLdyvlf85k5LBwsfpwo3I1wgoa7/9A2RpzAJ4nvYgnuxrb2G1u35Bbzmv3UKzcZwG3sOUHoux53cFXq2PCuQfsgf7ksPv39rInuEuXzVL7mEK/j1kLHOCGzyA9XY67JS4x3PNzpZesdwivdi1Gca74zF9vsw6je+xHd9U/PzyLCZvzMZ6SKme0RZ3ekuyYvRzGmvbIxY5x80zd90zbe57h1gv6Wb/mWbT+5YKitYs1ysZ+Di4Ha5/L0lbq/NnRskvXf1b34n2zF5G6YE+WUz/bLc2udDyrmyh+1H/yk18fOF45NRGZzXmt+nK87tPCwselmCL9rWNmga3ZH+kfvF1t/szG/WBzBYmHnnaDzorVczY8W/Z5jZVuObIqd/Km8eLi510LTO0A7z5hbyHy75qaCOcY2yTnq5/7cn7u1qfnxqbjyl6fyysNAru+MDbinHczmOHNGZDwgdz9dHPzQD/3QVk++VR4+ZhyytZ5dfmd4MYrn22TrJothJIaLQedAW+cVfnTpHQO29OQd6zNHefb4ls9HlOMRz66Vu39UAHISIAgPtHrlYmeDH5HOMaBsFhE2J2UTrf80tYDUCeVya9szLesAtbBg72X48IaRvZOk+FGynpXJduVrO6pnV7z4GXkx8jni7KbtLK8+UxeGZNXjq686W1fRBpqB6YCxUMonPn3JfAXO5+XD4nWOkexv5eLf6uOOhLuenodyRdodLZOBf4To4Am7+GTujk/c5Ndy34OvmOWP6zvPY/3CX/gLX49Xx5xtPebEcEw4qfcf8k3CxYuX76l8jTfr7kh0twKOcLFRL/f0cUfv/e9/f6KNZ3cr53zNZ9psyV59zONCufq0UTZ++iMIJ79Jt+S+Zrvqy0M+sYXV+DB+zXe+7o7YG/tOjhZKFh/KneRnLD5r3nvrM1ZY5DKHGAvw1hbczQ0LtZWc3B0PLs7434tn9StP7V85PVny7HHnIM+9p9MW547mx2krb9jf8XDhhVYsaz3/VX62zr8LW5hcELq7GBm3FpmO15WM7/4lZ/qwK/8sJ7uXF2v2tYs/F3vmj8jvCz7rsz5rO/6ay9P1TYxzVBcB9+JZ/cqxyqvTNw6UJ26Y6dZ1CVnrGDe9Wpe0z8RB5Tjij1YfzB+OS7xY+Xa+cKPOIwPmBTbGszjOK8Xjozz1HpdRT85mzVF95Zutj2g1WOvsrHTJXbG8fFhgIHUbEDox2QSVbFO++tiLn4yJd4zaObZW3e4EOeBdoXl2ziDlI6+vyRxwJocZx63uaR9GD7vD6H9ys+8fDro7Q49Wnv2mHHry2e7q+Weff7ZTny5bnGyVz3r6GWf1L1fxso1nv9bJLSwcUK6kIzlXW7L61+19PwKKpn1+Z7kYZ23lQU5e/vnGBOUOBrnNHSxXrF7flQxmmxyuvMOtzuZabvmu2Rzp85UH+drJ8WUsIn42MotQNDFZcLhT1ESGl2szfvWR7KlcODGKU45k+l05XI5Zdbj0cX3Oj61/w0GzTcW+lYtzyac+zob9pPRkRzZO0hZzxomxle0Z/Nneyldcsy5Wx5xyF1fTxjzpGT8/KOxOkhO5Nk47/rX7qVysqDxyuSD0qJO7h+UwDszTiA15bdLP7pb2l5fTRrkYt3K+qPavnC4cdOH6mI/5mNdYs/EMpflxPqObDu/bNmV0Deuj1XW7Nc7qp66/LTg9WsJef3p9oYv0SfW38W3/mG8sqGo32/LNcrJ7ebHqf3ds7e+Jz/nHXO6cbS4vVz5iOMfbB9pHrz14tvdysdGRfxhwY2PihtXm2zjrEpR965hv/dZv3eZveOnkwSvzOcpNh4p5hhcrP/vaNyXmaYtQ/5Lk8S/nH/E6r2TP36OTU083aeYgr75yusezntIDrQZrHaAGar967ytNthoyn//qv38dADrcAtbfbamzV3dVrlznmdzdvkb+gtNE2db/yMPg6/hOAPS+PnDA+DWrweq5F7HFk8e/NpEjdzHE8Owaufz+O56duzJk2lcn8wlfnI/44a9Nbq+bkGqTq4v6TJzpI1Z9xqbY3a1gj9hoH2JjCzcZe/1eTrLyKCO6lZcvvhk8fJQj+xnXsy4mCX1VzPzlhKOxQf7wj1yvTx4zTj5n+cRwmd4yAABAAElEQVSmfOQnR7j6G71syd2R8Etu41Cf6zv7TP/C3X6YuPkX44hfwnTkM+UTd3cM0zd+apcLAWXHl/3guGhTdzzwzf9s32V/jYs3MWXvROsiMD0cJrT++k0dbv1dW+AVC68sXjFv5XJf8ikvu1nOJ5kTg2Par3Lhm8ekY9qJzh1z48lJng3f4hxxedGR/kgeLr6zrF7u8utHJFZzg/lX/9vccbSRsVnjHWG4Vb6BePgQX186xswR7moar8jcJq5jjw6x1ybjBOlfGztzK6qtyrfiyp4vqv2Ty994LJc6X/XmuPAUx9xo0xZ9n72+/szP/MwtJtswHHE26Eh/JOcDX/2tfz0KZxzrQ38pSd+4ZY/gdd51/Jp/LEBdFLBzXOsPVN5ZTnYv3wKP2PVz8nIVP7n+tUXtJ8cmW3W487uXl3+PJ5Onc3R4cOdL/egOrvWH513d9Ip8I9c6xuMGLgDEgr32sD3CXhy26CwXzyafvzJvbvAtnLGKrI/II+cb8cNnvdXcnjzb8K715HH6x5H1ypJCsCPOzFfgv/f3/t4NiIGqEx2Qvuo22JFJ2g758of/GvXf4RZ9buu7w8O2honlGSFcXresxdDIZA5ysciQstfWeIZBLJ1A5qCzALUI+sIv/MKtA31972t4z4pkr8Pl4uNVEH4tb3JoUSKGuwWu0n0NzRatXB95rsaBzUc8B7z/Ie//yfnoAw9/uxpyN6ITWFdzf+tv/a0thr5051A8C2xlgwD51ZpY+ZgwxPUaHDh8dWKicBXGT7k8YoSd7aTk8alrIvDLOF/3+jrH5OrkZZ+5y/Wehx8MGMQ/6Sf9pO3Kuv5w+95+N6G5e2HBjBpXyuU8y/mga/Zy2OwD/WAfa4uvFkwAJlj73JWc/eZkaMx5IN/XInTGXLjF4h8d5T+D7ciXfOL2dZJXdiDHlVdJWVDDZf92cdfYapyIgZokjMmOG/JL+W/RT1s5w28/G5uO82T6zrGJsnWM6G+LEeT4dEyHO1+6WzGf8WGD6i+P/ehfd1L8l3aTsDnLHRlzg3Gj781l7gwg3Lhifxbn5vjwcdY+u/zwidtdTa9I0X++wqQzl1jAmR/NJU7K5o76f8Yo7tSV86lcbDGMW3Ofu0H+2x7BiszfvhqW3zOizgGoOc6NAIujd77zndvJWpvYTroXZzFq++TrsaNOD6t8xrRzlPnPK2zMGxYczY/Gi/mvOZm/4zjs1zCH7Zrdnn7tbzZw+/oXGbew+ura2HbOcb5A8PUjSN8+8nFnXYz6ZzN8+NjLTXervHjmCufs7rx5A44LPeQcRO4cFG7zoEWy+c987vxL73hYsYpxK67sL/mms3+9zghZcPZthPOnsSCWeQJW5x39b/xYa/B1HtJ++w4pzzaEZeWb8cNHtme5+Mg4LmYycnOx+Y/OWgjN8w197XVXXZ0/+zBsTq8+yrFy6v/r/3kghfU5SrJJOesknVZSNsr0dIDYNM7JtP+On/4O3BqfvHg1oBg4GZLXbXk8osumcngsQiwsvBePjh8up/zFUS9/PH32K5c/W1ys2l+dTzbTn+/ErA5DNupHZX7y1G/58YmmL5n6PBBWu9U+nxVjfnj5Z1mciB5O+9o+EwuV61Ze3DN+bCe+fHH+YbFvULbtt3twi3MGm1yrXb54WPD2s3L7PVsn43kMsU2mz7WlsccHrXnvrT9Ge4xXeY4VeG31bzr12qJcfrK1XP1Wfqad0yb8e7Jy1xYchTf9Jnz1keyIMzvSnZHzD4fyJP7mocYFXbZ01cujPsubwZClu5eLZ9/Dg2BpPqhO1rggU2680Nnkzz7bKXsKvi3wzoc8nS9SkznGHGvN9/DtUZhqnzbxR7XpEmdXjFs4XHO+Da8Y9euMFx48ol8J1tqCoxnnUluu2c1YlXFU3Mp4+MKRjrxNP2R7Lf81fXHCsvL2Lbl9rB6JHU28ZHTTV71xRb/m2auzu4cmrnI2vhunxo6xJG/YKzsG0MQ0cYifD3n1lXt04YM99Mowh5VzXgMkY4sCWNlVrldETDAdCGRzZyWPl6tYONn0ySbOBolN5irJ3YuJixzNOJtg+Ugf9pXPnOXjM3MJmV/h04dj2kzbo/LMy3fGmTkq4zNW9jPO1OdHlm0xyNqyw9lN22RsDWh8ypSTneVbgJN+xVwxFSO87ePk/OjwiZu+mEf8jM2Rb3J4wow3nsK7h5OvLd8421l+DnzhnDj2ZPT149SHJ506YpMdXbJ7+BmfaaMchWHWycKbfMWYHC/GET9jc+RLnq6cYVv5zFOZb3b5J6ue7XNwMRxH9nP7upMXHYInnXptDFcnxGlbG9jkcw/fnB8+xEOTw1SeTfnwIV/zQjwdnn8y9WLEz2IW46zttIPLoiJZ/acevnR45XTlTZeevDYoo3RP5Y/RHj/XHOWRY8W4+k1b5dn2dPfwSz50KGyNGzKY50Y2iQ7GOf6LQ4eu8eLld5aHiz8f9XCkc6yWPzt8YqYvZ7bFYxulWzn9hyxCV4NZL1FAC45nl46tsve/9UqO/NlWjs9YZGw0tLjpV/upT4cXwxV4t4zLm0982pcHn3r1GT99NvHs1I8OADaTpu+UzzKb2hQO+uTKU66+Unkmzyc+faYsn/QzL9m0zQbPLv/qdPmc5Wd82Ewq75FM7mlTOZzV+V/DecbmUow1Z7bi0nU8zGMsfGzJ42yV6bN5Kr7przxJjomXbtZnOfz58+1YSTb98z3Lz/ju5ZmyWS7vlClfk6df+fRdddfqE0O29X37mVx51qdf8kuyYj+Vl0NOsez7xnE41hzZ8s1Gedoln7LV5kydDSre5MrizxzJ+Ey5Osq/8qxnvxk+fFQ/4uyOdNfk4dTf66Jf3PTK0cSaLD515aar/FRenrh8bcnwcKx82ky75M+B7yhGOSamytd88o3z6/hIdhQjeXblPMOnbznFmWV1dmQzZr5zzk7PB6ln9yg5Hiv0H/J1fEmvcc9P/cAP/MDr5x4E8sCzZxz4es7Ec0ieielZE8/2uCs5wXkWxbNLdNNeIyxe2SPPifBzUHnIdzZ6xbo5jI/0dUz5Zwzm6ZXLlS3ZSsVNzn8dQHRTvvrk+xR+Nqav41H9d9aPj8cq3NXWFvvJ80Wutj3b6x99erCabeQZ3Pe9732bj+fsXr58meojxr1qAsba2rNnZNril5SeR6RHxqvxqG6bz/q9adCNE79OfO9737s9Q2c8ebbIuPdDme/7vu/b6uRktatxZx8rezH/Ox5eBSPmR4p8deOF3b3ypWPa85Zev9S4W/HArB2eEZzPYK92b7LeOJHDc1Ce2yLzJw3Grr5E9bdHlxwPiP0nf/Inb7pN8BH4gENf92y9uudZzZnGr7nY2A0vSH4Z77kzY9y86ljoTRfT7k3Bl8OY9Ze/OGpeME7N8ZEx35gmm/vHOOrrw+ca37V/cnnFd06rP8lQ5y1lPp5b7JV++nX+OpoN/H6LoN1HxwG75yKYkG8CPROMzAl+dIJmf8Lb/O1RCbpeyTN1m+NH8CMsvg6GT91x55j0GwsyushvQRwP5iF/fOE5xvZnNm+aGy9y+r1EuOX0LLT5wrjVp+sbB3om1zia4/4WvLX1LBc72/KYiz1T6/cIvaKLzvG42q7Ha/r6oJjX+Id9Hd9BfY1L6KHlmdCDwzrTc5jKbDTKpGdrITlBsaNzAIvFXgwbHaLzLk/khDYbTzaxViaPktm5qAkwfRxeG+JTOf3kdMVNngxvo0uuvOdDfkSrPbuwFXfPZsZjNyn74tCtNtNe2QFkckJzApvlTTk+/sbf+Buva/ZrVK5bOf9rPuXAnXQt2vh4fZEHxE1SttpijDUu+PgxRHXje9KZ3NdsLunp7BP4TLbqHWNwGLc9sN++Kx69Pn7Pe96juFH7uTqe/VP5Xkx96kc7ThZ+xDb3OdxoxeRY9oJyJ0sn+/YL23sxnvFlE5l/vMS9Z+JhbOyYh+Y4pmPv1XHTPqxiVj7i5T3SH8nzw8MBC/v6N9/qs78tQPWv/eMkaZxF046sOE/lxcflEK/jSrkx4rhrbLOlm5jm/qHvRP1c+Mo1eWX56k9lZN6Aufzf/M3fvM0vfhjjNwiNDbYu4OmRmzedv/I94uyPdNfkfM0X8ESN43W8p8fp/K2ktmuDMYPKd1ROfy/fkiwfxqq+apzCY36BEVef+fwFsIWoY9ePOZF2sJl25LfWL/nQRZ07Jm54zRfNbeXOB0bHgeOCrnGX3TU+4yjnf41PW2WYzQsIZv62jlfyYrYmg82Ybv3Gpj4INxmqvvJNt1m8+lgN9uqA+HUaUs7GS4ZdibsL6pdqqHdNebcXfQDp+KXHHTT82LqL4teG4nt3lat8q3Gvg1IvpzgTg/okOsS+TX36FGvapk+GV2ZfudhxbaDLZuYsLx5lu9qln3zaKM++ZFesyvnuYV11ezZrPFcs7q584id+4jZI9/62k0+49IV9xseiJCrXrZz/GZ9sTEb9LaRf5Lr6jLQFtrno5GcChtfdCkSmrytf4pd0YbrE5aG38HEn7jf/5t+81fPpyn7Nk58TpTa6mn7Hw507/R92PqhYT+WP0T74KY87oOL+ql/1q7a3EDQH9MtKNm1h8c8+rry95cEY6YST/h5+xodNfWPC1eeNb3djXUh744O5bPaVMh0fd2KMIbxYZ3OfsZt52U+iMxeaJ7uz5k0DcMTZF0MZZj7eBOEX29pMb5v4p1/+93KxUPFxsRxjxrdFEpk7b0hb9Kk5ZOaEVT8b2+yLN23431rng4q3x3uDw8xrbHtrArza4k0g3j7g7RvaNBdvxrTFEex+/e/8ha5hPWNzFGNL8PDhv+LrUzJtMA4av7DP8esCxbdD9oHjIZKnviknXeWncrHEL46y+WS+fqlvWDomm28mDm35jM/4jO1bpCkv7r38Uqxwi10fTdz6Wt23DubGeR7Kfv5BQxjlRNWP+KPV5THMplxxMjFtjrfOH8a7t2sYAzaUD25j69f99Mb0epHGJ7zKqPrK6R5vDyo90Gqw1juxueUNjOdNkqnr6BYhfMkcnBHb5D2r4oRL3q+wqpN5ptMtbFcS6t4b2msD5OlrGa++8OJ6B9Hv+B2/48UP/+E/fFvZewmrfCYCtny8vqmX09N5FQ87WH0N6uvQJnKD2ru9TDpuqSP4UFfC/p3Ev/IgeOG0iSd+pL7K6NjY6NBqRwd3NvTiR9OvvO2XfHDbSnynDX125SRj54rIZGvxafDR55+Nethg8NUDOwuR8uRzK5cDXfJ7tHi0efny5Wtbj4Q4OXh3rBOeg0ZbvJrLWK4tTurwe8WQ/V6ua3nrs+zv4e07seCbV85zf8LSvpEH9dyzuy5eTeXVJY6njtPN6OHjHlztt8mLV7txm8WNxzXs71655LiTF5aOef5kdL4u5Dv/OED9XqzFvhSDjf7Wj+6quINsc0w7Mb98GDvIePmqr/qqDYs6TOzdMbA5ubBvTqBH13Lf27bi417ujpqXiil3W+OEXZh6FZw6fbqt8OqjWE/lwslhXjYemxvM4cg4IXv3u9+91X0N+CVf8iXb4l/utvaPE7q3rSA6VLvu4VuAVzGKFYe7c8a0kwd9+cMr8mzOLca21+6gD3zgAxsmZbY2P84Vz/uJtf0Mdv6I7S1tYysXP3OB/sWdh5W9Rs+3QnvjtwWSbyW82vCzP/uzH0E8fIqLwjPLye7lYoUbdyfTXNZxld7cYtw7BtmVj945O5n1Al2U3b1cnCPfcupz48BNtIlbf7sIcZzSt8gTk69946aeNYb50ZhLhx/lTb4ZP3yIhc5ytmIg52l+HvHxPtkv+qIv2sZQ58GOW21Utpm3cWM6f/poxVd95ez/b8kDXoAjvhvg1UEiBn2AxSj2lAXUxDQpGzw8dhpqx+RLlj2dW8J2tneWOnmb3Ly7yjvbTBLi2cH4H/gDf4D762e63ArPxiLSIBHHi2PdpYHBCdJik50rYDk9X/OOhztO7piEa2KvDVuyhw/1VZZOv6H6V/zal4w+mTJKV+ziZFcdPlv1R+8PH7DJ8YnVxOl9iBYZrnzcUamtYtrUy8vff8dbyInzKZ/yKa9zF/dWLia65rfa2H82/zT08uXLbcGmLa7ktEO/iNnmq2G2/jFrtufWvCuOa/X6Ub/1r0h8XFzBP/OvZePFu+l8TWj/mBTIru3vGecavqlXRsXHPXPmOWATWAuFiUE/N2YevT94TBRn6p+C7Zqv/O13F1SOa4tNF6PmEeTfTTwvbEEPF4ziWnTu2fOhP5P7ms0lPR089ZX5zGKB3KZdqAsXZdg9J2fh4c6YRQjKZ6uMD3L0VC4GnN1MUP+CL/iC7e6bsm9VYHPxr0/NsxZ2jYfw1d9wtx/SiXMvTr5H1NhdY8vv8STjwoKoE/CMkw9ZOIs3ZZX3OBkq1llu/89c5jPnLN8M+crV+IV/He9yaZvzsm+QzN09/tb+qO/ZorOYrtkVi519bB5xsWQuc1PINm22ysNHcdVhM9YsYH1zqow6TpSzv5Wf8ZVHn3ofbrj7BtB87hj1CEHP6MLwu3/37972lfMjso4J2yZ4+Kh+xLO7lYvXHAi784ev1S3+jZPmP+dBfVv/4tFaFnPFme0qn/WHOI8JCnjEC5Z9dQ3Ix9cmNpTM1asHu5Ox7y4iGf0kdTH46ySbg0HdAFOfVEfysUgq72ojb75s6gR3QvNhg3rexIGIpr26u4Emc1tXj8UrBzukrZO0b7Z51osx+5Fv9uEkm3GLwb8YycKenO+Mo36NLMgd2BYY9qXni8SYsZXpwupq1EHmQqBFybU8z6WfbXVRYhLrR27a4q6MO+Jf93Vft/VXX59og/FgMkHqk2+VN/Qhl5OHPy9wxe8l+xbL7rBMHI13PNwgefk77J//+Z//hhDuh62v/c+9byT0syv/3/SbftOHjQ8RtAVuftrgZc3uEvChq6372Z5PGu4ivuPhgtIWOZF4CTk7mPoaPnxsXYhWz+9N8YlXTpsFgwsUx+WKo7nM8Qg7vMaGPuf38R//8W8K6ofFrQ9h/P2///dvY9tFvTIZTMh8gWrrnOPg7+5vbY1vTs/8AVO4hV5zGR/uYJlL2DpnGMPGNts5/1qMkPXD3WeG+iHhwtz+NycYH27KTNKftii85nnH8m/9rb/19U2E9kc8n+fk9a/+9A2k/nU+aaM31uHsBlaY4fDcvzvmZG4kWQzC29h6TqwzFlz1ubnPYi7MMNC74eGRIxe1yMUuMs+b4//tv/23Wx0Pb/2xKd7Ah/jGSHk8hmH95EIQGTfuik5q3QajBTPuzyXCPG3PluV/vaxtgB3xzfjBYVKNqCGuutZFaJM3vwZFz3eQGTSoGA0stjZX9BY0yA+UstPwynTlVY7os6lcvXZO28ruhCKDaCX+rirnBkvxJi62fs2Hylv7kqnro+r47DN+tU25TdxyFiMdPvMUO/s4u3Rb4dVH8qlzN8MVtQkiKk52cNvyd1C68o7Yp7uVF+Oa32rn63eYXN1HJro5KRuP4taemWMd41MnXvViV7+VzzFkAjZB+WqnHOln3I4jso6RTj6zr5+KbeY8iiWfRYKr+p7hnhjE0AYUbse2Y81VdwuOvX3AZ8VwVGeLjvTkM4dyW37zGA5zx5P+zZ/9Wr6Ul310zW5Pnyy8TsouXCaG4uOwh9s+8byrr2V9A+Au5BGV56m8+OJMjE52PW82bZSnbc+KTl/lbJLfi3Mvdxjs5zkOyjF9yPQrO3drzcldTNXvbCxCYfUjvMZT8Y74zBOmMzyb8uz10ZqTD7zOM+n45RsvNh5l/1RevJ7NNj6UnW+MW2ShCSeOOk/KbWHqDq+5vd8tsAn7c+C7FsO5zo2pFTdsNv42F91wsfWsME6ubL/RXcuVXhtR9Xu5eXj1fYz8eDfZXN28DWN/G+6xjTDv4SjGGrs6/evbioQ1fo8z7gTnjofEOs/X2eR+FegKRByrY5OjO5cexhVPmc6rWPh6FsKVoR8z0WXjwXl24uH+stIzbz0LaqCFhV5uz/aV+7f9tt/2+pktMb0GxO1wtuqw4y00PSDvyo/Mc2y1w9csrlxevny5/aiKv1dDfOzHfuw2oFxdGvCu6J0MlLXZYLPDwugvCj3r5O6pRa3b8RZnnhuR09d/Dn4TsysmV1G+6pk2+kA7nUDgcLUtrkVKMRyQvsKwKcsjnju1tR23IX62ylvh1Ue6BhfuOUWbeA42X5n4ek+bfNVnH3hWJxx8+ms+V3uoeMpr7mt1PuiaXW3UX7X75cM+tI/J9InnW7XF1R4bfelK0NhD9p8xjPOxX2e/sVlxkKFVfqYuthzyeeWVO7HuEqF3vetdGzdu2Zmcfe1uzHmWzh1Qv751nDlO4HVc7dEZLPyu2bGpf9unHhvw+h3P3n7e530ek609jilkzIT7K7/yK7djwnhxnHkWyR1zbZNbO69hONJvyR4+jvTFZ6cNvnryYxGP3jSPeM7J+HDhpS+d+PobXK8uMX4c7/5W0LxTzPpC7KP8dOhIfySfPvIgmLRBHTd+nMhw48WdxXC7QaCt4utnx7Gyvp79PfMcYTkrL5b49Y1jrr+kVYa7Z0Qtjo1ltua4L/uyL9ueD6XX3+6uy23Txspn8ax28KFVrg4z0lfItznuDOHuAslvjvbNhWMXRj6NY+dFcyF/bfR8Hbte1bSXU57kyqj6Wf7o9cGFg76Gy/znnwMdg8a28W5eNn6dfxonzjX9GJjec/Ltu4mnPGdxXbODUT/htoiffoNDn5rnHHfqMDs2kXJ/N6p91gniXMt7Vi/Hnm246fRT2NXhtv54z8MdWn8765izZprn9/qWPV/zOpm+OMo55ZvRw8cetmm3pw+rNY9+db727a/j0ng2xulwbXG+sQYyB5q3G/Mep0Hs4Be3fJvi4aP6yuk/5D2hOdzDa5AkyrY6ctVpbAejXOnZa0h+6YoZrurs2oli1MDs4ukm56tum3FmztW/erx48jZwwp+u+MnzxenQxF3bircZPHxkG9bwp8fLqVwcZeQEhCwGypd9fDN4+ChXdsnjUz99k7PjWxsmluxv5TN38fZ4dvHyVM9HPbzJ4vq2A8pCpL5Ov8eLX75bOX85Hexo+qvP/Q6Ti52wdQzwdbJOp14b15h7bZg5L+nFirKrPjkdql04WT7p17x8VtnZOl90ZP+offzMZuKYsvo1WXzGL166a/xW++Lxq98qr/iKvceLE2ej3NiePtk8le/lmDHLWbvmftiTdQxkl/+MOf2uyS/505VPWVxbfY7TTxk7ORH5SuEhr3zE8z3SX5KHG+/YY3+GstvDz7+8xar+VF48vNz1dbpyrH2+6tWzfS5+NqY5t3kuXHscrvaT9timX31wDX+xr9mt+tkeZfmcT1pEFndyMdDEpg1T3j4rX/7VV+6u8etFqAdSBV+N1npB8SNd8tUWYFcBvrL4nb/zd74+oKfdUXkv5pEtefbxPdtVt9ZnnD3/Kdvznfqz5bNxpt0sl2eVuYpEFqH/f6XaHN9r5yXdc9jvxXiq7Czm7Fb+1Px7/muO6mwrx6dsL9aUTZ8pf65y8eMz7pTN8rR5K8phiZ/FcGR/JD8b91a78sVv9V/tixNf9W9V/QjPkfytwBmW+MSwJ5v6N1ku98rlTPYm898bO2zxGSfZEd+znbI3WQ7TXo493Sqb9Vnei3dJZhH6+vKo1e01XsCZOB8y1GJWOZkVtpW293z11eLql+0e34u5ZycnKnZ8z3bV7eVYbfbilO9Il3wD9vBRfY/fkq94ez7JsinXWk8ep6/8VP7csa7Fq83xPfzpxEJ7NlOe/TW7LdiJeNfipF8xJL/Ew7ryN4FtzVEdvsrxKTvCX3unT7Jb+LW2Fj8+8UxZ5Wvxpv8ZnPfEC0t8zXmU98j+SH4PtqPcxcLLF1/xn62Xqzjxs/6rXRhX+b31IzxH8mt5au9z8NoalvjEsCe7lPuSbsY9Y1fulYuT7GzM2nrW/prdpXhhw9c4UyfGWp/26aaMz7U6G3TNbtUf5RNrT7fKZn2W97DsycJD9+x3QgUPlASIbN62zSb+aPW8n8WO70WfulmetkfyW22m/aXyPfnO+Lx9J/Sx18/01dw/t9pP3+co35I/25U/B441xpqjOrvK8Slb46z16bPqnqNe/PiMOWWzPG3einJY4mcxHNkfyc/GvdWufPFb/Vf74sRX/VtVP8JzJH8rcIYlPjHsyab+TZbLvXI5k73J/E+JfYQv+cr3cmWzp3sTskv59nSrbNZn+Vasb+ROaAtQwFAAe4amOl222T0HFwMVOz7x0E8cazk9fsk/uzM2bKM9LHSXcEyf8hWv+rRJF0+31pPH6Ss/lT93rGvx6of4Hv50YqE9mynP/prdFuxEvGtx0ofhbH5+2a78TWBbc1TfwzFltW/l97Q3n8mvtTWc8Yljyipfizf9J44j+T3xwhJfYx/lPbI/kt+D7Sh3sfDyxVf8Z+vFLE78rP9qV7xVfm/9CM+R/Foe+K7ZnNXX1rDEp/+e7BKGS7oZ94xduVcuTrKzMWvrWftrdtfiHeFLvvK9eNlcw7Lq92KRrXZr/Sgf3z3dKpv1Wd7LvScLD91H5E6oRAjY+aC0+gTzaPU8n+IWv05aI2dDPsvT7kh+q820v1S+J98Zn7fvhD72+pm+mvvnVvvp+xzlW/Jnu/LnwLHGWHNUZ1c5PmVrnLU+fVbdc9SLH58xp2yWp81bUQ5L/CyGI/sj+dm4t9qVL36r/2pfnPiqf6vqR3iO5G8FzrDEJ4Y92dS/yXK5Vy5nsjeZ/ymxj/AlX/lermz2dG9Cdinfnm6Vzfos34r1I3YnFDBA3Q3tF7vqtqjyU3nxWnjG9+JO3SyLkf2RPD1+xiZcM/aMkfxMrGyKWX2Nl77Ye/U9n1V2b33mvTdGfmGvvsfrh/glmzPx2FyKRV8OZVT9qbxYZ/PLl+3KN2DPjG3NUX0Px5Qd9cs97c1ncmV0lCec8Wk3ZZUfox3Hm/6X8mZ3T7ywxIsVP8p7ZH8kvwfbUe5i4eWLh/tWXszixG+Nk33xqj+VH+E5kl/LB981m7P62hqW+PTfk13CcEk3456xK/fKxUl2NmZtPWt/ze5avCN8yVe+Fy+ba1hW/V4sstVurR/l47unW2WzPst7ufdk4aH7iN4JnYvQyhOg8nORRuqc+F7cqZvlaXskv9Vm2l8q35PvjM/bd0Ife/1MX839c6v99H2O8i35s135c+BYY6w5qrOrHJ+yNc5anz6r7jnqxY/PmFM2y9PmrSiHJX4Ww5H9kfxs3Fvtyhe/1X+1L0581b9V9SM8R/K3AmdY4hPDnmzq32S53CuXM9mbzP+U2Ef4kq98L1c2e7o3IbuUb0+3ymZ9lm/F+hG/E9qPkyZoi1FE9hx8C/Lw0eo8vhd/6mZ54jiSz3hnbMI1Y88Yyc/EyqaY1dd46Yu9V9/zWWX31mfee2PkF/bqe7x+iF+yOROPzaVY9OVQRtWfyot1Nr982a58A/bM2NYc1fdwTNlRv9zT3nwmV0ZHecIZn3ZTVvkx2nG86X8pb3b3xAtLvFjxo7xH9kfye7Ad5S4WXr54uG/lxSxO/NY42Rev+lP5EZ4j+bV88F2zOauvrWGJT/892SUMl3Qz7hm7cq9cnGRnY9bWs/bX7K7FO8KXfOV78bK5hmXV78UiW+3W+lE+vnu6VTbrs7yXe08WHrqPyJ1QCS1ALTgDjM86MM9JcsoR34s9dbM8bY/kt9pM+0vle/Kd8Xn7Tuhjr5/pq7l/brWfvs9RviV/tit/DhxrjDVHdXaV41O2xlnr02fVPUe9+PEZc8pmedq8FeWwxM9iOLI/kp+Ne6td+eK3+q/2xYmv+reqfoTnSP5W4AxLfGLYk039myyXe+VyJnuT+Z8S+whf8pXv5cpmT/cmZJfy7elW2azP8q1Y774T2uJOwgDgtvnM57Sz4OxOaHK8GHyjytkVe+qn74yRPNsZo/xT10I4O7pkysULExmqnp5s+oU5zo4e5bvHi7enyzebLdjDR/XVJ31+e/U9n1V2b33mvTdGfmGvvsfrh/glmzPx2FyKRV8OZVT9qbxYZ/PLl+3KN2DPjG3NUX0Px5Qd9cs97c1ncmV0lCec8Wk3ZZUfox3Hm/6X8mZ3T7ywxIsVP8p7ZH8kvwfbUe5i4eWLh/tWXszixG+Nk33xqj+VH+E5kl/LB981m7P62hqW+PTfk13CcEk3456xK/fKxUl2NmZtPWt/ze5avCN8yVe+Fy+ba1hW/V4sstVurR/l47unW2WzPst7ufdk4aF7fSf0n/yTf7IBF5DBHueACtCibto/Wjw2xC/h/YUg/bQhX/8eSj5yMZVb0K04yPmyRfS2/sqQPFk41VsAKoeFv3z5FK/c6meI/2ynOoxoxir3xLXGn9hWXfXVZq1nN/nbd0Ife+NMX81+u9V++j5H+Zb82a78OXCsMdYc1dlVjk/ZGmetT59V9xz14sdnzCmb5WnzVpTDEj+L4cj+SH427q125Yvf6r/aFye+6t+q+hGeI/lbgTMs8YlhTzb1b7Jc7pXLmexN5n9K7CN8yVe+lyubPd2bkF3Kt6dbZbM+y7di/ZA7oZwtki7xTTnsJJ/2a7lFagvA7JNvzuND/hZqYcknnl5dHKTcHdjCZZ++2JOzmXZs56Ix39Vm1sWrPcnDMmOlEzMMySanK+8Rz2YzfPioPuOki6db68nj9JWfyp871rV49UN8D386sdCezZRnf81uC3Yi3rU46cNwNj+/bFf+JrCtOarv4Ziy2rfye9qbz+TX2hrO+MQxZZWvxZv+E8eR/J54YYmvsY/yHtkfye/BdpS7WHj54iv+s/ViFid+1n+1K94qv7d+hOdIfi0PfNdszupra1ji039PdgnDJd2Me8au3CsXJ9nZmLX1rP01u2vxjvAlX/levGyuYVn1e7HIVru1fpSP755ulc36LO/l3pOFZ9P5QAmP+KPV4yebFl5THhg8m72FWL7ZFyO/eHI8XOnyJS9HPNvpX5lu6pVnzFnnQ9dWjHLnZ9EpN5qxs4+vuhmHTfEqH/E1TvU1Hv8o3VpPHqev/FT+3LGuxasf4nv404mF9mymPPtrdluwE/GuxUkfhrP5+WW78jeBbc1RfQ/HlNW+ld/T3nwmv9bWcMYnjimrfC3e9J84juT3xAtLfI19lPfI/kh+D7aj3MXCyxdf8Z+tF7M48bP+q13xVvm99SM8R/JreeC7ZnNWX1vDEp/+e7JLGC7pZtwzduVeuTjJzsasrWftr9ldi3eEL/nK9+Jlcw3Lqt+LRbbarfWjfHz3dKts1md5L/eeLDxbPh8o4RF/tHq0W5NOXbHEWe1afCaP81Ge9X/5L//liz/6R//oC18jk/P9r//1v251uuLjdMVQt1WPF/uf//N/vsX4a3/tr722YyOGheR/+k//adMXgw7l/1h7/CSztQAl5ZdtZVx8uP/zf/7PM8Rr2+nDoPoeX7FVX21nonTJqq/8Wu5b9LfYrjjW+jXc7OuH+Bpj2pyJx+ZSLPpyKKPqT+XFOpt/ti2f+AbsmbEVe+V7OKbsqF/uaW8+kyujozx7eLNPN/FuwS7EO8pzJL8nXrjia+zwr/zI/kh+D7Y156wXr3zxFf/Z+puKdzb/Nbuj9h3Jr8WbfXnN9pr+TN/divM58ZV75dqV7Fob09fW6k/l1+Id4Uu+8r142dyKdS8W2bU4R/n47ulW2azP8l7uPVn4Np2PKMU13oKN3bd927e9+Ct/5a9sIdTbCJSnLbA28oCXG2eb/9d//ddvqrlos4D8Y3/sj23y/NmjvZhrLvVv/uZvfvGH//Af3nzmB3+5/tAf+kMvvumbvmmqXpfXnBRhziib6ngYv/d7v/fFd37nd07V637IL9vqezybAlVfbdPj6ZJVX/m0XXW31p871rV49UN8D2+6a/2Qb/bVj/jZeEf+q7y2ns3PP9uVvwlsa47qezimbG1n9Xvam8/k19oaznj5V4zpr8Wb/hPHkfyeeGGJr7GP8h7ZH8nvwXaUu1h4+eIr/rP1YhYnftZ/tSveKr+3foTnSH4tD3zXbM7qa2tY4tN/T3YJwyXdjHvGrtwrFyfZ2Zi19az9Nbtr8Y7wJV/5XrxsrmFZ9XuxyFa7tX6Uj++ebpXN+izv5d6ThYfuh81K5UtcwvT//b//9xd/6k/9qe1O4C/5Jb9EvNe6rbLU+7o83R4X+2/+zb/54u///b//4qu/+qtf/Mf/+B+3mPL6sQ/9T//pP/21a1jo1wUho/Tpvv3bv33znXj52v7SX/pLL/7iX/yLL37RL/pFr3MyphMHR8VUJiv2nk0+bP146n3ve99r/6mjRzP2o+TDP1ebtf7hHv9nSOqH+F6rL+mew34vxlNkt+DNduVPyX/ku+aozr5yfMqO4iWfPsmekxc/PmNP2SxPm7eiHJb4WQxH9kfys3FvtStf/Fb/1b448VX/VtWP8BzJ3wqcYYlPDHuyqX+T5XKvXM5kbzL/U2If4Uu+8r1c2ezp3oTsUr493Sqb9Vm+FSvfH7a3ELoWiA/nr/3ar93u7H3O53zO5uIr7ve///0vfvSP/tEvLFA/7uM+7sVnfuZnbgvVH/WjftSLD3zgAy9+w2/4DZttMSwK+VhgWqT9rJ/1s1588Rd/8Rbf1+8/8Sf+xK3M/l/8i3+x+f6ZP/NntvjFUv+oj/qoLc4v/+W//MXf/bt/98X//J//c7P9pE/6pBef+qmf+gI2MTy/+VN/6k99jUGB3Nf+7pD++l//6zf86u985zu3WDCx+Vf/6l9tOH/aT/tpL37cj/txL/7xP/7HWx7YtVX7Pu3TPu3F3/k7f2drJ1wINv3Vr/DFspGtfHN4++PtHni7B97ugbd74O0eeLsH3u6B/x/3wLYWmu0jQEc8W/o/+2f/7It/8A/+wWb7GZ/xGZuq1wDR/5E/8kc2ma/qbRaQyYpjEfYn/sSf2KrKvmrHbRaDlbP/C3/hL2xFX5v3tbzF5Yz/3d/93S963dQ/+kf/6MU//If/cNN/wzd8w4sf/MEf3Px/3a/7da9zFhs2i+ff+Bt/45bXV/IW0h4BeO973/viL//lv7zdnf3Wb/3WbWFqoSn+v/7X/3prl7oYf/tv/+3X/WdRK447rNpfv8qpbXs8m7NcjCPbLcGrj2ySVV85/Sq7t/7csf5Pi3dvv69++g2t8nvrj9H+vx3v3ratfv87tPW59+3aB/fW3+67+4+Rt/vu7b47e9w99/H/kYy35Wqw40cLo+TZqv/pP/2nt7uUOsrX4/j3f//3b3cAf+Wv/JWbqbugFm8/5sf8mBef+ImfuMnY8a+D/92/+3cv2FsYWvT1VbvFoLuN2XPu7uYv+AW/4DXWv/pX/+q2ePwpP+WnbPF/4Ad+4MVP/sk/+cWv+TW/5sXP/Jk/88WP+BE/4gWb//Af/sOLn/2zf/Zm8/Llyy1uGAhh+pE/8kducnjU5f85P+fnbHn//b//9y8+5mM+5sWP/bE/dqtrqzyf8imfssXki/ywqUUuvN4fKlbt34zGRxjibNFZfsl2C/Tqo3jJqq/8UrzV9lr9uWP9nxbvWv+e1V/b52fjZPe/Q7ywPpX/79DW5z4untpn+b/dd+fn8fos/nbfvd13jYVr/LmP/49kPLkeb30qPVALoUtch7izZ1HHzvOQ81nPf/Nv/s32lbqvnundLWX7+37f73vxT//pP31t7ytsNr7KZ/fn//yf3xZefrwTiVv8ZBa2vuYO43d8x3dsi993v/vdL77ru77rxR//43/8xcd+7MduX69/4zd+4+YGg9wWppO0Rfx2smdQe90SmQWyugWmO57uglrYWoy6Q+preYven/ATfsL2HKvYv+t3/a4NG39tsgi1WP0Vv+JXbHePZ35tKHe8dp3l4h3Zrrn+X/buLfS3by3o/zL/EREWEXa4qDSoqOhEh4vdae3fVrNEshKT2hbbvIhMRNSyUsncHrdatjG6ypAIESypCw+Z/oosutSKEKkUiQgJuhGvov/nNb/rvX7PGs75OX2/66fiemDOZ4znPMYcY8wxT2Pu5Vfdc/ZW2Uv5p7b1883epfq9lt9xv1b+ktzPBXuXynAt/+dCWZ+6X1xbN5fk3tTd8dj8pu5efer61G3455u9S+3pWv673We345RTuInQJfx1X/d126TOl+SBQpqMfeEXfuGzL/qiL3r2H/7Df3hp75/9s3+2PcI2KTPxNPHz/ifsXUr+vvZrv3b7IIj+hJY/osvHl3zJl2zvd/ZhEdnv/M7vfPYDP/ADz77927/92e/6Xb9ru3vpkb27jyaKoMnmJ37iJ770zZ47pZV3fVeUzT/zZ/7Mpv9pn/Zpz/7lv/yX251PE9A//If/8Ea3OsCHP/zhbbL5qZ/6qRvNxPXLv/zLt8nnp3zKp2wfO2H4Mr7yyPO7No5iuRZnZw+jBdlb89HD+KUfi5/a1s83e4+t//TVGyj/WPxg7We3vceWMf2fC2V96mNb2R+L39Td/X3kTd29qbtr+99T9/930x5fV98JVSHWuXQ30eN10LugJobAHU+Prb/1W791y5v4gd/ze37Psz/xJ/7Es9/+23/7Nhk08TJRY/NDH/rQNrHz+6av+Iqv2O5qfumXfukmR7cDYeJLr7uu0cn8zt/5O5/96T/9p5/9xt/4G5+9/fbb211Hdy09DrfR85ERHZPg7naKzx1ZNsnISxf3+973PuY38L7ne9/73u2dT4/p5U00fb3vvVb6JtCwCfY//+f/fHv8731VH1epu+en1wD+4l/8i5s9cqByhKNfi9k4ksULklnz0cP4pR+Ln9rWzzd7j63/9NUbKP9Y/GDtZ7e9x5Yx/Z8LZX3qY1vZH4vf1N39feRN3b2pu2v731P3/3fTHl+v/Dse4QhUiImSrYkgms2kzUTTx0rW4fSxEPB4vMfu5EqzMXXJopkgmlB6dJ4MDMhPiB9NXlxNMNPDFx/b0dKd5eBXvGTd6XTn9cu+7MtexsFO+tITsgc3yS3eeOrHu6nuFk875JKZ9Gn/KdJ9NNaKAk9h842NNzXwpgbe1MCbGnhTA29q4E0N3FMDP+3f8U2c9nATpCZNOYwu73G1dyBNtDzaNqFrokeuNFl5/PR9vW6i5JF2NHIrpFccycK26PQqB78TovMP4Oenu5T/6T/9py0GX8O765k9MvlJFy2IBic3ecr2p/7Un9reLV355cPTFhuX8udkimHKRDuyO2WPZK6lP7Wtn2/2rq3nS3KXjvkl/ZX/c8HeGvO9+Z8LZX3qfnFvXa16b+ru8vi91ln5N3X3pu5qC5fwU/f/d9MeX1ffCSW8ByZPKskE0hJHrYnpYx7vTc6J59Sn08QLnT5Z63z6Ah2QMUGcB4FOPlf+prSzy9eRPLq7n8BSS95T9c5pftBnWn4P8jN5aH4/6nUEj/FXSCe88p8q/+ZO6FPV5Bs7b2rgTQ28qYE3NfCmBt7UwGNrwJ3QVyahTYSO8J7Do8lZNvC7E9mEEg/greCdTovCe2ycjWTXCe3k43kUD7K/ZXZ2Uy95sbER3ottx9TdpDWGDEW/Fhd/x2HibMImwng9jj+yf87ekc4R/alt/Xyzd1Svt9LVG7hV70j+wdrPbntHsd9K/7lQ1qc+trfW0ZH8m7p758ncUR0d0d/U3Zu6O2obK/2p+/+7ae+nTUJr+Hu4gntk7atxdzo/4zM+YxNtwpbMigmRaRKJv072LIFkrU+/6/y8z/u8bZH54she+dWWfDZh4LUAi8n3l6UmX3hNyMi2pid6sNqa9MoaDSYffcaGV2xTBn2FS/xVPrsr/Sh/751Qy1T5M5TVBsTo3VYNRztA956vO7zolqKaQMeKBbPuJ/91po/i9iMDcas/Kye4W69coHiLqx8XlH83sHbrQszft4D22bHuaYEP8FqdgUxtJ76/hL311lsv2ySZdwvUoX5nFQpxWUGji7u1HdQmxeZd6t/3+37ftgTauxXrkZ85dqhrdRkctav4PxuwjyD7a1vxzDL9lt/yW5793t/7e7eVQeL/TOPagjbj4836ZHFpV8rkA9SfjVD8YjMWqt/AmNPyhGsfSOYpsbrr/Oq32tbf9pTSmta/8lf+ypfnxb12cM24/pSxrrbO9a/asBVtZv2yMcd1Syh68vhuQzfQ1H/nSWOh800w20byeMbIPlpO9t3Gngb7uPzjPu7jNtedD2uznYcwvWKojQHn0efPn788T23EK3fmEq+8LKnycrSH2TWps/6mxtwkdPqj12Rz0htU4uPlD41dk9C1MHi2IJ06WfQVa7B+3/kd3/Edm76K7GToy/ZsHk1C8ffKwQ9e5ZEvJlhc5ePBYPLLs1UsUy/+tBd/xhWNPFhjQyMzIZ0VJzNtGBT8qcpFAr90DAD/8T/+x+1vUAY47//+il/xK37aJNRvV9X1Oplb/V6bF9852eqK3Bo3mgbv47OOvzVnm8yxW7xkwWd/9me/PJ7y53yvx/CS7B6fD+3WB2z9jaz2Sd5fwhyDP/7H//j2K9ps1B7if8InfMI2kBQTuyD5x+IHa/t7A9d3f/d3PxODuNR1H+tpB/VbsfWHNJZc1FpVwjq8wb1x0n+M7hw7lOOt0yQ0e9rVP/2n/3Rb7QLtL/2lv7S1q2tjvlYuf5dw9iY2lq79rjKJ3fvp/chjtc/OSrs3X0yX9LUF8eb7Ax/4wE8be7UrsVtvGdS2L9m+xM8ne5dkV366cPFL+9vf7//9v/9ljCYhzpme1DUWrrbWPDtgpV/Krzp+KmNi4TsN62frZ50XLR/4W3/rb936HbtgHdc/+qM/ehvXV7+b8Gm30h+bn+M2W/UvaTc8xG7u0SS046aOHQN5yzR6rQ/M8ebe2DZDp92e/vThIsmqOMUtRnHNcU7b2CZep7GRvNVzxGzsq93nr7Kdw8nuxXZJb+qwY9xw3jEJxet8aO40ZdnVnh0P4Dz6/DQJBavcRtyhJ7fpJAQzfg5TdCXqwPoTEvl0NsXTLuOThxbEd4Lq8bmT1N/+2397041GrklFOvlywOLnB2YnMGhpiF2F5M+apWRNRvzSUxqvxkpfDGzlHy1/pekFU05s8snRA2hTDo0N/OKeNtNJX4ylYX7I5ytbeKud8umXXzGfIDlpS1z9uT/357aJhcZWOfB0qK//+q/f5L1CMYFtf56q3lee/Or/Uv6Szrm46eI7tp/1WZ+1tQsDRnWvXP/5P//n7Y6FuxYATfzBY+Nj55wN/tyJMPm1ygQQs80VtPq3/u7f/Jt/8yW9MuGbnPqoztJhBgi8Ced8k7uWP2WnfWkD67/5N/9mq1cxOfmJyZ/H/LGsfqWsX/zFX7wdB8u0vf/979/aSzFMH9GuxY/VdQz+wB/4A9sxECeA1eeP/MiPbCduE23taI5X1/jdjJ1215blklz2xEYW/uAHPxj5JfZEAvSbZKt/kF/tk1lp9+bZAuf0xevnJ0C/077nGLoxTjvtyh1etrKHV/pefK+N6U9/FLs2YYI/j4U7RiaC+oCJaX/tm/p7MaCBS3IrP536mbxznbuDxmjtQHzaAV35OcaRN/Hz4xZgYkJuzw/+Sr83rx+Jq/ONj5zVZf2PXavvuBCRzo9yVt/6o+OgrPh0lS3Ze7Fygj395gp4JvvmG8X9vd/7vdtdQrTaBjvFS94cRLmM12IVM1t7vvZiQAPXyifHV3XOp+0rv/IrH4yd9vL9+VK8lTMB8SqX+nYeBeSC/Kz56GH8d7RkXhg5whRrsDXyaAYIHcyJ53f/7t/97I/8kT+y/T2ovCtAfxMq7w5PtnRi0ElK2hqkHs+xxYcJpccJ8pZTMnDho8O2Zub0/f7TVZ7HEaBKrKLZMJHuwCsPmWKiox6qrMoZDbaRT6aDOXXxkpu2yQB8foNksx89jM5POmwmiw6UBRQX3LYxTjs6YMWTJm3iY/PI3RUoeT4t4m9y+tbpLtG8m4jPl4lFk1aPT4LV37X5a/SzRXaNG636cMWsrZFRj+h0u8DCM2lCSyfbR5h9cMQ/R8crBvWp3eofX/AFX7DZNCHC92jnkz7pk162UcebLj7wMwSPodDVee1hY55252Igcy0/2epGHjjh/p//83+2QViefz+SYPebvumbtrquj5lo9Mjsx37sx16W/9oYjuT4BUf8a+jPnz9/ZnMHQIx06ufK7ETo0Zml6Op/1cUl+w/RPS6+Wb7s8S8WY2TrFscrJv3XHdA+kIyeXDj6Y/E19rQHPyoBxnbjeu06/7UrfbJ6rt7pJXcrpgtu1SNvjBWDWK1vLS6xe2LUD1LQbJ/+6Z++ydcHrvG5BXZHbPO8zIZznDo2oRC3zTrfzo8ma/LVKXly7jYb0986jUXp4ElPPNMr79Z8Fx4+CLb5OLkPlMXnL4k/9EM/tD1141fdA/Vf/O44ml/4dTYQA96tsazym7EX9rIbLm55r2TQLW719/w0johhto3iIq8cvcZGrnN39q/B18isZWocRrf9oT/0h7Y6ZksczoXzh0CzXeEDde1cSc5xSGb1RXalld94dkHGjzA5zsKcqkQFMiGpYPge/xik3ZK2+LwF282YXQ1af3Oul2lyypZ3TdkAX/M1X7M9GpAWj3+145t5y/dukAHAjByNjQnuhrqlDExS2W72TtbdV1CZpNmZFYQW1OBnB2CTrfT2dPHaspUcPNPk2CymeOho5dmRnnZnXHjJosfLPz2wYrQ9394XcaEB6LBNzjE1+bGigLzNr1v9tMBxBWirn1vzm6HT7pweP6Byk51xoxtgPYYi251adVN5xK7+/Q522jvnd3P6YndJ7ohfzMx4L1oMfkUrBhdXv+7X/bpnX/VVX7X9HKELs3TI4usz+klt/dpjfhTTEb3y8l8MHiupa75Ncqo7sU0QE7vx8f7xP/7H2ztraNk78n2Jnq9Lckf89JWlVyPERV5sLqY9AVDPNvRs0S19hLN/xL+Vzp646Int+emk53GkfHUvPeu1NFy6uOBbYziSz+YRH71x37juhO4ubnHh20zsnOw8SsbThvSJc3avKcc18R3ZUbc2Mc843vOe97y8KE9XzNqSslbfUye5iaXBJbmV342Y/DQGuNvmcTz5eNIzHx127jau04len83nPfGlu+L6Pl82/c9YrM5g5x4T4+en9p3fbMgb192BRCOXnfpuOvdgOiB/E890da29ijsQCzltQ/zSZNG1Ia9f1Y5mPUzbR/7zca1scvwB/jx58w6/1yGB+NE9UQN05AOxa09A/M7zbnpoe5UVL18zHS2M9wvsAgbAEZ48znOYvKuVJoreLfFI0d0bkz3y7kp656DJSYEoVPa6a+aKHS2fbJutuxME0v0dv+N3bOli2Zgvdk6GKri7oTUSFerxCGCnAyLPpwZUpeeH/fSjyduSpQ/wk6luHjjv7JOBk0mHTTTbtD19pTNxNosBxp92o+1hNJBNeurDlaUrOVfP7tDh20zwPerxjourITQxfv/3f/923E1IgElTZZLP/q34km729uJ2V0td9vvXP/gH/+A2Ca3O8Bx3HdEjkqA6z/YRTv6If47ONz9A2mDlsSSd6O5ouEP6zd/8zZvcbLMIXjPBb3Ao7k34xe5cDESu5U+btS0fUnkM/9f/+l/f3oFylcyejcxM0580F6ouYpPFl74Hb0qP0K89qEsXrPPY6AvuZimnVwmc9NxVnx+lXIr7sfGt9tnrGBhb/SnOn+nIuSsav3KhJx9tExq71ce9+Uye0xdDbdz7foC8ei/tsebnf/7nP4O1Kzqd5M/ZTv8cPsc7Z1vMxSntCUB34LKZvnj1V+1HOv45vAmddtm4FovFlh8+TeLc/ezOFv6EZMPGdRcFzq2eFkWnVxzpl38sZo8NvtSj8cxY7D1J5xMXud/wDd+w9Td9zsfFxUOv1038Xvvv/t2/u7UftrSTp4it+FbMB/tifPtBGAAAQABJREFUUdcmz76RmB8ZKY+NnI2O9g2b8JkfmY9MPt7qay+/CZ12dPf4R/QuVsTthoubSc7X+pix2J8g9TUAz3pE8yTUnAzQ66KwMqDne6ajhfFeaY0V/AhTADkiZ+vE5wTvJAQMhj/xEz+xDdTesdIRvHNn4HagXNnMQOjIO5B7wDZdd1A1xmJ0MKcd6XjZmfnSU2cOeHTEgO9Ohzu4gJ7OCfc4q0HHY67sKpvJWiDvhBbf3VnABh8zn052p4w0G8WdHzQ20PudKjvZFRvI/0xHC2+Cy04jdawMoiaTrugDFxguGjRS7/Lw6W5Fk09yBgx3jkB+7sXX2NgcnXZr3OLLr5i97vFv/+2/3cSVzzHDr34xpLUNttI9wpuh0+6If46en3zKk29DN0h451MsQBstbnl3LvBry2u/IHMuhlv4ZFdowBK7duHCxOMxcbnKbowQg4G3+u5JRbHNsvMR/VpcXNfKr3L0xWCrLsnUn9S/vvhrf+2vffaLf/Ev3o5BPuHV3ppPdqXfm2dPrMA7ccXtwwH9rrjR9QFjiz7cxf6muOzujWXVy+xKX/PJhWu7te/GDydIH02kT770vfheG9U5ffE6aatrYz1oDCfn3EemC2D8S/GSAZfkVv6D1jt7/Yvfj//4j98mCo3fYp3toHaiXei/jePajDIY//P1jvXb48vGitmM5tzGvzFFjL7irw34Cp4cXnWsPwIxOveIXz+t/27M0y77t+Jr9dWTybBzi3oD6lM7Vr+Ned4FbV5BXtnEpDxekZhwKdZkL8mt/NqvOqpu2aqPSZP5B//gH7yMzzxuzmW8dkDXOT57+aG/l44WJvfKJJQhzCNMQQMB3tNJ1ovXHnF6V6oJmY4HmhiZ0Jlxl1fh+SkgNi0vA1z5aFTg+77v+7aTMB8aJT18AGuwbLz99tvPnj9/vtHtNEZ3M5ywu1XfXQtxoE1gF1Qut8n/wl/4C1tD0qhckf2SX/JLtpMqOfZ/6qd+6uWXeDo8+73UTcYSNe78OmDicLXv5OXEDLLh3/bKwc+ejJO6uhWjupt+2PjJn/zJrfEf2aiu+Sy9Yrwgnk7vTrI60aGUUWfSDtDRbOL+3//7f29yOqF4gYmIu5AdY7Rs34pv0V3jNgi44+aKTmcSs7oC6tJ7yV1NG8C0NdgV3rzrUtvYw7fEt5Z9C+S0cyzdhQC1T1g7+vEf//Gt/vurmLsBLvrwlcHdSCfD+OJ/ino/inUL8sXOazbqF/DZF5XF9W3f9m3bgMVWcTt5SLuwDIp39XltPjvXyq9y9FvuBc97iMYcfVLf732v7tp5DeLX//pfn9uLbTvB1e+9efaqM3Ue6HeeWmjTH/VRH7WdyH3co77Jz4sG+fzTL/1YXCzn7DgJFtMck/VXbecbv/EbXy7x9t/+2397mb7G9izXUQyPKW8xwM5vxpPqVRsyJptAuehSxm/91m999pf/8l/e1I7iiZ7t8tdi9Vm/d3eWX+dlfc049tt+22/bnvSoWzbF2zmHT23cE0xlaVyvX68xyV8b1yW5bBv/eqfZ+b9xu0fsxkG2nF++67u+azv/Oncqm/Yh5uYNTx3fuTKod/OX6to5Wr2Jx8ddcG3DR1ef/MmfvPVN8iZyjofvaDrHX9N2i+eectLJRys2oM0+xr5JaHwxmstoS3jGFtidX1C7k56xzXz0MN4rk1BBgSO8MU87V9wTvHjtHc0moByoUNiJ863TC7oatcHQiVKDMuDkh61m43Sk8RRKGo3PaPlPZ+rPuOgBcXn/jz4abJuDdnTyVab3HJNF/1W/6le90sDZdYIik44J2rTVlUOxWPJidhI2DAKAHUBGow066PLJTD/4U56cJZPQyOcbnrFlK0wvQGtrQonHps3x9Eg7iKYs0193Z6aP0rdivq7RIWObcTeoulIWn8mlr0BBdy+ki13HAx1X6Uu+r5E5skE332T4FQOadlrfcqz1Nfw6v8lGfBO6PqbJF9ug/GPxg7VX99lENdiKW1zo0ibGyiFf3GSVp8fG8kH2bsWP0Rcnf23y73vf+zaT9dtid3IEXhGaJ+lL8W5Kp90luWv50542Aeg2NjaWNA75QtqHMy4akp14pq+N4Uhuc3DaHfHRq/Nke91HvjtH8ToW5eFztq/hXyNz5INu8f+G3/AbtgsUH5mQd7FinDcGwV5b8qjYY1r8I5vR2Qblr8FimUCnu1Xoxug5MaodkHO+qCzOzwC9cXMjvNgVSzJPgbMvhtmfOt/EN37nf547jTnobvR0t/yWsTubR/hSGau7+p24O8+LzdYHSJ6idKySZ195guKQL32Er5FZdenM+pEH9bFZnnQbQ+SdO028pRvXHyw87NOJVn7F+B/xf//v//1/El5CPgcFRaY0LBDYpgF01wgdVFDOS2+MZVdwZNiBp/2pzzY/6ZArvZjdstnJf7Zm7OnD5KfNaNk+ytMRu8YHy5+D6WOmp870dZROPht7cl35GuRvhezeolcM4Vt0n1p2xr8Xz6RJaydA+6jNPHVM0x6fQJygGKJvxBe7eLVdZHrFKl96yqC/2yDWynTke09mHq8jvddNn3FdE881Mq875uwXezj6zxQWx14/qs7iz3Yr1j2dZOF3A4oxX2s++sTJTPwz2ReLY8a4l65O5/hHN/3wnu7roF3yd8Q/or+OGNlUb3zeA4/RvcdfOuf8Vn9ktIX6pfyEaUPanOyaec+04SPKk7+HRlYlHuECgHMepiPdoFE6W5wmMwMgFw8/+TrBaif5/ExbpZMpn015vPyUTg5eZeNN+pSLvtrMdvzshKMXK1w6mfwkG46/5tGzMXkzHT8b5/AlvcnfS3cMJ++cv6fkrT5nufHio5fmf483dZ8yxmlLXc048Fa/8YuxfLLl6dU/OgbT17uZLqbpc9KkZz65eVziX4uz8VicP3b2jsXk78k81v+9+sUFl77X1lPoFcesw+Kax1l6tlsyU6dYomcXPXu34mwe4ek/25NGb81PWrxO4njZuYTJPgayz0Zx7NmbctI28rZ46Yf37LwO2p6/YuIvfrTw64jlnE1+a7vkZhzFOPWjTblVb+VN/adIT/vSYopWeqWvftfzS3qr3Lk8Hy8fx1cxR5ghCv6Q46soaZ2r9wU8nvJFG2CjR93ZSx62eafQO0rdyvUOhS+w5+OYrh7ZoLMCWvbjrXLxVVj2yJSml3202ZiyGU5u5tE6GPHhcxC/+Iu5/J6dSZv+zvm5xMtfeMoXo9cNvN/UosUeK3hc4t2dlsbySLXHDfTovH16P9erGGx7PNyjhnzdiovtkh65eWw9dvfVcI+itDtfv6N7HPXW6VURNgNp71Vqy7XhSz7js1H6XpwNL7PXP4rN+12O/cd+7MducXeM+ALF3asE8dO/N6ZVL3sr7l1K9PqxGHp/3C8wnz9//lINr/cBa1cxi/1WnP4a87X5qe/pgceR1mH17mc2xFRZtX0f7Hkci57MEZ72r5E/shM9e7B35y2mD/AbW8t736t35D3W9GpB9TvtlX4s5neWUd6HasaF+haa98x7v8xYsX6c4S86jTW+ymWzuOmXvhXTBZfKSaYxxbjWjzn0xb6C1o6BtuBVh2JB01Y8jmejcsc/wvTApdhW/oPWO3XiXD1/24nvnXPna4/qtQNtO/C+vPHRHa05rseH8znT0R6LnTucW5xvgPi80uC9Wm3AGDIf15NRh1PPcl7usE14bFxs7dlAd1zFMOdA4haDpQpnfXeeTE/bd66pHcz2seeP3Epna6VdytMJxN8Y7ZucXmdQHv3SCkPrHc6erBZ380A2V997tGQ2nl2AAY4wh77syoCX35PVCftoadpbKw0PTSF8VQXYKI/Xlp9ksjXz0tHhCcWGpqINGnCwyqPnc/JKT3vZCGe/PEwve5Oenezi7clNndLJ0Z362Uhu4lUuXvRwdLgYNUSrHJBp4olvQJAnN+l4Bt0+rvHhmGMb5OtWfK0+uWKXNgHlX7zAycCix9pqEyB08bSRr21HS+YcPse7trxsAC/giyEQk0nGLBte8cHFHT3d8LUxXJLL3sTaiYXptYX08YtbWuzFDzsGXnyP9xR4M3baFcMtuNjYUA5LMU3IFp4vjk2OgniX8K3y19oTu/bsOIDZduRd5Hd85NnNdnkYRH8sfrD2jr3yjfv5Erf4xF6fzDeZNe7sdLzuxdnJ14qdL7KdrFiAWCuHmK3t62Ncq0BoH+kZC/s7kQ9pnOxB/CO8CZ12a0yX8vTEnZwPAoHVNYyBxmXxmbRZHWQuR0fO0or6pcmT3zXTKUZ8kO2ZjnYvzpZ69YErn+puxiffOE5+gjL5WNCkzgfF9Gfc98aVHl+lVxzPRBkUt+Mg3lnfsz7FZ3xU39LZLV3+Es7/tTj7MHDDo7YcDV27Rje3iQ67EIPFNfsBHbQ13uh7GO0hCqkTrMprnmN3BrrLYZmBZDRYadvebD77bOiIrrICV2sOBF38I6jg+LNi5Pd00Sakj94Ak7/0sxudfunwalM+/dVn9KkzZeLDpVc/yU96skd2p6z0zNMpv+Ls5dPx9vGFq0sfk8kHyWQjuqW4vMSsHdi+4zu+I9aGk78VU76kMx25qreigY4SWEPR2nPi0vmC7Priv7ZYHYfJJrfi1c7KvyVvmYx+Pcdug8Ev/aW/dHvf2IcD1T0+22vcnYjym9xTYDaC7Bt4Dbagr8WLW5sRex88kBE/PnCXvLsxletevBk87YrrFpxPZXFycPdcWboLyrZ3541f2pZyuTPTBwf4l/yRAZfkruU/WHuoTydBej58MI5VHjLKZFLtjoa7HXPszkb4Wt+X5LIXFo9lxEC6aM4d7qQ0VsQLF7cvu2eZSt+Liys/K551qD8BY6E4xYsPnKjdEe2uqIlGMTVpooPfRVf8I7wZPu3WmC7l6Ymr/u9jKL6t8mAcNNnXXp3Dtes5NtI1PloRBp8cfjHi518alH8s5oMNfU4du2NozHDOAT5S66PAjTB29Nw51R/FLWZ1UExES9+Lj2yIu7ZhHFPXxY0nFvU863vW5zw3zidY2bwUb9VwSW7yq2u60sbhaNWx84kxLpniKXblUVb0+QHh9LMpv9it9PLYr8z4YhxhAfj6Ft86dK11lbwrKx2ygNcgknOV7g8HgSWeFAQkk40KHQ/fZjCNJz8bnTze5KNlY9JL46VDlv948jY+bBOiwyBZupMXPx/ZiF4+vfLwpM249uqIPJt0SucjGnrpFW9KY+eRjQsGV9Ae5/3yX/7LNy49JzbH0lWzr3CnXyshkOmkM0we+l5jWfNsrLS9PJpYTIY9op4XPH6CYJvtLRt0LKMyeWsdJ7viyrfSr83T50v7MnH2BXz1qY6llcXfhSaggzXu6PknU/qxmK3s1x/8elM7MBG1BAm+sQA2EIsvv2g2kwvYMiXuYESf9tFuyW/Cp12+bsX8mTho2+JuKaZiwFNGq0C4++XOUTGSueSPDLgkdy3/wdo7eyc1rzUBNqpTx8dTLBNVP0JwJ6y4w1m51vcluewVQ/LFFh920WWsmTFL6xPidsGoPwfZlC/+W3G2imvibCUT7qccvV6ETtZKIU7g6ysO+K2+YSzMR/aPMD2Q/LVYfZHNroXH5S0VBaKbsNnwpryx0SL1JqC2gAwIH9Hj34qzZ6xWt/qZO8vOI4A9W/EnP/M+CKbfx9HFkP5j8DndeB3n4jY2FrO6NsEOihvfOOjipPH/lrizl841mO/aCX3jGDBe62vAnKwJ6ZTFe+v0ClvjvvGmr+bxguJY89HD+A8j/AvJGOewAhjITAKt+ylPXqMxewb+yx79helNRmHMoHXGTvRsgPmLqHkwpEExSasAVxsBXl/LS9vorbqt+YieXHHCbOCxb0MDyeK17ML0jU6X/eTzMePCYxNvQgc0On8T8tnEOxvygF6xytNf83xMufgrpg8qM76TsXXwPH70PheeiwjL7rDrWBq80CuD9Su1kz/5J//kK7Gs/q7NP0T1ziC6p1e51bmrOJuTgztw5NNhy5+HWqYmuvdfwGyL6pg9kNwRvkbmSFc92rwzB3rHUH2iu/jz206DhCWNKivZS3GTAUe+b6WzxT+oTbnLYwz4K3/lr7ycXBa3+tR+vCdFr418JxsT7+jsZv9WTBfcWqbkH7SfbSdocXuc6a5oscHGHmuzaj9f93Vft/HTv4Szf0nuWv60py7VuQk0fVtxk/Munc2JQ5upr9KZcK3vS3JskmHfZhybOtLFoJ/Fa1yjLy1mdf33/t7f2+T1R/Rb28Yqzz7I78Rky5ORry+ie+zeuKxs03Z60eiTaRzJ3jmMB7J1La4e+Zvxeu+wJQddyFoXucfAbM9Ypb060O+Y8TtOxfEQ3e3xpb/i/MMutp1zXNT2XUH+kktfPloyeI6NOgiSvxezs6c7fat7F0vF7XirNxO6L/mSL3nlyVt6+qxXe4B5k7jncUPf8zvpM31JFp9vsQIx+luTOPg1Ljhvi8OaoNmrLunayOKxo2wg2RVf4r2cDVFk/ByO53da7gD0ezh6wGTEf+L9hsqt2h7Pxd+ETjt0AyF7XnoFDoCCuQ3vPRC8BpsOSvHJuxPhyqLKYaP4pKfP6CrWRJE+QAfZl+Yz+fjo0nXwScfjC6+Gjy8uuJiLk68ZG/1oKz39GozyuoORPN1k8hMtf/IgnRkXej7DaGxOeVeXGqQrVDybjkPH454W6HWBgefYWyjZQKdDqpcgP7fia/TFDJTRRz0mdAbT6csjD4+ktMEmF2Im85Vf+ZUb1haBSVMndvlpZy+/R7ukg28rduvoitkjeeBDB21SfatHr65Y83bCpbiTvSYWspfkVnvy1aFHedprbdbJT/wWwMYj5/goL2wz2fuv//W/ZnbD2bsVZ+RSGc7x8ax97I6QSbUYAbrNxZd21N1b/HP20t2MvNhdK39JLpti0F5Njt1FdwfMWKr9Anbc2dA3tXvgGKlfx6cyol/yeS0/W/kw9krb+KvNk6s94ElPmeI25vNtDNQXpG1k78H8ArorFkM3LfDEa1NXLm71ud57xxdDkD350tlL7lLMq63sXML8BGRtnmC5cPILTpM75XD+9cGSczYdtICMduPDmn7bmd9kwtEfi8XAhvp1V9xNDHfGAXr1lt8jXL3Otkb/sfEVx4qrb37Frj5b+1OdugkjFu/kVt9skMen747zl33Zl23nWDS8yrH628vv0S6Vd/qofj0h8Xvcf/Wv/tV2w8n4AZqTkVNG2NbrbMYR5ShmPBCe6WhhvJc9J+I5HI9ijXZWmiAEpFJ9WGEyadNZNWpbaZi9SWMLnR1Q4cgppE3a5gXxYiBrBi9PBrjKM6MP4qtEwEcTqez7P3cDMzvdpSVPRmeeNh2EDgS7/DvpAvZtHo2h48sbwOhIA2mxTshuZXV7n3z1Ic0PTIb8jAtNnl6ABvI705OGTlbM8MrDB+gmpwaLz/zMz9xofFaWv/bX/tp2Eif3Az/wAy/tZO9WvDl44Vd6T7+48V3caFvan4V1DQxNQJ2EDQ7k1ZF2wJ5OWPtkQ55MsOcTL/pMR7sGkyl2kwRxuzoF0o7753zO52x4I5522ue1cadzTSxkL8llr/4483Rt9cPiTlY59TOYXINaPqvve3GxZO9WTJ+OC5jGArFo2/UxFwn4laGyXus7H0+Bs1EMJqBOhD2VaiwhZ9JsghEop01fn3BrnR3JZxO/i2e06m36NW4YX/HQbY2lYrblp7GWbPbuwZvyaZfdiR37OdGtndIxwe/8pX7Jea/OBaL3W9lpTHZcuhD29Cgfl2I/FxtedlacXfWHp06tKOApiotvfGOjmwfvec97tvcvlVX9i1k9Gx+N7cYidyW72KqN5fNcHMlci8VFtmNf+cOVa+aLOZo40Uz2ijW9a+M4kuNjj8e+jb/1FRc09WgMdOGqvt/73ve+nFfgp3tar3172oXWsTvyOenSYC+2S/T88ElfLLD24bzp3CPvPAjrj3TIgc/4jM/YLlLSxwvITyi/YjKvSK4Ca56CyYWZsQ9VdDoy7pK5Y+Mx4bd8y7dsE68KRKegyZYOx89XehOTwddZFNjE4YMf/ODLSsOXR6enMaowj/gCV65OIvnV4dDYQ7O5g0umynT3hi2gAzvp944YeWmT24BNcYDKyqa42NQ5xOUuHX0y0mx0cuBPHj070jpXeen8sIPPbjZgNio/P8WTDZjuxFtm7OgYkBxvd1nc3TR5A95x8Z6f4w670q4++CbXF5nkV1+35tkAl/TqEA/SD/t0HEPlcefW5Fm53NXXDhw7UF2VposGsnOEr5HZ083+xDNtQuErf33OXdC+thW3tjBPkGIonw00sOf7Hvpm7IW9fKhXbcGf0lz5A3G7kCvuJkbarosx4wUd7aZ2lb178eb4tDtXVrwjPn2xePwrbvWuTPV9kzw8j6D8LpAdtAlHtqOTLX0LJrvKT1veVzRB0ldhT6WMC+rXB1Qer4r57bff3pYnm7rSwerj3jx7jiN9bRKoNzQXhI292rN4TZacU8AcS7UVcRsb6RpLYRu4F2/Kp91e+dhEj9e5R3sFsPED30W2d/q+4Ru+4eWfwYzJ2owlp7x+5mMbT4Wc3MGlmDeh0y7/12J2xaq+1VtPTbQJ43I0bUBs3uczrmsntsZH7wcqH5o7ktWHuIplpqPdi7NlMq/f2Rzv+pb3Jm1WW7GJR70rk/MdOb61Ix9hZW9LnHb3xpXetBctLBZt0lJu2oW4jSH46tkxqL5dIKpT7du8SR0bB73376t+duoX53zm+zHlEzcQg/r+pE/6pGef+7mfu8UtBsBP8Xz1V3/1FndtQaw9sicXPb3NwItd8a4Y+yP/1gkk/uf//J/P/t//236edIhz4utK7+mocP9BB+5+Koxb+B5jFVQ2yZjtf+RHfuRmny08duJ9xEd8xJYnhw9gebw2eX51rGmff4+s0X7RL/pF21dp3qWTZ4ev4kUjm//N2Wkn7/+5+TR4/8Jf+Au3uB0M5fw1v+bXbHk60r6gzQdd65rJA37l+RI/W76Wm3F5VwdNzOqNjLUg0dmhR74Xydkt9uqzOOiCtfweP7OjfMW6hzflF7v4bKtb5fiYU/nVA1t+Y9pg7Jh7jEJW7D5U8jXreoyYVifZvgVfo8te24tibMhHdGJTP46X8tg6/tKOHaijmGyUvhTzpnjaXZLb4/Nh61iKPxAXcOylHQN16vgD8bsTk100Mo7PtIOezGMxWyA7D7lnWxsVmzFAewUzbvWp/4nLicKJUpls2ow2W8z34mIpthXjq5s9mLL1de3biUPcH/Oi7882pLy+Rq/fTRvKsObzu9Iv5ekdxY3HF753ieuT6lU/1N4dD5MJfRLd5KMvj+nnf6aj3YvZEtMcz8UpRm3U2Mq2Tf3WFuqH2jgaGz6sUdfW9q1P3ttG0hMfOCpfdUpGDPJkxV6s0r/sl/2yLabojdvGHOO6tmTs6biwVwxHmAw4iu2Inj3xgupQvOpPHD4uVZ/e4xc7HX1PO9ZWbGQrz7qSQr7ZL/1YzBYQi/rLt/rTt9C1V+3Wa4DaMlp1TGb2S+em6uCpYjuyU9sQv7iNycWN5peo6ts4ogzkP/Y03jk2H3MaU9S1tjG/qzDB63xw5Dc6H6WvxXQC9Shum1fRjMtirFzaDrv6nbLpq3jyJq+wjQxYY9ijJaM9fsQpgO2M18vsGdvDm4exSyYn8peA82b7sHy0mdZxV3v4aLaVP3nS54D+KpM+vZmedo70Kg/+hL04J/+W9JGto1hX265wyXpv81rI9lru6NlZ89F/pvAa74wDD4jZ1rFbcXJT93WnL9XjXrlmGX4mYr6nTsQM6v/TRnVwL562jtLZPuKjq8t1jJnyk793XKbsU6X34o4247nkL51Lcq+Dn+8wH6XhvTZxFMfU6xjcgo/s7tHzdcS7Nu7sXMJ7fq6lZZv8TF+r/zMl17Fb/a9lWPPJr/Q1n9zrwHv97xb/e/qvI042Z1yl9/zHW+OIHk6XnPQtYOL7ymwtA0eYUxDOWcHIpztlosVPPhn8mTb469RB8unvnRySz066cPpw/HByxTBjjRdOJ4x+Sf4cP7vwtLlHx9+zhYZ3pD9trfrphJMtn7z6BpMeD32m5YOOU3qPxexespFMcsVWXkyl4xWv/BEv+hHOxhH/HD2/azzZDLNRnUaj0/EpfWTnXAzsXcvP98TpnvMdD7YV97QzZdBvzWereFY8bSYLJ5c/+dJTLtnJT/danI1bMNm9eNBs+Z4y0ehOmPKTXjq9x2L2Vl9N1macpVfZ9IurfHFNvXi34Oxmb8X40Tq/pBPGr0zRwnjFGK0yRj/Cyef/Wkwvm3tpdrKVj2txemF6pR+L92wV1ywPmnz+kom+5qdsOrfibB7p4a/jMlq+00ObEB8tfbLojY3pHuHsHfH36OwHxUBOeuUlB2dryqWPXx9JLjx1o4U3nl0Q4wgXYFhFkV2dszcDzX44+9lBR7Oll208tHhTt/SK6UyY+jM9ZUrnpzxMB+Sn/EY87WpA5cPZSi86HC282kw2Oh9Hgx2ZjkF6K87PpGc7HG/m6cm3JRPeszt1koOzey++x0bx5ZON4oNnGg8km+6kxVvxpjh0V/65fH6SyVYYPZnZBqKRSzec7sTxHounzdLZ3IuJDH68idPLzuSh3ZrPTnYnztae3eSmTLZWnGw4fvlLmPwlmclfYyo/sXRtQ5p+NoovfI53a2zn5PFmLMW7xhWd/ArGvQlks5nevTi7xbPi+BPnOxqd/E+adPaih6dOuiuestLZuoSn7Gqj2LMR/wivMaUXnr6i3YvzNW0exXVOJjtw270xpVcc5c/h/E+d5NEmX7o+iydNFt17vSDdI7wJXSG36tMrFn6Dtb+tcunAbCYvHW/P10orv9nPORzjCHOSI1gAZG2TLp2NKUfeVqGTmTHEQ8sOOe+9RSMz/eHPykhuxeTopYuPZgPsVqZ8J5/MJnhml+30iyuV+NkLr/zyE5NNP/qkTVulp/xeOlqY3qpbHk6O/5kuHlg9pkPmSC/9azHbt8rmXwxt7ADHJr58aRivcsjbktnDG/O0uyS3x0ervqad4pv86hKtrXLJr30jezD+U+DNyNhld5BeiQ19jXvNp4ue/D04O8U0cfW0ysw8+bboRzg5ONvS4Ahn64i/R8/2are6Qp/p5KLB7NqikQGrvz3aKnNtni1tmM/8lmcjO+TwJw8NkEn3gfJOzNHvxau94gnjs20TW7DGNHlk5LMBt+FFvxQzWZD8LTh/EzcuRHuw/rAvFrnKG5/85MtPKP9YzKYYr4UZE52OQfTwY+NKn4/SE0vzVf3mlzwon84D9YEeje6Ui0629BHO3hH/iJ7t6TdbcOVJLjvJ1MbpZ2OVnTqlV7zpZDQDR5gyZzUUX9m1TqgJoq90e/Eazk56gqZrhu9FXJuXWgG76XtZt0AteeAlWbrWiENnowroamEzctpVcbNiopGhN8vAnq0PO8iC6NLk5YtfHkyZqbcxT7to8qWLi+6E8vHxpn10ZfWRB5w8ucoE24LSdJNf02TRJp52xG1D8wXl13zN12xLb5H/nu/5nmef/Mmf/DK/GXmxI2/dM+3AcfYF3YTV57V5Ni7J5oec2H0Rb3kSv1qsTvyD3ZehFlgn5/hnl4y2LXZtT93hxT/C0+81cU47tY+OOZ4vKMWAJw5fUPZxgbolg2fTd/Sl+JZlyWZx3RrTOfnJKy127x0XQ3H7YjTajFuZWtIE31etvn4NarO34vRn/RYj7PiyqR9VR77a9wW8+Ge9istXt9oLoOfrXfQ2Xz37uptd25Hf6Juh0678NZjfo7jVL75NXxOXdqM9tOJAcSnn+973vq0vkAfVQXGglX4szj5f3UTwBa44xdiX8tJoPoqAfQkvZmClBX/i0z5a4miuAUmmstyK6YK9crLVVizyP/RDP7TFKM4+ytCW6n++hLbGL5vk6WpX8R88Xo45ub3YjmKOzi/onCpWazazZTy0Lq92gm5cTB72ZbdxvnZkqUWQTPFsxNOu/FPgWc++eBen/oYurq/4iq/YYjaeOx8FfGvHxg/1b5UF8UYn99j4jmyw23mCjFiLWwxWSNDntPHZNvQH5xntorYxx+3q4lLcfIJLcnv8xmi+xOeYf+EXfuFmTyyzX9InVzvQV9PRjgAem6svvJVWftOzC2Ls4WgdXAtPC6rlWOS/+Iu/+NkP/uAPbutKNejEz4eTK7DOWuswsmOQAfzo1ICNCsWvjWw0B18a0MMDyUqj4dnIJkMXDYgRb3593kCHnz7d9KPxBdCLqzxMLp3iym+69OLRkc6+PH009SKNlwx+stktjwfk85EMOhsTS0/Z+Gg6kzXwgk/8xE98ZkmYFejwJdbWGrOmYv7JZ/dWfEl3LZu6ErclmfBslsawdqulKD784Q//tHrlY7btYrzkGx8kfwue7ZgNcVvaS7zS6tJW37LQdO2ArvXaTISs6+arcydrfYfOhFtionckHw8/GSc8dWs9VnFciltsYjeQfcEXfMG2NE//lmezY3krrrzFtWLtkE2+82Psef/737/R0cTu5Gzhd+3n4z7u4zaz9Ew6TeaUUVn/7J/9s9vYhVesq881X/1di9mdcYtPXtz+CJbvv/E3/sb2ExGx4Vu+BhSXk7N4k89/8W3Cp135x+Jp3/EWE5vG/k/5lE/ZltpBs5TUXJ/3u7/7u1/GqB07Zzx//nz7S5HYHbtZhsp3Kz5X3uyLz1Z/81OF1hOuPGIUn3qH+/ECvkmcJezoWCeyE/alWM/FVr0e4WL3m9NZr+reJNqFi1/rOgZizA49bcbaoLVxa4XSy2ZtYlM67co/FrPHR77EYSkmNDHqh6Dl6cqTd2yMP8b156f6t8xXxwb/KWLj+8hOdSgO7dz4XH3Bn/VZn/Xs67/+6zd9bYMdF+DOM5aB1G6sHGIcB+ke+VvpdFbapXzjn3j1L/J+QGSCD0yYzec6h2ePvJsJ6NqWdgLiq4OZ3zKDn1x4k70kNIWTdXfA2mcq353LBpgPntb/M0MWSJM4hQUqli1rG8LkrIsF3FHTIQA5Oh1YecAmmrw0GzNNJtk1LU8+GzO+yascyeJNYH/6wCsGsRVXdHYupfHpTbvS6W4GXuzQ4oX5TTYb7K2w+sBPPpxOfuTp6dTWGLTEBN7qb6Xl3xWeQddfN6bN/N2KxXNOJ7/kgA5i0BU3EIM1E60EYQLaurIb87RjW1s0uVavtd3Jlz6K4RzvSAddu8uXvDVM69zy1bc+447djE+cwNIl5L7pm75py7Pp5DjhXAzkruVnk3w61kV0J8L6ghZnRj8XN572AfxGsPLKT91sXIvpg+JacW0kOlm2y6tPd66s22eN0w996EOvxKMt2dypcXdmD7J1hOkc8fbo4qv8+LZJKwYXH8ZdFwOgNhV/ljManM9o5R+Ls61O1bvNRIFdd+aAmFpTsbjRtV/ydPVXaw43qUab5ZcGt+JN6bQ7Kmc+1GN37bu7rO2aOJBR5+5+Guv0AUtPATy2LQwPjDn5uhTrpnDaJX8Lzrb2QM/dZyD91ltvPXt+mqiZeKjf1tfMPrnuPOsHAI9N8lMu3lNgNrLvl6jON9ZwDvi38Ltxrj/34WkLYrJmqHbihod2ki16xXwvLoYjfb740WbVZ+dJeiZztuenOp8X2doUe5ZlAsbt+glb4MjfSr9FNt3qTezd8PBku79csvnB03xOm551KO3JZvXraaLzEbttMx5pkN8V4z2U9oxQSpvwKQD/gEaz8j+QFpi7Au4cAI13Br4RTzuy5Gz4Oqx/YUs7uQbZhEG2wlOOTHLRJ453SS6dfMC3wuoj3+wcpePxN32u8mt+jW3qJzvt7cmjJROeNGmPb5xwrXtmYzv7ya40+dbYlHb3KNnH4Gt0yfApZpt12GzR8ayZaHF9g9Ust5OgfG17Uxq7ZI8w0SPeJXpu+iuPATcQsz9uAINH8aEH7rgob4t9o+PnV770YzFbKxis9GvryBkjwBq3x1Joxa0sjoMTiwmfAbDYkrkVF1d2Vpw9cvFmOppB1t1+d1jEteppKz/6oz+6TfTSueR7ypW+Bk/f+TiHTTCsR6h+wZF+vldb0R+Ls8vOGoPJgjUeA3wTVE+jVtBfrUHsxwHTTul7cX6Oyslu2yyDfqZuOxey0wLpc7yZ9tmZNi7FPHWlj2Lco0/bYiXj8WoTDDR3Oz0O1r6zwY9Hsn/+z//5rU+SN7ED2ZSe8qUfi/PhfCO2zjf5yz/chhegaSMmqLUTMaE/RWz8HNnhAxgTpDtPbsTTDs0ND+Uy3oF0zJXmuI0ej9yRz+hkQPlr8YPWQxzNyYx5/+W//JeNhWY+J5ZeySiuMEH9wNwtv9k9ykcPk38504p4hAlz7r+i3sf44R/+4c1xAfoDhlv3ZvvuhriVroLxvdchDZOxVqVfKb59+psAe+4osAfIBGKxVWi4+EqXX/G0MdPZSj5edHnpmU9mD2eHfOkw+dLhI9oln/RXGXkNB0ivsEcrjngrnrbIGohMEFwsOE7yDWbJZnP6R6sR/8iP/MjGWn3dms/fEWaP3+L+d//u320nCp18xm1hfY8ye0yfPW2vto2mzRZjMufwOV529rB4o3s0Y8AykQBiAPgmojp9fSUdj3s88nM3Ud+rDvCTycZTYDYm8GG9N33b1gS6ctUOGjPIxzPYubukbXm8E+CDW3H6lXvF8fNfPjl5aeVxB8OTnhlXfIO1O81O2lM3/jl8jpetFdMB1cdD7mEfjY60dq1egXz8B+l39vl4h/KQiv5YfGRXf9TXWrN4xu28IN+dIjbcLdJfTfpmWUrfi4vvqJzZLT7ypfU5k4rARLk75MoH6GdDPj/xzmE8kM6tePr99E//9G1yNtuxdqttN+lI3kWk46LPKkd/eNqLZY92a5zJswVMek0iO9/Id76pPouV/ExrJ/osXbBehOXrVrwZO+0u6WnT/oqo3sTdBN6dck+KgNePsqOt/5N/8k+2cduTl1mWTfi0S/YIXyu36qfHZ+O2MaOLEm0A3XxObKD4uguqnOr4rdPd9exn9ygfPbzZlWlDiLnijKtEL5T7axIZK/8H/mLw/Pnz7SSkU5KxkQkn6zYu0Bnc3s1OmO0aETkVgFYFmGBEwzdRAsWtIdrKa9g94iHHdjryoCuofJgMTDAI1sDR5f2KDdBhMxsb8bTLR3HQpwfQZr6DvPqZPpPhJxurPHq05PMPR9sMnNmR/U2/6Tc9+8AHPrB9yOPuimNsm5DtfOIpt8eyHmf6pd27DR7laGM+QFrjdoLTToHYq8s/9sf+2PaYsDYY3gRf865j4jGfASDf9TPvGbnQ89GAiSYobnQvw7vbYRAkAzouW+Y17sSeLycxEziAZkKkHfiooHZQH6Hng0N3Qp3AyWfnXnxtMfd80e04GCu0m+5w6YP1dTG7WBG3C5p3E47iFgOeOGGPYo1JYtYvJ1TGSXtd6eIVCxCP84c24TFe8ZrQGT9NIoLat8m+NuUOE2h8ZhvcizflMzt2i3v6cbdNH82v+nQR5RUDd7pcSM720mREv6zu0z3CZ8K6yGLTxpc2rE49mQqM394lNrYXzxy7TU77w480meLMxuvCYvKuZOO2+uzuobFN+4GBmGvbYjSuG3+6EzmP3euKN7vqx/lD2+58Axsr/sW/+BfbKxve+TQv8ooYMMkzbnv6pUzexxRz856OTT6eEmebr45vc7LajnaunVT/zunJkhG7+gbpwLcA+f+vYK5VNOgK3MDgP/LeDfUOm8craO6CeLE8GbgAVbD32vj0KMZLub0TQQ74CKCCwqXxNTLv5miIBjGdHZBxIvYoUiM2IHzzN3/zFgs6/5/92Z+9XXHgO8EYJPDYEBcZeS8+O7mgeZlYRSsTm3g6sAGIT++0Ohl93ud93lZ2jYkfL6HTB8XlJKuhrXFpoGyzyba0O1oasEYqLjIewYpd3uS42Pn4zu/8zu2xOXmxukJRt9LFSi5g41rwiz2b8v73//7fNzX5t093sb1O4Xj43Zt2oD74Foe20GNjJ5ug43krTv8S1k7UvfrunSJxK7O8QcvdeS/new+ZbMdI2+sOjLZdW2RTvK8TxMeHuvVIT1xi+IRP+IStL+F9/Md//FYO79gCcWsrNsfDsahP4L/umPkQt1jdBTDJNGCpV77j9Ri+d4Orb/3JHS6Tajq9b5cu+68Dsi9u4KmN8cujYO/zea9LO/aKgZO3sUa/NShr28YZJ5L6lnK+G7AXtwmOE59xCoi9ehaXcaBJU+XUN5VT+zYWsvu6QB2zz4+7LOpMugmmu3P6l2OvDdRmPNo0lroT506YO0YmovqnE7syvM56r07E2pigLN35RtMOitdYqA8ad7xXbsxuLFS3Vrdga/bP11HntZFw7117tcR5ypMV/U1bd7fTZM8jcB/iOT7A+UU/drfXx2yVEe911jn7xmhjIOgjHuc950NjjHjFbaLqaZE61qa0Z3znHBMjx6pzAVvirk5uxfSPoLrhSx3L9+RPHX7jN37jdiFO/x/+w3+4PaHwGo/4fFz1Xd/1XS/bhbjcNdW22Xuddc0+f+JwYxGYk3lvWTv2lTz/joWn1cC43fyIrneH9c/qYOLqeFM8syP3kX/rBGT8Ox7BXzwvYfL+a8qpA07HnRsdVIFauokcnv+MAvLAYGIzIe1KK7nspYMO+ldpfuk1C0+mRwzy/iMrJu+JADQnlf5djeZ/uWjiYt8/jp102Jbmy50oBwoYeFxl+bdt4MrGJIy+etOA2ORvxuV/yPJszrjYYY9dftgRuzzb8sA/VsXFBj/KUfnJ4PvnL10AyxerwY9eg6g4sjXxpryzI2PjR1zAwGDQdSHh/7jsF4e6+pjTZIo/cUoDNu7Bm9Jpx8eMd82rC3zHFG/Wn9jw+neyf5wb9MiKs39Wp1vnPKqr1bcYV9q1ebpr3aCJSxnEpG2KCc3goI06yWgL2ovyyKPTyTc7oPxj8YO1B3viAvyp3/p2bYQvcYnZpu0rp7T2bKNTmTrh3xvjjI2fPTvFjN+m/WrH/q3uYlBf7B/aToLiVMfKqKzK52LViYa9Wd97PmcsYrwks8ffi9uFpjbxMaf+VVnUZ+1DXHjiBsrpRoKy+m/4Huz5nvFfy2eb/9ke9bHasGMunT1p7YOOsjbG6X/GGeOq8fiWus72ERbjHq+T9Cy3NN/q15gm3sb16GIUqzakzrUhbVp7IU9vz9/0E/8otj3ZdMQB4OpdPfOrbp0XxCJO51/nLvE1XmvTNmXUb/2DHfA5/W7E0y6/j8X1IT4mOH91Dp99Ul+sXqWVy/nIHVxlNSlVB8XNZrZvxcWzV0Zxo0/78o69ejbHEJ9j0IauHRtTHJPaxYyL3dd53uFL/dROnFscc2ODmJ0j5aMVm3bjAqa8Milvdqqr+OX36o7MNp6eEttR75FBStdixuuw0kBeg4GBNFCx54D+NTLTH3lbusUw/aClM+kzvepP+WxO2tSd6WJBKx2ecrem2dDpxCCtTuE9qCyT5woY3VXjJVj1i3+lX7KDn85j8TW+pr9z8sWy1mPlzA6svs/V9Tk/t/Bmf1n1ije88svjg3cr5vyueC9OtL24puxMrzZfV/7IJzo46mN4ZJQpWbR3C4p7tuFoYpjpvfy7Fef0I6baAHp1O2NNBp707MzyRnsdePUzYymdTG0gunikQWXcMu/Sbo3jUgxT/l0KcdeNOGofl2LeNbAQK9dj8WL2lexTxFx8Gc4m/Logn/lqbpE/9Y/mzizc8Sim8uSjzWOX/ewdYZPcV0qZsSOcofjygilfYOXDq1z05LM75fZ49NDXSW32ok9702b05OWzuaaThfm0Tb3Jn3Tp8sUzaVNvTae30uWbpGRrr37SO+JNer5WzIbGVHmnzkznK4y3x2cLxLsX52eNd81nP/k9nAzdmS4/MX0yq581n5+Vfm2+esrOxPlPJptkZlo+2cqFFiT7WJy9I5zvYkkuv+VXnB56srfibF7SS276jAZHD09eabz8RIOjHeFrZM7p0i8ucqWP4kFPhu4K+Ype/rF4tXcUQ/RZlpnODmwcnPJo98ZJF+zpTz9k8jnTU2+Nl3w6YbrB1EVb89fK7emtvvf8T5+Tn7387+EpU/opsPGNnRnPnv9JSzYcT9427SVzK87mXhmzlQyc3KTtpZMrzimDF/8SpndJZuXnq/jXukcvrmTokJt5NHn0+gxfq8zqvzz9h1uUUidI8Qg/SD0s22M5De+4AO/ueK+kddzQvDsFZkDZRe/OnHeBvLOU/tSbunTSDx/xyU5ILjx50iudfbQVVrkjfvGFyc10equ9KbPyVht7/Oxeg/O14nSz70rIO1l9Rel2vKsX8KOnd1s85tcAPVLw2DK6ddu8o6hhtvg7X9m9FW+GT7s13jWfXLj4vSbhMY2YZnm0t2LxPm6LINPHq2OtftZ8/lb6LXlxBN7PsqapGNjQX8Sirusj2abnPdf0j95VTP6xuBjZySeapyl9TVu96tfe3cpnsZP3PldjRo/RPKICyd+KN+Ur9JOzTI2YjWUebXu8ZDxSFot99+5kcaQndu2ITo9Yk7mE2bgkc8TP/4z7N//m3/zs+fPnz94+vcvVygnaSh8adIzE2zuJsx/nK9vlH4uzp82KYR5vvNq2PqfvidljSu+q5ptc7/55dNf70OjJ3IvZAEf6D9x39tUjeWURlzpG1z+zow1pE4E1L737it+TqGSPcLpH/CN6eo1b3lv1LYLXRryXKu5ezSJLTrx9YMdu47o+gde4nu18y5d+Cqwe5/gs36PqObZMuvi9I9yYjucd9N4rFRfaY/Ba7rWs1XVy+qFxrDZQmTzGdu5cY/FRnvmUtjRtrX6O8vcch2KtbpqPeT1A//MuuX4LjM2+kicLZj9G63yzMU+7Wb5Jk17LgPbKJLSAjjAF4MTiI4QMemFVYH21S8bE1ATAwWiyis62wpFV4T4QMZAbhNDYwscDFYheebT4G/G0K+bko6cz9eMVS7eb6aYfL71pJ7kaTHmyyTfwysdnI372opGZMPPphPFK0xFH/la9mZ/2pdnI1pSrbtnUgUwo53JGcxLqL0pkPuqjPurlYGUQs2SQj78c//4EwWd+bsV0wRrzmn+QekfOAGV5DG3Mey/apMmd8oBOCuxo15ajqE7WzrX6WvPsrbRr8rX36oSOyYT+4ETteIgL1pf0EbIdd37rT2x1YkSfcE0slf0cziZ7E0zmxAGahBpgxS6u6FvitJtjho8NvKfYJJTMvfGe08UL2PeXkH/0j/7RdiJzsv3oj/7o7YStzWgjPjZ467QEyQR1o6346wwd7QoNXIo5O5fkVn56+Zhxm5g9f/58a9cWdReLMU37ncfR5KP2zU79OF/5KP9YXKzVTWN8fmrHxgofm/LnI8YmofLAcfChknjxtXs2Z9nujZX9Pd21T5IDZPFqu40frfxAxlI3TUDIq3dtzNjTmHJN7Pm7RrYy0JnyPugyDnuv0vudPvapj5I1OXWBbhLKBjB+f9u3fdsr43r2w5vgaVf+sZg9NozXc3yuLo0t2i5QPnT9DtBxjuqPfiZSfZRK1gbuxZvyaXdUxuziA2OHC9nGBcddfN4T1oaTo6ctr20pP2yVPsJkwBH/iP6g9VAnYqhN6Hs2H1GJGxhfTELFy5548eeYjjf7THWSn3NxPNTaC8kUj3AGTSr80knn6qrKV67zN08FBAsgYNtVuIJpWF6Cxp9LcxRwNoonWyoNRJeON32hB2Rtky/PFt14+DY0gD6hPJnS+NlFsxXjjCuZaU962ok3ZfGLJ35+5PORnXTlS6c388mHk5FPV4Nzt9qx0vEBG+7UuXp7/vz59iWor+MDg4Jlt3y1bYLaJD/de3C2i/UIr3LutDmJiZmOuy4mEL5eVSbHKZ67vdozeuXPD7ulj/A1Mnu6/Ns6xmQ+ePpbReBjIycRqy5YMkj/KWbxu8Ph5XexO/m5sNuDPd/kbqWvtsViZQgTBW1EHEB53AX3O0k0G1kAGzO0EV+1+lp63oUmc2tcyZ/TxQPFQcd6fX/n7/ydjaYN+PK933MqAxnybercidIdDzD5xXCEN4UXOuleg9Nb41a3Jp7AMl6+Xq39FoMyODY2Xzw7DvOOdHL5KP9YzB4b1Zu6FVvrVWYfX0zGkMrS+IlnmRgrrqDZXIil+1hcjCvmh+3si6O8tLYrL22sE78YXUxNcIfJJPvf//t/v01K9NUg20eY3BFvjy4WAJeWV9++fPbVdu1avPqqNUSde8mz6Q67O7xvnS68rHbSyiarP3bBSr83ny0XKlZ4EJ9+CfQzd/u1HTGp48rHHx3nqHTQbMk8Fm9BnHZ7ZWPbNnn6IYhmXGuCnCxcWzafKl7YhjdtZGvFm9DwtfKP8unB/bRF/ba8nz6mPtGsqgHEbCzxhAgdH+SjPoNGdkIyK95kp2CKR3jK+tWTW/Ugw37J6QQJstGAIW+rE7p97ndidK2vVefNFlyhOlgmMyrBFuQn2ZUuT4Y9uAlROFvlyZOVZ3NCsSWTzeSj88MuXFzSILxlxo4cXhv96Y8oGfUptuTCxUKuMqEVBzmQzfIr3oTGzpeeNkt4fM/3fM/2NSUbTsIeM1liwjIUJquAPQOXq0AXGKAYpPN/K6YL1nhnXro8+x5F9bvR/LFhaQnLqKjHWc8GMnkDtcletq7Fl+I74ovNVhuw3qDJRH7xLMMltn7vJg3wtIlej3GcJm8TerHL3mNxNrPDn2U81Ku7FZ/7uZ+7xa48oLGCXDrilnYn0d0BE5B4j8V8XrJRHTkBOAmb6Dx//nw7BrC8CbQTonKIlw5s0mxptk6GfMW/5Fds4JLcEX+NW3z5Z9fkSP0XK55Nf7WMkDseluoxIQX52TIvdtEei5lTL41b+hebltkJ5P2mEfZPaiAt/ol9+ewueXQ8W/L34E35tNuzI+5sdvyLRzl6LYCcNXDFpQ+qVxOmdGETPXL67jwfTpk1Bjyw0s/lq2tYPMY3kzZp68bS1d9sxmtb9ugA7cRE1MTDhVnj+sY87ZJf89HvxezRdc4Qn3FMDL7ed2fu+alPAjcP1LHXZMRs6xylHfkFMDu26rqy3Ys3x6fdXtnULcBjX9sQfzQxeZUgGplkk3e+jKatSXcXUjpbe3hjnnaX5FZ+cdN3w0Ms5m7mZUDe/K7fRKPVpvodrJsjzpNkxZ1NvtAmrP7Lk3ko4QvpFI9wRl1ZOUlyLFAGzYrd1QBo2XCrH8gL0uaqzBqcHhOYeess/UtYmmxYeub5rMDxsr85erHDC6TFAbszJ15367KFLi64ypHXiMtPWXbRi0OaXfrFjSdvAyveiKcdXRtf1Q9MHx1kF1054OylIy8N6AL6xRFv2iSTnTDaCgYij1U9pvnxH//xlzqW8PAI1ZWfq2eQHeVxhaU+bPzznf9bcTFlf8X5RmfbWnfu1nqM8PzFAEbG4zB3LHQe7xtVV3jS9AwAFubNVnW3+lzzbKy0a/K1Gfo9TvV4jK6Nf9saK/mAnHKLPR3y1TM59KfAm5EX9tjnx6NVV8furviRhHj5QzMQA3doo9PBN5C5U+BukXwbeel78CUdMduKRdrFlAHYaxvAnV3+tWFyQMzWE3USFLdHbmS09fiXYt4ET7tLcnv8GbeY5E2ITeLF9oM/+IObefUPqmNy2n13ilwsmGygV7ZN4cVuzzfWrXQ6YihWeX2yfOeO4tSG9Ev1mR7skbIJqicYdBtPbo1nlRcPWOnl8aojNL5NgmBrsxa3fGkXL2+9eH0DnZ6NHTJBPo7wtXKrPp+NJ+oRX14f806tGGwmzN/3fd+3LbcjtgnGdG3KWKT9T8hftPKPxexVX+5sOt+YH/zYj/3Yy/Nwx6IxnU80W+coaeuWsyWt7DC4F2/Kp91eGdnMbnX1/MX5xmTeJoFksKwAAEAASURBVF+bYKO4yTsW7qQDMTeWiBvs+Zz0TegKudUOv/zBxgVzOmntRHm6CWJeo+9VztqUMZC+8yS9+myxVSeX4sN/p1ecMhSroD1MIborlr/6V//qs6/92q99ecC9h/GlX/ql250PA4pHbBWWbvZ1AGknJ4vhgu6gWmPUYKpQZBwMhZ2ViM5usWwGTjtyeEFpdCdnOrYOcHIwWfbwycqTyy8bIL/Rk8OTLlZpG0BLTz46G3jy+AF6W3byn99k48PJhNHIJ0Mn/clLJl62YXJOzC4SOumiAVegHuvNl/LR8Z0wtA2PoSrjtF/6WswuOIqbHRs+f9///d+/TSxMGgI8J2PlcAdsTjTpanPasPZnDb3s0TvyG336SO9aPI/X//gf/2O74+yuMzDZAWxNoDPbFL5871TWnqZesT4WzzimfXTtoVhgfchHAsaFD754xUBs+pj3Gj0F8T6di0Jx2cC9MW7KZ/Txizlf2qpB2KsM7mQAbdsE2g8Dqmd6LsKcvG2ADXzv4eJfintTeqF3jXz26O3F7U6/iSjQZi34bkx1d9ckTxnSI6P9A+3Hxv70gVf+sZgtvm0unh1zF67uzolbnYlBG3GydhEg3vQaf91xNiEyOUFrLGf3KWLcs1EMWzCnXW3AXX3Q+QrWdtwZ146MlbNeybJvbBF7sOdzludaudUOPf6LV17dupPs7i0fgMynfdqnbe0kGjp7zu3aSe0KPcjfmo9+L2aPLuh80wUhungdf5NN71aCyih+Y/rnf/7nb08CukAgU1uRrpy3YrrgqGyOrXHXk2AyvV8Z7hyEZ6sPfvVXf/UWkzFeTC7StX9lre0f+Yz+ENlxbMmtmA8xqx88wLdF6pXHUyA/6NBH3awxURWjOgfu7Gr3eNHZnMdkE3yxW/2Xx35n5nPKXDo4FFIucF98SUe3wKrCedxpwFnB4zq32XvXxK32vmRz0NxJEUf2iik7+XVFrbPENzN34gh6jKAh08FXcbOS3O3oNrkKlGczH/6u465tPlab5S0+Sycb4kiH3xlnOnUwHYusTpTfPRmDCL6NfOVXXoMfyCYZNBitWMikH23FZMAqJ7+Cq6QaMTvihpXF5NP7Z/LKOGNDy/61ON90wYqzk1x3WeRdDOHrMCD/LTRe2yEDdEJQW5Fe/a15MmClX5tPV9z6gFhMztShl8ANZPqMVwzwbNqAtiZOfCcZXzXKZ29LvNhdG8sluWkzP/nUB+hPG2KVN1YAcet3ZD2q9M6uyb+yB1Mf7dr8Jf34sLhMfk1+xKZ9NBk2hk2f9TGTjspDT7p2xebU2cujgUtyK/9B62E/426s0ceAvL5mMuoJxTqWPFh4KDs7IF/xyj8Ws5cPxxqEZ99St+4KafdAzMpg8qQ8TtKeUFRGNh8bW/r8ld7D4mwCya/+CNv0z85X7toph3jxlCE55xV26ruXfOIHezHhHdHTC4tD3frbmrYN6Bq7O3fL106kjem2CcqCZ5tQ/rE4m+zwBfJZWj1qA8YOvPrk3jlOO1Pn5LJzL96COe2OyoivvnqH1bhAto/T8OdY0byitkTW3KfzJfn6yZHP6GRB+WsxHe1anYD0pNUbcB7Xvv/+3//7W179a98gPel0q9/40adMtDDeK5PQjBxhCk4gHuWYqftXtYrzrpGXzumpYAfDCXM6oouv4bjCcsdHgzLjNkkDDoQ7qDWgjfhiN2Niw90376wElqhxW9tVkg4mRn/c8HUrXfLu5jUZ0uno9EECO95DceejCaFHL+6YOSGtNsl71+Mnf/Int/fGlFV5Zlz8zrgc9BnXtPFH/+gffcWPP3H4ZSMwidKg62z58S4m0MDF4a5SVze+xqv88ziUnvWJVn4zeNolx7arIHx10ERBPWsLyqcuPb4pDl9herzqAsOx9l5J9Z7dW3FxFeeKK0Ny6qtBIJ4YDMjqz6bt6nCOmUc4XilgF3zqp37qhumSycY5TGGN69r85uy0m3E7ybmzyL96/F//6389+5Zv+ZaXk9TatIFC+id+4ide/hpuxpnta2O5JJe9MHltVDvptRc0dwt9DCHt6+cGabG6W2GS4cToIk4/U3Zxg0sxHPFnTLMOko8P8+3RtNeIxG3Txsk2nnk8TE6/1SeNJ9r6hDWfryNM94h3RJ/+ZtzqTn16N9TJ2WTNXTl2PLZsvNH2Oz7GV0+cjuAohlvp7Hc8pekbL4AY3OHUD7VtFyK1Y2VBJ2uMc/fZuNYXupuB0+7WeFb5c3bEN+Wl0ZyfpEH9U9p5z6Sui19j4U/91E9ty9s4eTu3eK2gPjBtn2unl+RWvlgAm8ZldetixPF3zvauvvOW/ujVAXLz3EbO+Zye82xtu+OYvwcvjz8Gqz2xaafGPHHNCzx9UjtwISie6ti507mIHrqPNLPb2F2d3IMvlZUPbaM7nNXV/PiveIxxbhT4HiY+nrlP+tlDT+8IX4rtSG/6MH4AN2WMd0Gv2DXpb9zukT0bvRefDpzPPVq8MJlXJqFV3hGmgMeASvfuiMc+PZoSlICdUOrEOQur+CZ5JjItpcB2V5Vkg2Ipzy5aE9fo824jmt/TabCAfFeo2RPrOqsXCzoZ2EvRybPDpoEGTYzi50M+2vSDdi4uNrMhTR5YJsYJEaAZGOKF1b20ONSnE1OAXqxo1SdsU4dB9rJVnlzpZA2wTey6I9QEFE+6+jEBBeyIL8jurTj9Ypo4W2Skw8k0cY6H7+TtIw5QO5DOlgGhNpydS5j+JZkjPr/5y04nrA984AMv7b7//e/fBiuyxV2s9PA9QsnGlnixO/J9K33aLD3rtpPEtKsfGCvQxD15PlRpAlr9Tz4f1+aL50g+flg/czIOar/y6tiag2JyYUV2xqece3DkOzqd0tfi1Y9YmpSJyRhhbLUEj7jlfUDg3brGwWzoD3P8iB6+NqZLctmDyYqz+jPu1R6kjf3xjBfGEm0mmvbhYpadxuhL/i/xi29PLh/qsvT0TVf/LL6POf0a1eQZJqcMJlEmcY6VR5fu+q99c893ccFH/CP61JWubslrB2LRxrUdr28EnXMaUxrX1zae3/TKPxZnT30C9vhWf9WxCamtJ6fVMfn0lNGHpfKOXTz2snMr3oycdkdlzAdc3MnGazLNd7/STh5N+9fOegqHB7JzhB+kLstN/Vl+6QnumJPVtqs/4wpabYM8PXy87GWH7B4Nf8aR/EfM33ameIRTmvxpOLrKrAD40We6CoeDAoxHb0J2VpxMdPmZnvmVHg/OPxnxw9dCdsNTb48WP144+hG+Vi795Lva0WiCeOHoe3jKzPSeLFoyNcgjuVvp2V3xrXbIZ2Pqou0d+2SPcDaO+NfSVztHefWqn9Rmk4PzdZSOfy+evtb0erzzQW6NefJWO/Fuxdk50ou/4uSjy2sHR3WcHJzutfhenelzpvM7aXvpW+WSvxffEwNfwV7bjhe+N7b02Cm94rUtk11p6eDtweTvpaOtOFsr/VI+PZjsuTa82pq6R+l04pd/Crw37uYH5gPstYv8bwIvduuxmrx70vlYMVt8XRor0lt979GjXcLZuiS38tM7h1ed8nSkO17RVzxtr7zy20XGFOzgHmGKexB91UtWsCuQLZD0komH3xYPRps25cG0M9PZyG6yUw9PIzqCbOCnN2XRsh8/PGOZOtNWuiu/fC+1r7byEV755eNnD44X3uNFI5ONPfnkwsmkE738rTj97E48bUnHi77qRidXOhntSjtAtyWTzSOc/hH/HH36YSfZbIqn9l5cMDg38GU3O9l9LM4eXBzS1Rv70fNVnhyQr66TeeA87KPdirNxpBd/xcmji01+rdtZhplO91rMx7WyydFZoRiOZKKTSzYbeHt0/PQei6et1e8erxhr68lEl5cu9viPwed0+ZptoDjg4qiO2AHxHnLv1KX8lC19hFf9I7lJL7504T3a5EvP+pbPprKvEC96+cdi9ta6y0eYj7a1XKt/fLRpM51b8fQvvecrmT1/eOjFXj5a+YlXH0d5OuCIf0SvDvAbt2c86SUXfvD20GZm+0i+WFb5+Csm/8qsMsUjPA2QkW+T15j7qqtg5JONFq6Dx2cLbX1hdvqgi++xwrXAvheHi4096TofPsiPdLFFT1ZeOp0ZO5v8xCMbHNGym53k4alDbvpNTswgPBvGpOOzN22WDm+GXuwmbaaxy+fzkt6UK30rzke+J562pOPN9Bo3Xse4OkuPbDbRpp1kVnwuvul71StfLGSLh9+2bNRe5IsxXrh4p2y8p8BsALHPGGqfsyzkikd6BbzKu/Kqm1sxO0c6k7em5cEs05qWn1t+HjQf9tGOMKkj3hF9tU+u2FYddLRZr8WcnY5RNqLDq71789lKv7x2wq/xMoiGXtylZ4zpRcv2vbiY9jDa9CPNz6StfvGukVv11jzfYKWfyxeX+qsvRgs/WH1nz142o0ZjY4U9WTLR78X5Kc7VzvRBJrn0YLT01nT8ezAdkO2JpfNVTOGp0/GY/Y5c85CpM/Wmrz06Grgkt/LFI5biL75sodvMtWoHYizOykEmW+nCyUkDcnt4o22cF7sUj3CyKm5OFNEFYmLoPRjAaZ1BXhqgF9CcsE15dsRQ4dLhE7BVeiOMXbEj5YedJojo6c9BEB3Qmb7RyEfHk89PeXJNdPlbAS0dvOxJo+MXbxh9yok32qRnL1sTZyv5GVvxhOmBmX/77be3JV+8R2bzwnp8H3V4r9JKCP1VAY8vH3h5D4bOfK9oxsPXtXmyIN8TrzbIeafJItJi4N/rCOSio/kzDlptyccyvsSl46cK+TjyO+nSIJ1bsGPS8RefVybE8N73vnfrU+LT5rx8X12yL/bZh3yUQg8dn86EW2I6V5Zs1pb4y6c6/ZzP+ZxNxPpyHX+4eJKFgZi9R+6DiAn3xsvGkW4+k/FRkvc+xecdRe0daC/i0iayRdcanGIlr63oDyskf4TJH/GO6NMHGZsl7rz/pn3IV9/istWm8LSrL//yL38Zd6/nsDvrRJ78U2A2si0WH7KqU31LfOLGt33VV33VFpvfPYNih5XT+6Df+73fu7WhykvusbGes4FXjNKVxWoayqENwGKwzqy+qW34RgKt84sPrPDIXxsvf+BaeXLVpbS+ZmywXJcYjdH1L/EZt33I2h+qHrw92z4Ia9yEtZvKPeNJ/pb4pv6eHpoP0qwdXv32IZvzi495fOC13oCq3MqnXN6FBt4PrR3JV45bMV1wFHP02rfjrH+h+7hL29belUl5HBsxwGi1Df2Xjk3cRz4nfRM67YrhWlz7gIEYvCPsA102fIAnrw7JoNm06c4ztX9liV/c1fFm/LTDBytGezgLSJ0gxSNMhhEd05pWttbkcgAEbVAUnGDI1gjYlFbpNTAHxkSGnJMXPUCuypGeNrKDj75CsaNXYDTpBoV0lCM59ppEolXx0vzQt2ULHeRDek4S5SewZwvSY882ebNc+UQrDjai0wV4peVLw2SzGX2VkQ/Ekp4PngysFni37EtxG4it9+oFd+v+WR4o2wY5Or5W7KcG2U7/Vpx+PibOVmUka/C05qMPArz0Dcj5Oh6YfIgRVPcGDGul4e2dfKZPemt+j7bK7OXzT98X4yZxlnNR97NNGmC1scrJljx9NCecbOWHzSDaY/FqT712DCzNZaImDsvWqH/1WczkSovDWPBFX/RFm0xf67J/b4xrbKsdvqd/8p/5mZ/5cpWMH/7hH94m+9q39mvilg2x+2WdD2b0B6srZIud5C7hW2SzNXXULbrj/Z73vGc7KaP5Clp/a61BtI6NdmUi589bLY+HDzp2W+a0y+djcbbZ106tvys2G1r+TTJNhrSVD3/4w4WxxUFGOX1wR0d91+afIj7O9uxUJ/kyHtjk9UO/qFYeMaOJ2w9YfPn81lis3kWKXzb2y13nzCOfk74JnXZ7sU25ya9+1BG6ujN+8O2LcV+Xa9dWfTFuawvG9GmjL5/1WSCfvel3Y552U3fyb6WLXT36kM5kU732YSZb2qxNLI4DeXSbtAt056Pnz59vMSt7N8Twwb14Uz7t9spUHGJXzzNues43yqRdGE/6yIeeYyNO6yUbN7uRwxbY87dH36Nd0uXfBFMddczF1287TZbZEKM6B+KSrt3DE9hUHnrSE47iIfPKJDTFI8yQzWTRb/b+9b/+1y9/WWag8B9jlWmQSTbnGo4rGDIOlA048ZCxVBO/NvkOUHbIFlc0BQYqRjr9jXjakQP42RVH+uFkxFcDhwNy7FfB0eFsZJcf/tDXuOTT2RKnXbRiz1785ItBvrLQlU5mpqORoasBrbaTD2+GTjs6lcfk0uZrWxsb5C0Gb4kMHccyKiZw6DYDnK9vyfoa1LI2ARq4FadfrCtmr/ZA1pd8JguuSK2hOVc68FUlHmBHedVPV9102asNFOvqc81n71bMP4DfOp3AxKY/WOC9Mrlr4TiIqbYoLQa4XwmyYYu3GX6xW+O9N59N9VLdwBY3difDsh1i6K75/KqSzwZZF6H0/Gqvi5XK+9jYjvT55iO+u58uRrRZm3gsb+auinHOkjEBHl3LCWnX2j6aDWTzEr5FNlt8lO7Y5le+tHbjbiLZ5MX8/PnzrXwuGI1z2otjBNLdMqddeo/F2WafL6sg8G2SMcFPLX71r/7V2906yxmBjtGMYdLQJ4/OrXk6YE+Pr/yp3+4ISYMPnn684KYLXe3YRa9JqBN6UL1aFB74bafzGtjzOemb0BVyqx31W33DJpwdbzads7VpY6Jx24XiasMX9cYg46Q6YGeVuTe+1U55frQRfv0tztihf/mSPJl8iqeY8KSVy/nIxYyLGraKHR/ci/NbHGH0fDiuLk74ELfzDZB3o02/7O7oxjjtjEXak+XSPI3pPImGl59LmL1LMiufTu3aIvv4xjtL7QVolQ9NnSqPO83S2r0lnciQLWbp6nraksabWPoXIMbYuGd25Bxg4M7nhz70oVd0Dc4ewxZAtrMPC1wBrKsGyLpd3dI/8uQqGFmAFg920LMrr0JhW/KTHw3O5qRFz08Vih7gTd3o0aY/tBkX2bVMaMUrTT8bkzftswHQSk8dvPJw9qXpFBe5I6DDNpye4/X/t3fvrNZsVRrHu5sGIxEDA03EQERM/AAGh4P4IQxETAUvsZmpoCAIBiIHMRC/ggpGHZsbHETESASNDKR7/Wq//33Gmadq3fbe9iu8A2qNOcccl2eOmjXrsurijI6sxasyLAaurw+h2pSzdYISkaFbefZHnL985t+VxL/97W/bDuIvf/nLhq22qQuzvCTTH7Jy0I7jKPZT5eIUG/d3BzyuoOBdWfQKGLSuQ5Mvqj3sm/AFf2ANNwzGiNec2WGj2uRz9hF+ZJu1w/PuQhO3r0Rlsym8wI+YYsgRwtXtmH2W1kch7BBcEYDZSXVEzy0SXj/moMMBN5klym/15+JrjBlXTDk1j5J3ILfGtn700U6x7ZXO9L3aPLXOd+MVTvEjX2epH2+fTr6UHRglS2/y1hedlyT+26eIM8eNPH/jG9/Ywtvf6Z8DJ2Pf1eheWUgezvhLYubbXCVH5YlMbFfpbGvIa6RcGbVdNneQrxjVVxm9lyC5iszZ3nVr+/rrX//6iEGfUDx8YbQv0je3RqDGXe338s3Zzg9/6zr2/lW47W+0my9ceDPHuZ3kt69u9+FOe+PIeuuVZfpnvL00iW8xnpvvjJNJ2qP6SuaiE4zmmpnn9OPZHnF6p/6+d1BBsRV8xA1aXxFy78Avf/nLx7/QXcr117xEO6LeswfW4HdmZofpTMtkaFJ0r0dk8kcAVlYPKz98TEqvzhc/He2S1pkief5eJWI7kidTT0ZPuUQXhzxiY8fLf3HTi9PN55Qlx8/J+YUhossfUl5twxFnm152+drj9VmbHa6/E6wv76xE/DoL8jeUq9l//vOfN1m+cQdTeFdFN8N/wQ9sFuvEp9y+8pWvPJ60wFNOQGm94k48/K3jfpg2Rvr8ZHPEn9It40Zsvi12Zv4pgIXclS0HEM6mtbt/x6SVDby1w2H7W/v5FHxHtmIgmPz74SqET9G5sgmD8WaSKp/0yPDs/K3t9gNj5N13331s2xRe4Efs4nOvD8a3vybtxJww2ZE50NQneY3Y/epXv9pe9P2tb31r+3vQS6bnfaHlJJvn5q3Xub3XH/Ovq+W2Se3Nw80b5m23F/hb08dCsntujKu/uc5hcHXO7Sb2FW1/tlN/p3blGbYVX7r8T5/p3cpXnLM+49vO5N2+AwZjw7boL3lXzMlc5bRPdDDqAw2tJ3608/GvoMZF8XHziBNyYxset3DA68q/DwGkO3M6sbKhg5RfgsLN95y3/V0crnCGRU6nnf2QftlPwTlxvwRm/otfPLHtb+Am8950xzrf/OY3t+Mm7/ElR/gPf/jD7VYkdf/I5Gf6TXePkz2V/Kv99ukk0Am3+S58/MJR3q0XpO6fC/OjkwXEJr1NcOXP1t90W7FH3IaEGJksJNdEMsnfbv5CRO59sLPsplsTYldBrSD+7IDcM+EvAX9t6DA9O2U4DDJ6dVCZnB4fc8MmpxetZe0mkXynh+dfG9/TtnZy8S1RenzD04Ex+cSd/zDik/hGU57vfPFnEMA4dfOdXFs2/BVTDOXwT//Z4EjbzIN15K94B0MGnZ02X874lJG6yc6BZ2SitlMUUzs6intJns9r9MSqD+zUp8xZHKzIGOqeGDl0kN0BaFeUyMN/xDdnp59L+PbaYVj9ikkXd0DqJM9CD2djvcite3Nqh0O5sR4ufC/2PfJ8Nm5hsL2La2JyryRMsDu7h19s96Oh/rLUlx5iymd5UL8X7yXbGcP49TeZ8e2l/8ZGXxxqW+HPWHBfJXKg4QqHv+S7TxrWa/Hyca3u1FOW87k98RWR+6vMAb2Tevowt03qt/75R+MczZj07q1nG978kMOibpwqeyZg3Q58sSU9NvUdJ7ege/lmfPoJ18r5NYaRtg4s4FTXbtwgJ+nqYTFemj9c4ZcDt0CwRWustb4pXaG32k0Myta9v4ld6bLuLcY8HlY+zIfGCpl25Tm3Fyebe/HlZ+X5w2sTSxlf49IzZuCmY6l/2qZ+/u7l/KHVfo2h3vpNn8xi/fuXxYcCXHhLTs8tCObN1Uad3jm+NZ5+VmyX6uzmdiROxy+w7pH7hPmdfWRHFl/j5meVV9f+eNSW8IgDHPUE49RVtthoXUlwf53EWtqJ2rnrgL/yS66No3adVxYrXyUKr8zWlYs5QTgwZk8H2YiaBOib0GY7/3aG4VB3hs6nsmX9y8oGnU8xbADtWPWL/z51xZ7vcGkngysbPpQ7IFJHZPQQn2KyhS0/DkDKB/uJS1z1ZOqzn/xWX3ltye2gXe2xeIikG5Y/85nPbJOALyz89vQXw2c/+9ntvhw5NXnB62qdJ/6Uo/zeyq+1Tw9OeJ0EOajor2o7ArGdddqolN0TI1d05dvJUuWwX+LFvbVf9C2NTfl2IuYBBvisY20oDMpsvvvd7z5ebV7bGyvk0T3Y2K52q7+Ja7bJIbIeLIiv8u0k1q0GDujI3TM4aY17bb0457g241S+3UZkfMu77dcYhhceVzDouQ3JvaKNe58KdJ+uE7G+5POc+PZ8GQeNE/jdwuDKoc8VIwfExrUT+q7U6Y/7t/XT+nA1zIGT7UGMo3XH3x6GW+TpNiert036K96Bm/7ADS/cfWbZHGh8w+cKu3sYrQP1dXuoD7dyeNBeP8uNHXN/ceuH+QxOufQZTvsMuHxf23hAcutzqeZo840+eSOAv2o7wd2LyTa5Mqp+Da//7GCVQyeB5MY2PB4ctr8wfs3bn/vc57bxbczD3DxpfaDq+Y5vjaefa3DRvaSXv+Y/+TJvyx9yxRleY8G4R+XYSdWnP/3px36xEw9Wy6XYl9q3YKefqbeXBzk2vs0J8ua2DPnXl29/+9vbhTt166F9s/HFhm0ntMXDi3PE053YyM7V80VPWXwYjQnznbHTnOJEW902595txyXGP7xszOEz1izzH63y6tofjywTXuL+gn3nnXe2v6Ak20MIBoenSnXIPT/diM0XWVxAZROjK6kz1kxMcvpRPuiJK2Y7LW3qkuIysTNWeHw7XRxkENsATcD07VjcBuDKgfr00eV8V3M+//nPb2cI/s7wZKzvR/eghb76PnB1Z2LitOGKC5cDCj4dGITL2Y+YfPjuu9sUXOmE3VOMsNPRX5OX+3n4mNjFUdf+j3/84wM+JlZYJs31wkd1OrNssPV0uTaTlg3HiYbvq8ujnMLvLE+eumzPrp2mGCjft/LN+Ar79DoAEscBcphwBw1y2VUMOOV39pOf2pXDf8TpoFv7teqXbxt+Y5VONDGGuzbYXIWkL+/Tjs4a69568SbPF5k+wBJWbfDUH0+9Vqaj3cGdbxfn514epiP72nHjtTkhuQkZweXKRZgcKBs7xolxbw7Sx09+8pPvGydsj2Inv0Yn3fi0UUbmNk+Nw4Aa11vl9COnH/3oRx/Hvj7Zdm0POGo878VJdi/fApx+5lhsTMhr21e4xXEwAZO2dPXTJy8//OEP53LjYb+X5+yof9r5ti0Wwzgwd5DpA2ru4Ke5xjZgLjdmzEXaUH6OYibflE8/1a/lxaA/c0gOE5l9dvO22yNg1C9jQrltQl9sI/mcfBOefq7FdUmvvDT/0S+XYtm/9MBj+3R5bX/jVpr61Wcx+eQHXYp/qX3PB1m48carfaQ8to80V8itB5CQCzfWg5hf/epXH33oL+KrMTf91za5MrqEf21/sHqIFW7j2foW03gwNj7+8Y9vdfb2LcZ++u2j8jV58ZJVX7n2x892/u53v3sMBsSqXN1K7+iXzJmKMysHTuo60oMo2Qg0y56i/dSnPvUfb7+6GV07chbk/rHiz8lLez6sVGdu/gJMzhYWK9fG795VA8ENwfxpd8BpwkB8OIPtSVK+XT1zYMcHG2ffMHZwxaeyT00hVyHkw701iE9nOf7WQ/ksrjNqPgzIHsTiA14+4Q37GsdGOA9CxSlX4eAzH2TFCQdM5Uz5HLUO0in3R/Xk047Nug7Teyk+4x/FqC90bUgwttFfssl25Ud218rP4S7Wnq+1D//qfO9hghcOV+2deJVjchSHvXrlTfCa/OzlfU/20nCvjTn1GhevW14nxjVv2hDM6cWnfFM6/dR2L8/PEZ85LEa66s0bZK/Ldreu7xV3+O/lz+1vxbH6X+vpJ48nn/xc29S7p7z6XuvnfDa+6cwxpr76qX7E2dxK+WJ3VL4G13OMecc9jwehDlquJTsVOxcdmJ0I+BE47WjdKZFli1tW3+lMuXKxZpnuOaKLslUmC98sa4vCpX6kk278Wr30j7jYewdK0//Et/pxEE63A2Tt2cZXm736U3SzvZfvYV59ncOc7tRJhhsPM8e1Tf1L5Wxu5avfab/imrrW+TzYU4/ysdaT38vzd46v47VY02Ydr6tO9Vu5GEc2s21iOVfO1zmd6Tf9I36Lbj6OYq/tM6e1xaePPVnttT2V52+P51ub8joXk9cXPJp2yZ7K87lyfldse7GyS38P97RL/xLf83eNzYy1lrNPvtbDvsonlmynLP17+fQ5/a7yc/WJvTkzXts9vJhr35Lj2mas2baWYViPgfJNt/bKq/1ePftb+Nzm9nyS5U85XHv9pIdm27StvPL3fTs+J5f4FulVsHQDVwA6tcWTVWdTebaRo9qtLISnry09MovOo9m2CU4/2qc+eVdoZhv5qkeG8lu8WW9lJnuweM9XPpOvvPZ4mNTrtxjq2iL1ZBOX9vSSV88WZzv5Vnn1M/WnDzZhmvp7svznq/q9fGI98jExhTtZOKrj6axt/FuSX+L5PMJ1SR6O/Kzxkudnts8Nn15t2cSzfSrP38rFbRwoizOxVI7XHs/fc+Db87HGFS895drjZCidKZ/l2h+039NPvvLpc207qhcPb8kPG3mPa89PmCZf29UnZftUns/wwjgp/yseOrWlv85/+dQe/lt5vos1ubKTu/yLj5KlS9b2p5w8TobUw1fbJZ7dtTz/uGUv3xPH9KuM8hG2fKmvtvTTeyov7ozH/0r1Kb3s6M1y64vsqdjCMP0UC7eIV5k+3fTTzU/19OlVxqvH2U2bWc9nsa7l+Ut/+iluPGzV6So352Qb14bis5wsru1x9kl4iTOScH/1AtEGiLMF2IY6/dThBpA29ulsQE52HRiyZ8MnWTHzr559vrXxrx6nN2OQzyu4tZNnn36cDqJTv2oTKzs64Q6TevnRjqbtg+S9A2wx0lHmp7z6m702XFsLnxb1fKSbfTrkiO4e34TLT7ZxPieRk+3Ja6OvfBT3krx4l/RqL16Yw7HXbkw09vSBTuuOXb7O8U3p9JP/W3n28XBfwiVOumGtD+v6uBXTkX4YtadDJr6YOPnERd62Fy7bMDJm02XXGM73rZzPPRsxJtGZS+3hy0fYaudjlsPLLpsjXvyj9iN58cISRv7YFBunkx/ttZFZ8pFOvumi5E/l+SpePAy4pXsni8cuzPHm1vqXL7rhv5WzRcVdOX+NWfFRDynRtVj3OL09ClPzSTprrLV+rd60E0sdn8vUmWUxspnx6KSnX3Qa48qT0nsqDwfeOs/njFee00uXTvpk9pd08jvb07uWF3/q84tmDDkKX+MiHbbZJJvY5rg2L+YnmyPOF5rYrqmLB2PbVfbhrr6HCz5yCz2L7QKxR9lvlVFPHt90U9oqJ2fnuDbJcPOwG/jdaNsDIJ7EUyb39FREvwQCjQConB6uAw16dXp1Sn1uyFOP/3ZobLTlv87yE444nyhddiWYHb14Og8W7/9Nh31lnM3Ez6p6vsmUW9SR+kr8T3vt4aKvnJ0yDE2edNWj9FZee/YetPJEn3XuqXH38yIPYfm2MLn13t/92tz07n7VnjL3NgS0tw7W+Ef1zcHp56idvJzj1+JmNzfEOYY9UFa8cnfEr8FHJ3+T86ku53D7ooy8ekBAm+UIFztPWrZ+cPk2Kcx1fxT7HjkbFGb41nyvuIwFD9BNXHQsnjg2fvJJVvkefs5mc3z6Kbb7uL0707wFo1cbGafuFycr/2TKvz09aOie98Z97zeu/RL2Gf8czulHXPWwKMPn4QE4egOF94QaJ2Qe0qQHl8XY8g5FfaIDt3bLSsmeyvmdcyp/HiaFIdxk7n/3sMaab/awe3BJW/ezlwcc3cs349PPXj/LWdsQHYu6XMJvvHiKmFzZ0jw4MZGVd37RXswp35Su0Fv9HOW7b8fPcdB458MCs9clGk/wmt89aT5x1a978a14qxejTz6LL8f2N2Lap8DT+JZTudSWD0/J0+FDHpD1Vfu9fHN0+pn25aH4uOdqJj52sHhFlr7g5g/EFxv9tK1qNw8hc2TjZMbRttbJ0MR2TZ0fY8HCFvcmH2+tQOdwwdd4h5tux00rjs3Z6WeVV9f+3lHJGcUMcA/EeM2EJ8c9HITIvdLBN6B7ZyGZRM6BMsvsJCLfldvIS7bkzPIcVK2oMBh4/NHJBp+JNuGpF4dt+hNL9rMf+WGjvSWMEw9ZNMvF0Kacj3TjU05P32DHtUXlND7lyulrLx55PlaujR59uH2xwmtfvNO1d37S8YYDE4PPLXo/pIPOMGvzFgVy93z0oBq/aI15bf2SbevhGtwwGqti118vm25s28nzU17DfsS3jt3ZN3GQWPJtIvX6miajcPnGsIcCJy42Jjevc5r5diXAup90bZ4v6eWzvOGNEy9z9zL0FZe3THhAL1xi1G9fmYnK7yUMR+35ubbduwYd7M/xDYMxOzHCKp/ebqEv9D0tSk6/voh/FDv5NTrp4vzjxWpMekrV11i8tkab91EaB15z13afTa+XY+O1eV69wi9fE88sTwz3yNmYW30Bx3rnzyK+J5nhLnc+JwoLvI3bsMP8gx/8YDtAygc7C7qXb8ann71+ik1eHGX4YHOgYS40V3znO9/ZDpK9McHBm3XgAIk9crDvoy62TS+J7wLNXkz6yZVR9Wv5Xr7F9qSzh4edsFrkFP51HDgQ0U/jCNnfozXHm/D0cy2uS3rFcFXcfGb78soi+ZZLOJwwNs85IQlTWGD3ujXUuG49XIp/qZ3PqVNsXCzc3GDb65v3bLyc/q233tpeKTk/ZMCGP3a9xtI8qG4dRuroiKc3sZFdqvNXjugqeyVapH0PF7n9kzHl5faNk3zsxd6ThU/bwwx0KhAKcI5r8/S4JFm5Jmo7HHL173//+9sXUwDUqTkATIKuqEV2pnaq3hmI2BTfAQL5Jz7xie3FyuSR2DrvrMEGb9DCYGLo3VYmBJgMSLZ8IzJPs8NmcOPa4cQdzRerAwB2yehXT8YnwqdNvulVTi9bdWVLfvZ0sp+Y6cM9uXL++EHJpi15GFY+bcR15SIfvVYie1e/vObKztgDT/Rq69u5JmFnSpPWmNfW833Ey9M1uGG3kSH6cmnjQsoOvI2rsJWDI74Znn7Sv4WHm4/52jF16y1cyk724GrdF8cLypXLd+ubj3Sei/OJZi7CTe4tDvChFRd5/bUtGxs+XQcvf/m8F+sW9PRzZF97ON4+vf1C2RUXuMxvYaCrHNeu7nOq/3N6v6myg5GVjmInp1/5Gj4x0IfXAT08yubK5mQ7cG8EYWPJv3eFGvMWByG2V6+Wqz1+K7Zz+tpggNP6FcOBApkTK/Oztnxo14biyvYb2ryTc9Wpfg/nG7FdefkM+6Zw+vHvCGyuevnHwsGzfZArSOR/+MMfNtXw8+2Vheq+ZOXKkfJezImheJf01nZ4w6ytfHtzDGy+sX5uHIhrnjc25nxffyb2iXfFcWudL7jnhQ7zSHL8t6eriLA7gJ4HoTA5GPLmmV7fZLtoHbK9Fc+qv+ejXKRrnBrn3mPaA8DaLHJpQfoZPnVjAjkx04a081+MI74pn37CcC3PX/aOn1xQskR7uLT5xwXJr4+72B/pN4J/xUC+yqpre9jizyiljFeWIKTuO8u4gdGE7Eyw9jrrqqmDQ3rOytS9T8uESYbSJUdf+tKXHtvoOMMotr//v/a1r20rzqTa4Pvyl7+8nXV7qWqYw42LgYq1VUY93fRqx2tbZfnCs5uxpt2Up7vyqT9jTQz5ic+2/E1bstVvevH0q6ePu+rpTDQyQL2j0GRl41/fruBMlk1nStnh+b+VX7KdeOmew20M+twiDNllgxtn/u4MYzpHnA1K/xa++uTH+LZB5yedFRdd5PVibpEo3+zYZEcnX0/lfKH8zBjWuSWCax0H6bsSZrt1hT/Slt97OV9HtsXBxbIY13JnzvC6ufDF86XuoNmr0FzdszQf5TfdI36t3rQXt4W9NguZ7c5YhqN51Kf3tE1sdjLaYfduYrdGHNGMXbx7OBsYwquOYPP6O7iVo8r1LRzaXcRoR5feU3lxizN5vlf86sbr26eTFxc0jG+UrXK2ZJXxdGY52cr5Qav8Uj28D9YPv+K5Cgq3efvSOAgz61neq1/Cc217vsuNbbJ5hMz4tb8xX9jf+O59ZNul672cFiRu2K/FcKS3OXzlM994/pWR3MNhXvj73/++yfg0pziAhpONJXwOPPPjBAfVnk6yPU6GjrAfyYvJ1kGzT0X3Ckgyx2rpTFzaIv212E+i8K4xa9vjm8wPWg3X+oPWe4EaIG+99dbW5MzE0b93Zvr6SImsI8566bSoexm7A02yOsAZOXJm0RlF/vNnJ+2vBPJ5EErfFU1//7hCZ4Nj08JvfVNG2mZ85VXnQfODA48822zCGE9n9THbta31VT//ya/l7PZsixfP36yzc4XXGTQyGSA7M7nvBcHzarOJzr1FrnYbC2vs/N/Kxb1kQwddwu17ubBN4pudCVD5rdPYLl59OOL5Sf8Wnk8+lO3cnMh1UEHO38RFhujT8/WWmW/yMDxoXs5d+pf46i8cxomvmNSfcDkw/vGPf/x4UM0/nXbgdihzx3Ip/qV2eI50wi5+OMkcXJoz7Kwn0clXcu8a9pe8g6j1BCzdI56Po/YjeXaTuwLny3HNkdqcFDqxR10MUIbX9mpxRebdd98l3mjmgeAIw63yB+8P/th2lce+A7Zwa5sYZhxy/TSu7Cgnvmzu5RPf9Cu+neukicm4tm+y71rnEDbhyUZduTqdykecDjpqPyevbebbiYd52bzt1qlrxsEDgvf/1rekxXoqzx/ePKJsf8O327ra3ziYa39DxzboHzn7HHOkW4KQdVju1e/FyBZN+/IweWPGOHUgiryAnp3bq9YLNeTsOxD1d34x2NauPOPMujLK7hqeL3bKtkV2rpp7nkA+UbjWOVEbO9sxu7dPJ2So8bZi0LbKqmv7Lz8o4RF/0Hr4FcxVpPl3jhaTm4NQXxrhB9D8ae8zmDaEyFd9UHrTpsvx6eLaI4OxS9zJvCw/HRudT1FVx0uUg9hJ4q8yVxQmSXoH3+TVZ1+nD/GcBaH6l02yWd8UTz+rTD39dGacVZ/OlIldfG0zH7OuvBI7g9KVEw8POBO1U+DDTttGRubAX0w3hzfRud/OxjjvkTmKfUkermv1LuF20NEVOLnMLzsbpbE9qfwd8XTzcwtv8mLDv0nUiZiTLJNqZJuTa0QXbrZ2Kk64XMkr3/zQCUc2z8H5WEk848TOzjiB207DDhsuB9bK9Jw04v7GMV+E8bk4bEe+Jm4YUPNWJ797Ol1tcc+X8e92DX99K3dbB7ujuMnzXf1anl0xxPXXpLlWHuXbAZEdh/HgSsZPfvKT7eqL7bI4dua2z+r8lYdi1PZUvvoTBxbbF8wWdVSsicX4VtdP49rf3/Sbw9O9l6/4woDPMv/V2XzkIx/Zrhp52IccHmPffGesIzgt2ptfnIyFPX9HfHNy+jlqP5Kzqw1uGORb7tzeZtyQNw6KQ88YR3TU8ZXKdfJiPZXnD3dSan9j322+c1CK7G/8S0rmr2AYLbbfL37xi9utP5viqx864X0OfNNHfifXDsvcvuTZLVR9XcvXzeZxhVt7nIyZG9cTGv6mf91a6/V3YiM7V88HHfsP2+FbywUXuNqv/PSnP9302h75Z+fWr7k/mn4nhllecWl7uAHhVNDIyRGnPMlNtL77jlxq/v3vf7+VDR4JnX40mBxtDH/84x+3CdMk6QDNpO6MEtlAdc5OCnmyLCLriFwyHCTw50BVIsiQsw33I/q7R7urFd0rmi/cVRj3Nhg04jp4ou8GeBjgd5XBjsbgt0H6dvSHPvSh7VvAfJh4fLbT/TZyZ0fAx/e+973Nno4DB3FcPfF3kjN6n+TsG8n5sMEVZ+oUx9UNOxxYTRZhrR2OIx/r4Ki+cr5Wgq/7RBy02ejl3JUUZQcXcuyAX+59gtTnAt1/1IGHg6lojXlt/Vr79M7htp4sDo6tZ7n0gIGxAI+xbR1OmuOZzlpP99r+rHr5g9tVTZMqXJ4MNnasd/8e2OboImPY2LbzMz7P5Zv+GvPeOl8rzXwbx8ZKB58dGDcOyrdJDoZf//rX23gyYaN7cWV3zkd5TseY7UEe2323AjUHmaP8xWfbt91aF3yoi6etz2bm8xzXhsJ6LX+weviVT1d+HNQ4sDDHmIOaB22X6Atf+MIjbmPb1SMni+ahPiFIb+ZE/VpMl/T4isQwx9px2b6cNMHdp4fN10i/nJg0x9kuzT/GlCV9uuG+l/OB9vrBZ/uB/NNrP/anP/1p64+63OqL3KLmQnOyk3S3EhjzP//5z7d9I529mFOujC7pre0PVg+/cijf5g0Y4aNvP6rceDd3tM+BVxlepC+InTyUi034Sl77U3j+bI/dUmR96wPs9ifmbGPf/sYVUnNO+70ubMHt069I/8K95unWOn+rzZqLcmb76gE0+B3z6IvjHDjd2+we+uYSVyDR3oWPYhzxzfD0s2K7VGdHxzL/kXAl1DwsnofBcPMKrn+2xy4OGlf2k3ys+PKPoyM82h4vKx4pJac8yQp+63T0LLib3h0tO/N2w7YHluw0JziThzMAR/vuBXNjvQeTDDrED+LXRov47W9gOwUTFZ82IitMEvhTdikbmWh94tLCtwNkNp0V8S+Wyc6gDqOyM+6JW186G8TtVLvxnJ1yVzrFzkd9IeOznYIzOgfLBmU6fOhbZ3vi8EkuBlLmgw2ZsgcjkDp/bPZ8bEoHP2GI76nJpzza4P2laoftANSZkvVtnZgk/N0Hp/5ZP54I1S9Xw6Li3Mv5uWRbrHO4jRkHPk4w+GsdKVv/yJOsk1oXRzzdS/j22snyC7eriTBa0uff2O3KIf3G8G9+85ttXaz5ZjPtKz+V87vSzDfcqHkBLhNdceXbtoLI6jtuSe9ent89Loeo9ewqpnH9i1/8YpsjPEiFeq2YsWy7apv82Mc+tu0Yf/azn20HFQ78HYjCei1e/q/VTQ9eZfkxR8g3TMYx/HZo5kEHePJv+3QQKve2S/rk77zzzjaO6Oa7/MOFkj+V81WexbBDNmcrwwK3HZp6O2IHQMj4ML69IsicYg5ik365oBv+WzlbdNTPh9aHXzr6Yr9lPwa7e+kcTDi5gs8/fcaPAw05t35cXff3LOzGytwOjuImP4ctnZW3n2NbvpXFN5btJ5W7ugXf3Oeo82k9of4dKE453hpPP8mfyvNne7SvaX9j3Mrlur/xpHk5hr/4+VF3MIjXdi+fPpXzIxczH/aHcmu+KG/mcthdnHOCa19pXFg3UXa2yelPe/Ujno8w3cL5pN9SDD7JjHHYjF/15m16xpm59K1Xx4DTNvuwzTo/s678vs92UgjYyilPmTp9QGycuLqylY+nn66VQz51tNGzIGdo9PiyRPzruLbO4oofJ5+xsw1H/ujwhcimDd2w117f6IZzMz79qDvLCTNfsx62PZ/JwqcuVvVizLjaYBeHfI/Sn+3O1PmeB4V7tsnyMbEkozN905l6+Zh62v8VFMaJJ9keHjmZ4ymceOMpu3zu8af2rXw21vhrPBRfW2UY1u1hts0+b0Yv9FOcchIGfPal8PWzenY4yl/tz83zL578oomhMnn5VZ6413Lrhd5LUfmBSbn6jEdWn2Bc5wjt5OHPT/Xp67nKxWzOqi5m8ed2Ju5sU9cnupXlWz15+rfyzeHBjxiu5jtwhL11LGZxwl/fyCeFmbwlP1PvOctiihWm6jMGWf1o36cdtrUP005Ze/1a256jHja+ZhzlFZt6+VQOW7qNj+nnOTDyUSw8gqW8FzvdcCbPjpwMhds64af6Ob4Z3vgzsSs3BspT7dNtuMOSTbrk6Uy7S+XtqutUCsQeL7ikzYAFljRtwE1g/NMnN9nUaTw9OrU5mEP5Y9uKipNZ0ouT5ROPpowPsfKhPnVb+fVrthczzo6+iQqRswun9mlfHHqV8cpyhPhITjcfq146yTfj0w99lG08fW3ZrHzarfr8ZKucXzzMm8KrH/L8p1/9Vp7fc3bhoTP1yBFZONSVnTCUd/Vs9Sd5dtnscTI0415bZzNjsSt+Ywk2Yy3/yrYVfK5v7RYyNpOyfSrPJ//iFJNcmTy8yYoZ1rj2ynQqZ3cPP2dTTuR34k8eTj6sE/WZd3K6LfBmqy37I04HHbUfydu+xCtmug8e9+fM2nA+ELzlmY/VT/WncrHKs1yKyyfZjD/7o2xJD6+ubMyzz2/9uYezQfyu3Dp3hQ2HGxcThVF94msc5C+cbGbO1dM54nTQUfuRvLzMfNeH8q+uD+VSnHKsHIkxF/L6OHWUj/BcK89v+Kuvcaprh7n1om4JL73Wk/K1OI70Vh8TX3HYlsfwsFNuLGhH2bRuNuGrH/uk/F/i2R3h3pNPbOHJD968p9z6SMaWTcdrymLQm1TcZNVXrv3xSG1tXOuUASCXuA4W6xAwgASO/gQ2O8MelYA6htdWp+mR1Vl1lCx5vrTByNcspw9HvuujNjJUG043HW35rC/q6Wunqw0WbXg+lCfG2nF2xZly+rVlyx+8axx2YciXevGV6aR3xNlmkw7bSaucDVlLuvw0TpQt2d7K83nO7hrc5YYf+q2/+qAepdt6IE+28mzO4aOz187XzA09McnmQfLcacDZyRQ9hJdvde2T9mJrv1XORiwL7NmTTyKfizZjl6xtrr5rIy+v1e/hRzb5npj1IYzkLXykb120/ZGvVB7I+TrHt8Yr9I78sC/35SvMxkT5Jau9mPqQjI+oWGs9+b08f+ErT3DAWX7DpE5uCWs2dCyzLft7efj2+hem4oYnXTjm9ghDOKZtdvqRrbiVj/g5bJfsyxmOjItk8FQnU7dcwg+npT5ujk8/R/hvlTdXZZf/yYuNz/7AX1/ZW9Kdcr7yfytfbfMvNuzFwfOdrD6EU7vxo53Mkn9tcw4vzhHPdzGv5SvOMPA39yvGithhxdWnftjJwhmOS/i0/xfllpzt8U35FJyuJM2j9dkhZ48TYJ1gR97Gy18EeHpxbeTskoVzyujV+dk+y/lPpq4P6kiZDMEnXrp4bdqVs6tOZoGjs+fa8qNdniJ1sVDx0sFXCgeefjoNDPWJrfpcH2t7PuJ0pz45POxa0q0Nz+/ETtbYUF79Tj/PUV797+GuD3DRD7ec2vjYJK8tP7OftcWfgr+xWO6KBwdcEXyuutdeG3sES/k2trpCn/1zcrHP5Vss7eEpdn0t3zPX8D9HPou18vxP3MUvp+q1wzjXSeX8qFumzRrzuepiFr944YBTGSWb9TCwb33Ux9peisMmZhhxJH7lsKpbtBm/5OmwUQ+3cnb3cj4v0cw53WLBUS7J1OlO/fJd/2u7FPMp7eEob2u+JkZxZp2uvpDVzzCnl/wpGPdsmxf22pKtfUkuv7WRVYf1pfDmV17s82e+y1mY6CqTT66sjRxvPMX1pThHnM49lL+JIRzJ9ImsfIqjDbFXtp22/6FXHjalK374OcV4b8O5ZPPK4DGwoAFXRu3I1ekDGXC6iGwSebJ81l492/wmD9OKo/Zpx2d1OGe9+CW2en7pFrsyjsjZ4fy28sL2oPXegKpeXthFbJC4YVWHpxWcPJ1s6KHaH2oP+CpnM/WmPiwTj7b8k0/dPZ/J8j/t92yn/lPL1+CGIUx4NvJrY6qPU6f+PxXfkb0xI67xIG5jUBmF0fp3nxo88CafYzXcfDTGj+I+RS528fkprjK5evjJYJy46ehPPtKfdXb5uJazOUfFSWfFWl27/LVOiq8PdCzK1WvP73Pz4vFb/GRyW7/KMT3llZKxRdVXveeqw2Y9h1FOi0mGwoInK++10dPH6nHyl6DWJ6wT1xq3MUyfbn2bdTL1fL4EXj75n/kWd+Z7Yi+/YQrf1Ann7Fey5+bFX/2Gj3yWp175Tbb2LflLcTlvjIgdhVdbeU1GRzlbdbb01v5oewkSp+0NlhlXPczhgoG8Nlxb+5nV3zWYN18FVrmG6KMAKmeL5y++6qqjbPI3ZUflbGbstTzjph9Pt3qcfNqJH6WzV6+Nbb7pVY5Pvcr5O8dX3fxlU+5WveR7eunu8WlXOx9H5fyvOurT14p72l1b5m/iOLKbOufK01964VzryY9ikk9/5/T22spVccRf/ZEdyfkMs3J+kq++yJ9C4eVjxp3l2QbPnMiKveJMnp97+D19PYqz5+sS5vpwxPd8Humu8nBO+ZSt5VmfNpW1T52nYMvn5PyhmTOyWS9+nP4sz3r+ao/TuYcu9Xf1Xz0uZjtx5SlX36NrdNhdwrbnO1n5Fat8n8tdmFaev+TV8afgm36u8bUXf/Wx1u+xWX1Uv6av4pnj5njIPh6m6W+ul9rj2Z3j09c5vb224ky++quN/Syv9dlWGV/9sUuGo//OIMEmPfNzrd4ZF+9rep39vc7YJPEafK3f9M/ZnGt730q7ovKcvsJ+RdirVV5nfK8zttd9XbzJ3dWbwAcU3+TuAym5WvAmd1en6gOKb3L3gZRcLfh3zR3cHZv89+xEwksZuFbvkp/aX2d/rzM2+dvDN1dwV6DoXbP8maUwAAAAh0lEQVSu9/y1nm7lz+nrqK+3Ypr6rzO+1xnb674u3uRujvLbym9yd1u+pvab3M1s3FZ+k7vb8jW1/91yN49DlP/zn//85//q0Ne//vXdA5rZ2Tflf48MdBDayjZIvfwX91L55x60/x5ZeYPyTQbeZOBNBt5k4E0G3mTg/zsDHZv86Ec/+o//AyEXQ+8iHhJ6AAAAAElFTkSuQmCC;" vertex="1" parent="1">
          <mxGeometry x="119" y="126" width="989.85" height="403" as="geometry" />
        </mxCell>
        <mxCell id="0hDTnjNGJMCXtrsAU_51-2" value="" style="endArrow=none;html=1;rounded=0;exitX=0;exitY=0.25;exitDx=0;exitDy=0;strokeColor=#0FFF87;strokeWidth=3;" edge="1" parent="1">
          <mxGeometry width="50" height="50" relative="1" as="geometry">
            <mxPoint x="119" y="230.75" as="sourcePoint" />
            <mxPoint x="1109" y="231" as="targetPoint" />
          </mxGeometry>
        </mxCell>
        <mxCell id="0hDTnjNGJMCXtrsAU_51-3" value="" style="endArrow=none;html=1;rounded=0;exitX=0;exitY=0.25;exitDx=0;exitDy=0;strokeColor=#0FFF87;strokeWidth=3;" edge="1" parent="1">
          <mxGeometry width="50" height="50" relative="1" as="geometry">
            <mxPoint x="119" y="126" as="sourcePoint" />
            <mxPoint x="1109" y="126.25" as="targetPoint" />
          </mxGeometry>
        </mxCell>
        <mxCell id="0hDTnjNGJMCXtrsAU_51-4" value="" style="endArrow=none;html=1;rounded=0;exitX=0;exitY=0.25;exitDx=0;exitDy=0;strokeColor=#0FFF87;strokeWidth=3;" edge="1" parent="1">
          <mxGeometry width="50" height="50" relative="1" as="geometry">
            <mxPoint x="297" y="193" as="sourcePoint" />
            <mxPoint x="1108" y="193" as="targetPoint" />
          </mxGeometry>
        </mxCell>
        <mxCell id="0hDTnjNGJMCXtrsAU_51-5" value="" style="endArrow=none;html=1;rounded=0;exitX=0;exitY=0.25;exitDx=0;exitDy=0;strokeColor=#0FFF87;strokeWidth=3;" edge="1" parent="1">
          <mxGeometry width="50" height="50" relative="1" as="geometry">
            <mxPoint x="119" y="269" as="sourcePoint" />
            <mxPoint x="1109" y="269.25" as="targetPoint" />
          </mxGeometry>
        </mxCell>
        <mxCell id="0hDTnjNGJMCXtrsAU_51-6" value="" style="endArrow=none;html=1;rounded=0;exitX=0;exitY=0.25;exitDx=0;exitDy=0;strokeColor=#0FFF87;strokeWidth=3;" edge="1" parent="1">
          <mxGeometry width="50" height="50" relative="1" as="geometry">
            <mxPoint x="119" y="297" as="sourcePoint" />
            <mxPoint x="1109" y="297.25" as="targetPoint" />
          </mxGeometry>
        </mxCell>
        <mxCell id="0hDTnjNGJMCXtrsAU_51-7" value="" style="endArrow=none;html=1;rounded=0;exitX=0;exitY=0.25;exitDx=0;exitDy=0;strokeColor=#0FFF87;strokeWidth=3;" edge="1" parent="1">
          <mxGeometry width="50" height="50" relative="1" as="geometry">
            <mxPoint x="121" y="529" as="sourcePoint" />
            <mxPoint x="1111" y="529.25" as="targetPoint" />
          </mxGeometry>
        </mxCell>
        <mxCell id="0hDTnjNGJMCXtrsAU_51-8" value="" style="endArrow=none;html=1;rounded=0;exitX=0;exitY=0.25;exitDx=0;exitDy=0;strokeColor=#0FFF87;strokeWidth=3;" edge="1" parent="1">
          <mxGeometry width="50" height="50" relative="1" as="geometry">
            <mxPoint x="120" y="500" as="sourcePoint" />
            <mxPoint x="1110" y="500.25" as="targetPoint" />
          </mxGeometry>
        </mxCell>
        <mxCell id="0hDTnjNGJMCXtrsAU_51-9" value="" style="endArrow=none;html=1;rounded=0;exitX=0;exitY=0.25;exitDx=0;exitDy=0;strokeColor=#0FFF87;strokeWidth=3;" edge="1" parent="1">
          <mxGeometry width="50" height="50" relative="1" as="geometry">
            <mxPoint x="119" y="483" as="sourcePoint" />
            <mxPoint x="1109" y="483.25" as="targetPoint" />
          </mxGeometry>
        </mxCell>
        <mxCell id="0hDTnjNGJMCXtrsAU_51-10" value="" style="endArrow=none;html=1;rounded=0;exitX=0;exitY=0.25;exitDx=0;exitDy=0;strokeColor=#0FFF87;strokeWidth=3;" edge="1" parent="1">
          <mxGeometry width="50" height="50" relative="1" as="geometry">
            <mxPoint x="119" y="315" as="sourcePoint" />
            <mxPoint x="1109" y="315.25" as="targetPoint" />
          </mxGeometry>
        </mxCell>
        <mxCell id="0hDTnjNGJMCXtrsAU_51-11" value="" style="endArrow=none;html=1;rounded=0;exitX=0;exitY=0.25;exitDx=0;exitDy=0;strokeColor=#0FFF87;strokeWidth=3;" edge="1" parent="1">
          <mxGeometry width="50" height="50" relative="1" as="geometry">
            <mxPoint x="119" y="392" as="sourcePoint" />
            <mxPoint x="1109" y="392.25" as="targetPoint" />
          </mxGeometry>
        </mxCell>
        <mxCell id="0hDTnjNGJMCXtrsAU_51-12" value="" style="endArrow=none;html=1;rounded=0;exitX=0;exitY=0.25;exitDx=0;exitDy=0;strokeColor=#0FFF87;strokeWidth=3;" edge="1" parent="1">
          <mxGeometry width="50" height="50" relative="1" as="geometry">
            <mxPoint x="121" y="415" as="sourcePoint" />
            <mxPoint x="1111" y="415.25" as="targetPoint" />
          </mxGeometry>
        </mxCell>
        <mxCell id="0hDTnjNGJMCXtrsAU_51-13" value="" style="endArrow=none;html=1;rounded=0;exitX=0;exitY=0.25;exitDx=0;exitDy=0;strokeColor=#0FFF87;strokeWidth=3;" edge="1" parent="1">
          <mxGeometry width="50" height="50" relative="1" as="geometry">
            <mxPoint x="121" y="331" as="sourcePoint" />
            <mxPoint x="1111" y="331.25" as="targetPoint" />
          </mxGeometry>
        </mxCell>
        <mxCell id="0hDTnjNGJMCXtrsAU_51-14" value="" style="endArrow=none;html=1;rounded=0;exitX=0;exitY=0.25;exitDx=0;exitDy=0;strokeColor=#0FFF87;strokeWidth=3;" edge="1" parent="1">
          <mxGeometry width="50" height="50" relative="1" as="geometry">
            <mxPoint x="121" y="434" as="sourcePoint" />
            <mxPoint x="1111" y="434.25" as="targetPoint" />
          </mxGeometry>
        </mxCell>
        <mxCell id="0hDTnjNGJMCXtrsAU_51-15" value="" style="endArrow=none;html=1;rounded=0;exitX=0;exitY=0.25;exitDx=0;exitDy=0;strokeColor=#0FFF87;strokeWidth=3;" edge="1" parent="1">
          <mxGeometry width="50" height="50" relative="1" as="geometry">
            <mxPoint x="121" y="452" as="sourcePoint" />
            <mxPoint x="1111" y="452.25" as="targetPoint" />
          </mxGeometry>
        </mxCell>
        <mxCell id="0hDTnjNGJMCXtrsAU_51-16" value="" style="endArrow=none;html=1;rounded=0;exitX=0;exitY=0.25;exitDx=0;exitDy=0;strokeColor=#0FFF87;strokeWidth=3;" edge="1" parent="1">
          <mxGeometry width="50" height="50" relative="1" as="geometry">
            <mxPoint x="121" y="467" as="sourcePoint" />
            <mxPoint x="1111" y="467.25" as="targetPoint" />
          </mxGeometry>
        </mxCell>
        <mxCell id="0hDTnjNGJMCXtrsAU_51-17" value="" style="endArrow=none;html=1;rounded=0;exitX=0;exitY=0.25;exitDx=0;exitDy=0;strokeColor=#0FFF87;strokeWidth=3;" edge="1" parent="1">
          <mxGeometry width="50" height="50" relative="1" as="geometry">
            <mxPoint x="119" y="364" as="sourcePoint" />
            <mxPoint x="1109" y="364.25" as="targetPoint" />
          </mxGeometry>
        </mxCell>
        <mxCell id="0hDTnjNGJMCXtrsAU_51-18" value="" style="endArrow=none;html=1;rounded=0;exitX=0;exitY=0.25;exitDx=0;exitDy=0;strokeColor=#0FFF87;strokeWidth=3;" edge="1" parent="1">
          <mxGeometry width="50" height="50" relative="1" as="geometry">
            <mxPoint x="119" y="347" as="sourcePoint" />
            <mxPoint x="1109" y="347.25" as="targetPoint" />
          </mxGeometry>
        </mxCell>
        <mxCell id="0hDTnjNGJMCXtrsAU_51-19" value="" style="endArrow=none;html=1;rounded=0;strokeColor=#0FFF87;strokeWidth=3;entryX=0;entryY=1;entryDx=0;entryDy=0;" edge="1" parent="1" target="0hDTnjNGJMCXtrsAU_51-1">
          <mxGeometry width="50" height="50" relative="1" as="geometry">
            <mxPoint x="121" y="128" as="sourcePoint" />
            <mxPoint x="1029" y="702.25" as="targetPoint" />
          </mxGeometry>
        </mxCell>
        <mxCell id="0hDTnjNGJMCXtrsAU_51-20" value="" style="endArrow=none;html=1;rounded=0;strokeColor=#0FFF87;strokeWidth=3;" edge="1" parent="1">
          <mxGeometry width="50" height="50" relative="1" as="geometry">
            <mxPoint x="300" y="129" as="sourcePoint" />
            <mxPoint x="300" y="526" as="targetPoint" />
          </mxGeometry>
        </mxCell>
        <mxCell id="0hDTnjNGJMCXtrsAU_51-21" value="" style="endArrow=none;html=1;rounded=0;strokeColor=#0FFF87;strokeWidth=3;" edge="1" parent="1">
          <mxGeometry width="50" height="50" relative="1" as="geometry">
            <mxPoint x="567" y="131" as="sourcePoint" />
            <mxPoint x="570" y="526" as="targetPoint" />
          </mxGeometry>
        </mxCell>
        <mxCell id="0hDTnjNGJMCXtrsAU_51-22" value="" style="endArrow=none;html=1;rounded=0;strokeColor=#0FFF87;strokeWidth=3;entryX=1;entryY=1;entryDx=0;entryDy=0;" edge="1" parent="1" target="0hDTnjNGJMCXtrsAU_51-1">
          <mxGeometry width="50" height="50" relative="1" as="geometry">
            <mxPoint x="1107" y="128" as="sourcePoint" />
            <mxPoint x="1776" y="561.25" as="targetPoint" />
          </mxGeometry>
        </mxCell>
        <mxCell id="0hDTnjNGJMCXtrsAU_51-23" value="" style="endArrow=none;html=1;rounded=0;strokeColor=#0FFF87;strokeWidth=3;" edge="1" parent="1">
          <mxGeometry width="50" height="50" relative="1" as="geometry">
            <mxPoint x="836" y="131" as="sourcePoint" />
            <mxPoint x="840" y="527" as="targetPoint" />
          </mxGeometry>
        </mxCell>
        <mxCell id="0hDTnjNGJMCXtrsAU_51-24" value="" style="endArrow=none;html=1;rounded=0;strokeColor=#0FFF87;strokeWidth=3;" edge="1" parent="1">
          <mxGeometry width="50" height="50" relative="1" as="geometry">
            <mxPoint x="365" y="194" as="sourcePoint" />
            <mxPoint x="365" y="529" as="targetPoint" />
          </mxGeometry>
        </mxCell>
        <mxCell id="0hDTnjNGJMCXtrsAU_51-25" value="" style="endArrow=none;html=1;rounded=0;strokeColor=#0FFF87;strokeWidth=3;entryX=0.321;entryY=0.998;entryDx=0;entryDy=0;entryPerimeter=0;" edge="1" parent="1">
          <mxGeometry width="50" height="50" relative="1" as="geometry">
            <mxPoint x="434" y="195" as="sourcePoint" />
            <mxPoint x="433.7418499999999" y="528.194" as="targetPoint" />
          </mxGeometry>
        </mxCell>
        <mxCell id="0hDTnjNGJMCXtrsAU_51-26" value="" style="endArrow=none;html=1;rounded=0;strokeColor=#0FFF87;strokeWidth=3;" edge="1" parent="1">
          <mxGeometry width="50" height="50" relative="1" as="geometry">
            <mxPoint x="501" y="195" as="sourcePoint" />
            <mxPoint x="501" y="530" as="targetPoint" />
          </mxGeometry>
        </mxCell>
        <mxCell id="0hDTnjNGJMCXtrsAU_51-27" value="" style="endArrow=none;html=1;rounded=0;strokeColor=#0FFF87;strokeWidth=3;entryX=0.522;entryY=0.993;entryDx=0;entryDy=0;entryPerimeter=0;" edge="1" parent="1" target="0hDTnjNGJMCXtrsAU_51-1">
          <mxGeometry width="50" height="50" relative="1" as="geometry">
            <mxPoint x="636" y="193" as="sourcePoint" />
            <mxPoint x="557" y="928" as="targetPoint" />
          </mxGeometry>
        </mxCell>
        <mxCell id="0hDTnjNGJMCXtrsAU_51-28" value="" style="endArrow=none;html=1;rounded=0;strokeColor=#0FFF87;strokeWidth=3;" edge="1" parent="1">
          <mxGeometry width="50" height="50" relative="1" as="geometry">
            <mxPoint x="702" y="195" as="sourcePoint" />
            <mxPoint x="704" y="527" as="targetPoint" />
          </mxGeometry>
        </mxCell>
        <mxCell id="0hDTnjNGJMCXtrsAU_51-29" value="" style="endArrow=none;html=1;rounded=0;strokeColor=#0FFF87;strokeWidth=3;" edge="1" parent="1">
          <mxGeometry width="50" height="50" relative="1" as="geometry">
            <mxPoint x="770" y="196" as="sourcePoint" />
            <mxPoint x="770" y="528" as="targetPoint" />
          </mxGeometry>
        </mxCell>
        <mxCell id="0hDTnjNGJMCXtrsAU_51-30" value="" style="endArrow=none;html=1;rounded=0;strokeColor=#0FFF87;strokeWidth=3;entryX=0.794;entryY=0.998;entryDx=0;entryDy=0;entryPerimeter=0;" edge="1" parent="1" target="0hDTnjNGJMCXtrsAU_51-1">
          <mxGeometry width="50" height="50" relative="1" as="geometry">
            <mxPoint x="905" y="193" as="sourcePoint" />
            <mxPoint x="777" y="1009" as="targetPoint" />
          </mxGeometry>
        </mxCell>
        <mxCell id="0hDTnjNGJMCXtrsAU_51-31" value="" style="endArrow=none;html=1;rounded=0;strokeColor=#0FFF87;strokeWidth=3;" edge="1" parent="1">
          <mxGeometry width="50" height="50" relative="1" as="geometry">
            <mxPoint x="972" y="196" as="sourcePoint" />
            <mxPoint x="972" y="532" as="targetPoint" />
          </mxGeometry>
        </mxCell>
        <mxCell id="0hDTnjNGJMCXtrsAU_51-32" value="" style="endArrow=none;html=1;rounded=0;strokeColor=#0FFF87;strokeWidth=3;" edge="1" parent="1">
          <mxGeometry width="50" height="50" relative="1" as="geometry">
            <mxPoint x="1039" y="193" as="sourcePoint" />
            <mxPoint x="1043" y="528" as="targetPoint" />
          </mxGeometry>
        </mxCell>
      </root>
    </mxGraphModel>
  </diagram>
</mxfile>
